<?xml version="1.0" encoding="utf-8" standalone="no"?>
<!DOCTYPE svg PUBLIC "-//W3C//DTD SVG 1.1//EN"
  "http://www.w3.org/Graphics/SVG/1.1/DTD/svg11.dtd">
<!-- Created with matplotlib (https://matplotlib.org/) -->
<svg height="522.243975pt" version="1.1" viewBox="0 0 674.328125 522.243975" width="674.328125pt" xmlns="http://www.w3.org/2000/svg" xmlns:xlink="http://www.w3.org/1999/xlink">
 <defs>
  <style type="text/css">
*{stroke-linecap:butt;stroke-linejoin:round;}
  </style>
 </defs>
 <g id="figure_1">
  <g id="patch_1">
   <path d="M 0 522.243975 
L 674.328125 522.243975 
L 674.328125 0 
L 0 0 
z
" style="fill:#ffffff;"/>
  </g>
  <g id="axes_1">
   <g id="patch_2">
    <path d="M 46.965625 484.687725 
L 660.765625 484.687725 
L 660.765625 22.318125 
L 46.965625 22.318125 
z
" style="fill:#ffffff;"/>
   </g>
   <g id="PolyCollection_1">
    <path clip-path="url(#paaf1dfa0f1)" d="M 77.655625 405.740324 
L 77.655625 446.525256 
L 78.934375 445.248719 
L 81.491875 442.596257 
L 84.049375 440.001264 
L 86.606875 437.458499 
L 89.164375 434.9636 
L 91.721875 432.512927 
L 94.279375 430.103417 
L 96.836875 427.732449 
L 99.394375 425.397739 
L 101.951875 423.097243 
L 104.509375 420.829071 
L 107.066875 418.591417 
L 109.624375 416.382482 
L 112.181875 414.36127 
L 114.739375 412.369356 
L 117.296875 410.405131 
L 119.854375 408.466968 
L 122.411875 406.553225 
L 124.969375 404.662268 
L 127.526875 402.792467 
L 130.084375 400.942206 
L 132.641875 399.10989 
L 135.199375 397.293953 
L 137.756875 395.49286 
L 140.314375 393.705115 
L 142.871875 391.929267 
L 145.429375 390.163911 
L 147.986875 388.407695 
L 150.544375 386.659336 
L 153.101875 384.91759 
L 155.659375 383.181295 
L 158.216875 381.449353 
L 160.774375 379.720738 
L 163.331875 377.994496 
L 165.889375 376.269752 
L 168.446875 374.545711 
L 171.004375 372.821659 
L 173.561875 371.096964 
L 176.119375 369.37108 
L 178.676875 367.643545 
L 181.234375 365.913985 
L 183.791875 364.182112 
L 186.349375 362.447724 
L 188.906875 360.710705 
L 191.464375 358.971025 
L 194.021875 357.228735 
L 196.579375 355.483975 
L 199.136875 353.736953 
L 201.694375 351.987964 
L 204.251875 350.237376 
L 206.809375 348.485624 
L 209.366875 346.733214 
L 211.924375 344.98071 
L 214.481875 343.228737 
L 217.039375 341.477971 
L 219.596875 339.729139 
L 222.154375 337.983005 
L 224.711875 336.240371 
L 227.269375 334.502071 
L 229.826875 332.768959 
L 232.384375 331.041909 
L 234.941875 329.321804 
L 237.499375 327.60953 
L 240.056875 325.905973 
L 242.614375 324.212013 
L 245.171875 322.528501 
L 247.729375 320.856278 
L 250.286875 319.196154 
L 252.844375 317.548902 
L 255.401875 315.915258 
L 257.959375 314.295911 
L 260.516875 312.691497 
L 263.074375 311.102599 
L 265.631875 309.529738 
L 268.189375 307.973368 
L 270.746875 306.433877 
L 273.304375 304.911579 
L 275.861875 303.406711 
L 278.419375 301.919434 
L 280.976875 300.449824 
L 283.534375 298.997875 
L 286.091875 297.563495 
L 288.649375 296.146506 
L 291.206875 294.74664 
L 293.764375 293.363541 
L 296.321875 291.996761 
L 298.879375 290.645764 
L 301.436875 289.309922 
L 303.994375 287.988518 
L 306.551875 286.680746 
L 309.109375 285.38571 
L 311.666875 284.102426 
L 314.224375 282.829826 
L 316.781875 281.566755 
L 319.339375 280.311977 
L 321.896875 279.064173 
L 324.454375 277.821951 
L 327.011875 276.583838 
L 329.569375 275.348295 
L 332.126875 274.113714 
L 334.684375 272.878422 
L 337.241875 271.64069 
L 339.799375 270.398738 
L 342.356875 269.150738 
L 344.914375 267.894821 
L 347.471875 266.629093 
L 350.029375 265.351632 
L 352.586875 264.060505 
L 355.144375 262.753779 
L 357.701875 261.429526 
L 360.259375 260.085844 
L 362.816875 258.720863 
L 365.374375 257.332766 
L 367.931875 255.919797 
L 370.489375 254.480284 
L 373.046875 253.01265 
L 375.604375 251.515437 
L 378.161875 249.987315 
L 380.719375 248.427108 
L 383.276875 246.833806 
L 385.834375 245.206586 
L 388.391875 243.544828 
L 390.949375 241.848131 
L 393.506875 240.11633 
L 396.064375 238.349508 
L 398.621875 236.54801 
L 401.179375 234.712457 
L 403.736875 232.843748 
L 406.294375 230.943074 
L 408.851875 229.011918 
L 411.409375 227.052057 
L 413.966875 225.065562 
L 416.524375 223.054789 
L 419.081875 221.022374 
L 421.639375 218.971219 
L 424.196875 216.90447 
L 426.754375 214.825502 
L 429.311875 212.73789 
L 431.869375 210.645381 
L 434.426875 208.551862 
L 436.984375 206.461321 
L 439.541875 204.37781 
L 442.099375 202.305408 
L 444.656875 200.248181 
L 447.214375 198.210125 
L 449.771875 196.195151 
L 452.329375 194.207031 
L 454.886875 192.249368 
L 457.444375 190.325561 
L 460.001875 188.438779 
L 462.559375 186.59194 
L 465.116875 184.787684 
L 467.674375 183.028369 
L 470.231875 181.316054 
L 472.789375 179.652497 
L 475.346875 178.039157 
L 477.904375 176.477194 
L 480.461875 174.967478 
L 483.019375 173.510603 
L 485.576875 172.106894 
L 488.134375 170.756428 
L 490.691875 169.45905 
L 493.249375 168.214391 
L 495.806875 167.021884 
L 498.364375 165.88079 
L 500.921875 164.790215 
L 503.479375 163.749125 
L 506.036875 162.756369 
L 508.594375 161.8107 
L 511.151875 160.910784 
L 513.709375 160.055221 
L 516.266875 159.242561 
L 518.824375 158.471315 
L 521.381875 157.739966 
L 523.939375 157.046987 
L 526.496875 156.390842 
L 529.054375 155.770003 
L 531.611875 155.182953 
L 534.169375 154.628196 
L 536.726875 154.104261 
L 539.284375 153.609704 
L 541.841875 153.143122 
L 544.399375 152.703145 
L 546.956875 152.288447 
L 549.514375 151.897743 
L 552.071875 151.529793 
L 554.629375 151.183403 
L 557.186875 150.857427 
L 559.744375 150.550762 
L 562.301875 150.262355 
L 564.859375 149.991199 
L 567.416875 149.736329 
L 569.974375 149.49683 
L 572.531875 149.271827 
L 575.089375 149.06049 
L 577.646875 148.862029 
L 580.204375 148.675695 
L 582.761875 148.500778 
L 585.319375 148.336607 
L 587.876875 148.182543 
L 590.434375 148.037986 
L 592.991875 147.902365 
L 595.549375 147.775145 
L 598.106875 147.655817 
L 600.664375 147.543905 
L 603.221875 147.438955 
L 605.779375 147.340545 
L 608.336875 147.248273 
L 610.894375 147.161763 
L 613.451875 147.08066 
L 616.009375 147.004632 
L 618.566875 146.933363 
L 621.124375 146.86656 
L 623.681875 146.803945 
L 626.239375 146.745258 
L 628.796875 146.690255 
L 630.075625 146.664063 
L 630.075625 63.116863 
L 630.075625 63.116863 
L 628.796875 63.149457 
L 626.239375 63.216532 
L 623.681875 63.286223 
L 621.124375 63.358656 
L 618.566875 63.433964 
L 616.009375 63.512288 
L 613.451875 63.593777 
L 610.894375 63.678593 
L 608.336875 63.766903 
L 605.779375 63.858889 
L 603.221875 63.954742 
L 600.664375 64.054667 
L 598.106875 64.15888 
L 595.549375 64.267614 
L 592.991875 64.381115 
L 590.434375 64.499647 
L 587.876875 64.62349 
L 585.319375 64.752946 
L 582.761875 64.888332 
L 580.204375 65.029992 
L 577.646875 65.178289 
L 575.089375 65.333614 
L 572.531875 65.496382 
L 569.974375 65.66704 
L 567.416875 65.846061 
L 564.859375 66.033954 
L 562.301875 66.231261 
L 559.744375 66.438563 
L 557.186875 66.656479 
L 554.629375 66.88567 
L 552.071875 67.126845 
L 549.514375 67.380757 
L 546.956875 67.648212 
L 544.399375 67.93007 
L 541.841875 68.227246 
L 539.284375 68.540718 
L 536.726875 68.871525 
L 534.169375 69.220773 
L 531.611875 69.58964 
L 529.054375 69.979373 
L 526.496875 70.391296 
L 523.939375 70.826813 
L 521.381875 71.287407 
L 518.824375 71.774642 
L 516.266875 72.290167 
L 513.709375 72.835715 
L 511.151875 73.413102 
L 508.594375 74.024225 
L 506.036875 74.671059 
L 503.479375 75.355658 
L 500.921875 76.080139 
L 498.364375 76.84668 
L 495.806875 77.657512 
L 493.249375 78.514894 
L 490.691875 79.421113 
L 488.134375 80.37845 
L 485.576875 81.389168 
L 483.019375 82.45548 
L 480.461875 83.579524 
L 477.904375 84.763326 
L 475.346875 86.008771 
L 472.789375 87.317554 
L 470.231875 88.691152 
L 467.674375 90.130771 
L 465.116875 91.63731 
L 462.559375 93.211312 
L 460.001875 94.85293 
L 457.444375 96.561883 
L 454.886875 98.337423 
L 452.329375 100.178308 
L 449.771875 102.082783 
L 447.214375 104.048564 
L 444.656875 106.07284 
L 442.099375 108.152278 
L 439.541875 110.283059 
L 436.984375 112.460886 
L 434.426875 114.681047 
L 431.869375 116.938467 
L 429.311875 119.227773 
L 426.754375 121.543368 
L 424.196875 123.879507 
L 421.639375 126.23039 
L 419.081875 128.590235 
L 416.524375 130.953377 
L 413.966875 133.314329 
L 411.409375 135.667875 
L 408.851875 138.009125 
L 406.294375 140.33358 
L 403.736875 142.637175 
L 401.179375 144.916315 
L 398.621875 147.167901 
L 396.064375 149.389343 
L 393.506875 151.578565 
L 390.949375 153.733994 
L 388.391875 155.854546 
L 385.834375 157.939607 
L 383.276875 159.988997 
L 380.719375 162.002941 
L 378.161875 163.982031 
L 375.604375 165.927185 
L 373.046875 167.83961 
L 370.489375 169.720756 
L 367.931875 171.572283 
L 365.374375 173.396019 
L 362.816875 175.193923 
L 360.259375 176.968055 
L 357.701875 178.720544 
L 355.144375 180.453558 
L 352.586875 182.169283 
L 350.029375 183.869898 
L 347.471875 185.557556 
L 344.914375 187.23437 
L 342.356875 188.902397 
L 339.799375 190.563626 
L 337.241875 192.219973 
L 334.684375 193.873269 
L 332.126875 195.525255 
L 329.569375 197.177579 
L 327.011875 198.831793 
L 324.454375 200.489351 
L 321.896875 202.15161 
L 319.339375 203.819825 
L 316.781875 205.495157 
L 314.224375 207.178665 
L 311.666875 208.871319 
L 309.109375 210.573991 
L 306.551875 212.287466 
L 303.994375 214.012439 
L 301.436875 215.749522 
L 298.879375 217.499242 
L 296.321875 219.262049 
L 293.764375 221.038318 
L 291.206875 222.828347 
L 288.649375 224.632367 
L 286.091875 226.450544 
L 283.534375 228.282976 
L 280.976875 230.129705 
L 278.419375 231.990712 
L 275.861875 233.865928 
L 273.304375 235.755229 
L 270.746875 237.658445 
L 268.189375 239.575362 
L 265.631875 241.505723 
L 263.074375 243.449231 
L 260.516875 245.405556 
L 257.959375 247.374332 
L 255.401875 249.355167 
L 252.844375 251.347637 
L 250.286875 253.351299 
L 247.729375 255.365686 
L 245.171875 257.390313 
L 242.614375 259.424681 
L 240.056875 261.468273 
L 237.499375 263.520579 
L 234.941875 265.581062 
L 232.384375 267.649193 
L 229.826875 269.724436 
L 227.269375 271.806262 
L 224.711875 273.894144 
L 222.154375 275.987562 
L 219.596875 278.086007 
L 217.039375 280.188984 
L 214.481875 282.296011 
L 211.924375 284.406625 
L 209.366875 286.520385 
L 206.809375 288.636871 
L 204.251875 290.755691 
L 201.694375 292.876479 
L 199.136875 294.998901 
L 196.579375 297.122654 
L 194.021875 299.247469 
L 191.464375 301.37312 
L 188.906875 303.499416 
L 186.349375 305.626208 
L 183.791875 307.75339 
L 181.234375 309.880902 
L 178.676875 312.00873 
L 176.119375 314.136912 
L 173.561875 316.265534 
L 171.004375 318.394736 
L 168.446875 320.524713 
L 165.889375 322.655713 
L 163.331875 324.788046 
L 160.774375 326.922077 
L 158.216875 329.058235 
L 155.659375 331.19701 
L 153.101875 333.338955 
L 150.544375 335.48469 
L 147.986875 337.634898 
L 145.429375 339.790344 
L 142.871875 341.951842 
L 140.314375 344.120292 
L 137.756875 346.296664 
L 135.199375 348.482 
L 132.641875 350.677422 
L 130.084375 352.884125 
L 127.526875 355.103386 
L 124.969375 357.336561 
L 122.411875 359.585088 
L 119.854375 361.850488 
L 117.296875 364.134363 
L 114.739375 366.438408 
L 112.181875 368.764395 
L 109.624375 371.114186 
L 107.066875 373.50016 
L 104.509375 375.938811 
L 101.951875 378.434609 
L 99.394375 380.99196 
L 96.836875 383.615227 
L 94.279375 386.308753 
L 91.721875 389.076877 
L 89.164375 391.923976 
L 86.606875 394.854501 
L 84.049375 397.873034 
L 81.491875 400.984364 
L 78.934375 404.193561 
L 77.655625 405.740324 
z
" style="fill:#3399ff;"/>
   </g>
   <g id="PolyCollection_2">
    <path clip-path="url(#paaf1dfa0f1)" d="M 77.655625 410.259766 
L 77.655625 442.036923 
L 78.934375 440.712784 
L 81.491875 438.045763 
L 84.049375 435.437675 
L 86.606875 432.883322 
L 89.164375 430.378433 
L 91.721875 427.919468 
L 94.279375 425.50345 
L 96.836875 423.127833 
L 99.394375 420.790378 
L 101.951875 418.489057 
L 104.509375 416.22197 
L 107.066875 413.987271 
L 109.624375 411.783113 
L 112.181875 409.691101 
L 114.739375 407.628893 
L 117.296875 405.594821 
L 119.854375 403.587222 
L 122.411875 401.60445 
L 124.969375 399.644876 
L 127.526875 397.706894 
L 130.084375 395.78893 
L 132.641875 393.889439 
L 135.199375 392.006917 
L 137.756875 390.139899 
L 140.314375 388.286966 
L 142.871875 386.446745 
L 145.429375 384.617917 
L 147.986875 382.799217 
L 150.544375 380.989435 
L 153.101875 379.187423 
L 155.659375 377.392097 
L 158.216875 375.602435 
L 160.774375 373.817483 
L 163.331875 372.036356 
L 165.889375 370.258239 
L 168.446875 368.482391 
L 171.004375 366.708143 
L 173.561875 364.934899 
L 176.119375 363.162141 
L 178.676875 361.389425 
L 181.234375 359.616383 
L 183.791875 357.842725 
L 186.349375 356.068235 
L 188.906875 354.292774 
L 191.464375 352.516274 
L 194.021875 350.738745 
L 196.579375 348.960263 
L 199.136875 347.18098 
L 201.694375 345.401111 
L 204.251875 343.620938 
L 206.809375 341.840805 
L 209.366875 340.061113 
L 211.924375 338.282322 
L 214.481875 336.504941 
L 217.039375 334.729528 
L 219.596875 332.956685 
L 222.154375 331.18705 
L 224.711875 329.421296 
L 227.269375 327.660126 
L 229.826875 325.904264 
L 232.384375 324.154453 
L 234.941875 322.411449 
L 237.499375 320.676015 
L 240.056875 318.948914 
L 242.614375 317.230903 
L 245.171875 315.522736 
L 247.729375 313.825145 
L 250.286875 312.138842 
L 252.844375 310.464514 
L 255.401875 308.802817 
L 257.959375 307.15437 
L 260.516875 305.519749 
L 263.074375 303.899486 
L 265.631875 302.294064 
L 268.189375 300.70391 
L 270.746875 299.129394 
L 273.304375 297.570824 
L 275.861875 296.028444 
L 278.419375 294.50243 
L 280.976875 292.992888 
L 283.534375 291.499851 
L 286.091875 290.023277 
L 288.649375 288.563048 
L 291.206875 287.118965 
L 293.764375 285.690753 
L 296.321875 284.278053 
L 298.879375 282.880423 
L 301.436875 281.49734 
L 303.994375 280.128194 
L 306.551875 278.772295 
L 309.109375 277.428864 
L 311.666875 276.097038 
L 314.224375 274.775872 
L 316.781875 273.464331 
L 319.339375 272.1613 
L 321.896875 270.865577 
L 324.454375 269.575881 
L 327.011875 268.290844 
L 329.569375 267.009023 
L 332.126875 265.728894 
L 334.684375 264.448857 
L 337.241875 263.167241 
L 339.799375 261.882303 
L 342.356875 260.592239 
L 344.914375 259.29518 
L 347.471875 257.989208 
L 350.029375 256.672356 
L 352.586875 255.342616 
L 355.144375 253.997955 
L 357.701875 252.636318 
L 360.259375 251.255644 
L 362.816875 249.853879 
L 365.374375 248.428991 
L 367.931875 246.978986 
L 370.489375 245.50193 
L 373.046875 243.995962 
L 375.604375 242.459323 
L 378.161875 240.890373 
L 380.719375 239.28762 
L 383.276875 237.649739 
L 385.834375 235.975606 
L 388.391875 234.264316 
L 390.949375 232.515214 
L 393.506875 230.727918 
L 396.064375 228.902344 
L 398.621875 227.03873 
L 401.179375 225.137653 
L 403.736875 223.200048 
L 406.294375 221.227222 
L 408.851875 219.22086 
L 411.409375 217.18303 
L 413.966875 215.116184 
L 416.524375 213.023143 
L 419.081875 210.907089 
L 421.639375 208.771536 
L 424.196875 206.620312 
L 426.754375 204.457513 
L 429.311875 202.28747 
L 431.869375 200.114699 
L 434.426875 197.943853 
L 436.984375 195.779668 
L 439.541875 193.626908 
L 442.099375 191.490307 
L 444.656875 189.374519 
L 447.214375 187.284063 
L 449.771875 185.223273 
L 452.329375 183.196254 
L 454.886875 181.206845 
L 457.444375 179.258584 
L 460.001875 177.354683 
L 462.559375 175.498006 
L 465.116875 173.691058 
L 467.674375 171.935979 
L 470.231875 170.23454 
L 472.789375 168.588153 
L 475.346875 166.997876 
L 477.904375 165.46443 
L 480.461875 163.988215 
L 483.019375 162.569332 
L 485.576875 161.207603 
L 488.134375 159.902599 
L 490.691875 158.65366 
L 493.249375 157.459922 
L 495.806875 156.320344 
L 498.364375 155.233728 
L 500.921875 154.198745 
L 503.479375 153.213959 
L 506.036875 152.277844 
L 508.594375 151.388804 
L 511.151875 150.545193 
L 513.709375 149.745331 
L 516.266875 148.987515 
L 518.824375 148.270035 
L 521.381875 147.591186 
L 523.939375 146.949277 
L 526.496875 146.342637 
L 529.054375 145.769626 
L 531.611875 145.228639 
L 534.169375 144.718113 
L 536.726875 144.236529 
L 539.284375 143.782414 
L 541.841875 143.354348 
L 544.399375 142.950961 
L 546.956875 142.570938 
L 549.514375 142.213016 
L 552.071875 141.875986 
L 554.629375 141.558693 
L 557.186875 141.260033 
L 559.744375 140.978957 
L 562.301875 140.714463 
L 564.859375 140.465603 
L 567.416875 140.231474 
L 569.974375 140.011221 
L 572.531875 139.804032 
L 575.089375 139.609142 
L 577.646875 139.425824 
L 580.204375 139.253393 
L 582.761875 139.091202 
L 585.319375 138.938638 
L 587.876875 138.795127 
L 590.434375 138.660124 
L 592.991875 138.533118 
L 595.549375 138.413627 
L 598.106875 138.301197 
L 600.664375 138.1954 
L 603.221875 138.095836 
L 605.779375 138.002127 
L 608.336875 137.913917 
L 610.894375 137.830874 
L 613.451875 137.752683 
L 616.009375 137.679051 
L 618.566875 137.6097 
L 621.124375 137.544371 
L 623.681875 137.48282 
L 626.239375 137.42482 
L 628.796875 137.370153 
L 630.075625 137.344007 
L 630.075625 72.254251 
L 630.075625 72.254251 
L 628.796875 72.285427 
L 626.239375 72.349593 
L 623.681875 72.416277 
L 621.124375 72.4856 
L 618.566875 72.557694 
L 616.009375 72.6327 
L 613.451875 72.710764 
L 610.894375 72.792047 
L 608.336875 72.876716 
L 605.779375 72.964951 
L 603.221875 73.056944 
L 600.664375 73.152901 
L 598.106875 73.25304 
L 595.549375 73.357596 
L 592.991875 73.466818 
L 590.434375 73.580974 
L 587.876875 73.700351 
L 585.319375 73.825256 
L 582.761875 73.956018 
L 580.204375 74.092988 
L 577.646875 74.236543 
L 575.089375 74.387088 
L 572.531875 74.545056 
L 569.974375 74.710912 
L 567.416875 74.885153 
L 564.859375 75.068313 
L 562.301875 75.260963 
L 559.744375 75.463717 
L 557.186875 75.677231 
L 554.629375 75.902208 
L 552.071875 76.139401 
L 549.514375 76.389615 
L 546.956875 76.653712 
L 544.399375 76.93261 
L 541.841875 77.227295 
L 539.284375 77.538812 
L 536.726875 77.86828 
L 534.169375 78.216887 
L 531.611875 78.585897 
L 529.054375 78.976653 
L 526.496875 79.390576 
L 523.939375 79.829172 
L 521.381875 80.294027 
L 518.824375 80.786818 
L 516.266875 81.309301 
L 513.709375 81.863321 
L 511.151875 82.450803 
L 508.594375 83.073755 
L 506.036875 83.734257 
L 503.479375 84.43446 
L 500.921875 85.176576 
L 498.364375 85.962867 
L 495.806875 86.795633 
L 493.249375 87.677197 
L 490.691875 88.609886 
L 488.134375 89.596009 
L 485.576875 90.637836 
L 483.019375 91.737564 
L 480.461875 92.897293 
L 477.904375 94.118986 
L 475.346875 95.404435 
L 472.789375 96.755222 
L 470.231875 98.172674 
L 467.674375 99.657823 
L 465.116875 101.211361 
L 462.559375 102.833598 
L 460.001875 104.524421 
L 457.444375 106.283256 
L 454.886875 108.10904 
L 452.329375 110.000185 
L 449.771875 111.954571 
L 447.214375 113.969529 
L 444.656875 116.041847 
L 442.099375 118.167783 
L 439.541875 120.343089 
L 436.984375 122.563051 
L 434.426875 124.82254 
L 431.869375 127.116076 
L 429.311875 129.437894 
L 426.754375 131.782035 
L 424.196875 134.142425 
L 421.639375 136.512971 
L 419.081875 138.887649 
L 416.524375 141.2606 
L 413.966875 143.62621 
L 411.409375 145.979191 
L 408.851875 148.314652 
L 406.294375 150.62815 
L 403.736875 152.915745 
L 401.179375 155.174024 
L 398.621875 157.400127 
L 396.064375 159.591747 
L 393.506875 161.747131 
L 390.949375 163.865062 
L 388.391875 165.944831 
L 385.834375 167.98621 
L 383.276875 169.98941 
L 380.719375 171.955041 
L 378.161875 173.884068 
L 375.604375 175.777764 
L 373.046875 177.637665 
L 370.489375 179.465527 
L 367.931875 181.263283 
L 365.374375 183.033006 
L 362.816875 184.776868 
L 360.259375 186.497112 
L 357.701875 188.196019 
L 355.144375 189.875883 
L 352.586875 191.538987 
L 350.029375 193.187585 
L 347.471875 194.823884 
L 344.914375 196.450029 
L 342.356875 198.068094 
L 339.799375 199.680069 
L 337.241875 201.287858 
L 334.684375 202.893266 
L 332.126875 204.498004 
L 329.569375 206.103678 
L 327.011875 207.711794 
L 324.454375 209.323752 
L 321.896875 210.940852 
L 319.339375 212.56429 
L 316.781875 214.195164 
L 314.224375 215.834472 
L 311.666875 217.483118 
L 309.109375 219.141911 
L 306.551875 220.811573 
L 303.994375 222.492736 
L 301.436875 224.185953 
L 298.879375 225.891693 
L 296.321875 227.61035 
L 293.764375 229.342246 
L 291.206875 231.087632 
L 288.649375 232.846694 
L 286.091875 234.619553 
L 283.534375 236.406274 
L 280.976875 238.206865 
L 278.419375 240.021281 
L 275.861875 241.849427 
L 273.304375 243.691163 
L 270.746875 245.546307 
L 268.189375 247.414637 
L 265.631875 249.295891 
L 263.074375 251.189778 
L 260.516875 253.095973 
L 257.959375 255.014124 
L 255.401875 256.943854 
L 252.844375 258.884762 
L 250.286875 260.836431 
L 247.729375 262.798423 
L 245.171875 264.770288 
L 242.614375 266.751563 
L 240.056875 268.741777 
L 237.499375 270.740451 
L 234.941875 272.747104 
L 232.384375 274.761251 
L 229.826875 276.782411 
L 227.269375 278.810103 
L 224.711875 280.843856 
L 222.154375 282.883203 
L 219.596875 284.927693 
L 217.039375 286.976884 
L 214.481875 289.030353 
L 211.924375 291.087693 
L 209.366875 293.14852 
L 206.809375 295.212472 
L 204.251875 297.279213 
L 201.694375 299.348433 
L 199.136875 301.419856 
L 196.579375 303.493235 
L 194.021875 305.56836 
L 191.464375 307.645057 
L 188.906875 309.723191 
L 186.349375 311.802668 
L 183.791875 313.883437 
L 181.234375 315.965495 
L 178.676875 318.048882 
L 176.119375 320.133691 
L 173.561875 322.220062 
L 171.004375 324.308191 
L 168.446875 326.398326 
L 165.889375 328.490773 
L 163.331875 330.585895 
L 160.774375 332.684112 
L 158.216875 334.785909 
L 155.659375 336.89183 
L 153.101875 339.002484 
L 150.544375 341.118545 
L 147.986875 343.240755 
L 145.429375 345.369922 
L 142.871875 347.506926 
L 140.314375 349.652717 
L 137.756875 351.808319 
L 135.199375 353.97483 
L 132.641875 356.153425 
L 130.084375 358.345355 
L 127.526875 360.551954 
L 124.969375 362.774638 
L 122.411875 365.014905 
L 119.854375 367.274343 
L 117.296875 369.55463 
L 114.739375 371.857535 
L 112.181875 374.184924 
L 109.624375 376.538767 
L 107.066875 378.876975 
L 104.509375 381.264606 
L 101.951875 383.705581 
L 99.394375 386.203779 
L 96.836875 388.763051 
L 94.279375 391.387251 
L 91.721875 394.080281 
L 89.164375 396.846143 
L 86.606875 399.689001 
L 84.049375 402.613274 
L 81.491875 405.623731 
L 78.934375 408.725628 
L 77.655625 410.259766 
z
" style="fill:#0066cc;"/>
   </g>
   <g id="PolyCollection_3">
    <path clip-path="url(#paaf1dfa0f1)" d="M 77.655625 417.803297 
L 77.655625 434.52812 
L 78.934375 433.134562 
L 81.491875 430.41664 
L 84.049375 427.762298 
L 86.606875 425.166284 
L 89.164375 422.624308 
L 91.721875 420.132805 
L 94.279375 417.688755 
L 96.836875 415.289539 
L 99.394375 412.932811 
L 101.951875 410.616404 
L 104.509375 408.338242 
L 107.066875 406.09627 
L 109.624375 403.888426 
L 112.181875 401.694514 
L 114.739375 399.53104 
L 117.296875 397.396216 
L 119.854375 395.288298 
L 122.411875 393.205601 
L 124.969375 391.146471 
L 127.526875 389.109313 
L 130.084375 387.092578 
L 132.641875 385.094773 
L 135.199375 383.114453 
L 137.756875 381.150229 
L 140.314375 379.200767 
L 142.871875 377.264789 
L 145.429375 375.341072 
L 147.986875 373.428461 
L 150.544375 371.525834 
L 153.101875 369.632168 
L 155.659375 367.746472 
L 158.216875 365.867829 
L 160.774375 363.995383 
L 163.331875 362.12834 
L 165.889375 360.265971 
L 168.446875 358.407614 
L 171.004375 356.552668 
L 173.561875 354.700598 
L 176.119375 352.850936 
L 178.676875 351.003276 
L 181.234375 349.157277 
L 183.791875 347.312662 
L 186.349375 345.469218 
L 188.906875 343.626792 
L 191.464375 341.785292 
L 194.021875 339.944689 
L 196.579375 338.105005 
L 199.136875 336.266332 
L 201.694375 334.428803 
L 204.251875 332.592608 
L 206.809375 330.757989 
L 209.366875 328.925235 
L 211.924375 327.094679 
L 214.481875 325.266697 
L 217.039375 323.441705 
L 219.596875 321.620154 
L 222.154375 319.802528 
L 224.711875 317.98934 
L 227.269375 316.181127 
L 229.826875 314.378448 
L 232.384375 312.581882 
L 234.941875 310.792017 
L 237.499375 309.009452 
L 240.056875 307.234792 
L 242.614375 305.468633 
L 245.171875 303.711591 
L 247.729375 301.964254 
L 250.286875 300.227203 
L 252.844375 298.501004 
L 255.401875 296.786201 
L 257.959375 295.083316 
L 260.516875 293.392841 
L 263.074375 291.715238 
L 265.631875 290.050929 
L 268.189375 288.400302 
L 270.746875 286.763698 
L 273.304375 285.141414 
L 275.861875 283.533696 
L 278.419375 281.940742 
L 280.976875 280.362689 
L 283.534375 278.79962 
L 286.091875 277.251556 
L 288.649375 275.718457 
L 291.206875 274.200215 
L 293.764375 272.696656 
L 296.321875 271.207535 
L 298.879375 269.732535 
L 301.436875 268.271267 
L 303.994375 266.823262 
L 306.551875 265.387975 
L 309.109375 263.964781 
L 311.666875 262.552972 
L 314.224375 261.151756 
L 316.781875 259.760256 
L 319.339375 258.377508 
L 321.896875 257.002459 
L 324.454375 255.633966 
L 327.011875 254.270795 
L 329.569375 252.91162 
L 332.126875 251.555022 
L 334.684375 250.199491 
L 337.241875 248.843424 
L 339.799375 247.485129 
L 342.356875 246.122823 
L 344.914375 244.754637 
L 347.471875 243.378622 
L 350.029375 241.99275 
L 352.586875 240.594923 
L 355.144375 239.182977 
L 357.701875 237.754701 
L 360.259375 236.307838 
L 362.816875 234.840106 
L 365.374375 233.349211 
L 367.931875 231.83287 
L 370.489375 230.288828 
L 373.046875 228.714886 
L 375.604375 227.108927 
L 378.161875 225.468948 
L 380.719375 223.793089 
L 383.276875 222.079673 
L 385.834375 220.32724 
L 388.391875 218.534585 
L 390.949375 216.700801 
L 393.506875 214.825313 
L 396.064375 212.907917 
L 398.621875 210.948815 
L 401.179375 208.94865 
L 403.736875 206.908524 
L 406.294375 204.830023 
L 408.851875 202.715232 
L 411.409375 200.566731 
L 413.966875 198.387593 
L 416.524375 196.18137 
L 419.081875 193.952062 
L 421.639375 191.704077 
L 424.196875 189.442197 
L 426.754375 187.171505 
L 429.311875 184.897335 
L 431.869375 182.62519 
L 434.426875 180.360677 
L 436.984375 178.10943 
L 439.541875 175.877031 
L 442.099375 173.668937 
L 444.656875 171.490403 
L 447.214375 169.346452 
L 449.771875 167.241774 
L 452.329375 165.180704 
L 454.886875 163.16718 
L 457.444375 161.204711 
L 460.001875 159.296361 
L 462.559375 157.444739 
L 465.116875 155.651991 
L 467.674375 153.919816 
L 470.231875 152.249469 
L 472.789375 150.641787 
L 475.346875 149.097209 
L 477.904375 147.615804 
L 480.461875 146.1973 
L 483.019375 144.841118 
L 485.576875 143.546402 
L 488.134375 142.312055 
L 490.691875 141.136765 
L 493.249375 140.019046 
L 495.806875 138.957261 
L 498.364375 137.949654 
L 500.921875 136.994367 
L 503.479375 136.089486 
L 506.036875 135.233039 
L 508.594375 134.423024 
L 511.151875 133.65744 
L 513.709375 132.934282 
L 516.266875 132.251567 
L 518.824375 131.60734 
L 521.381875 130.999687 
L 523.939375 130.426743 
L 526.496875 129.886696 
L 529.054375 129.377791 
L 531.611875 128.898339 
L 534.169375 128.446715 
L 536.726875 128.02136 
L 539.284375 127.620787 
L 541.841875 127.243573 
L 544.399375 126.888366 
L 546.956875 126.553879 
L 549.514375 126.238893 
L 552.071875 125.94225 
L 554.629375 125.662858 
L 557.186875 125.399682 
L 559.744375 125.151746 
L 562.301875 124.91813 
L 564.859375 124.697966 
L 567.416875 124.490439 
L 569.974375 124.294779 
L 572.531875 124.110266 
L 575.089375 123.936219 
L 577.646875 123.772002 
L 580.204375 123.617016 
L 582.761875 123.4707 
L 585.319375 123.332527 
L 587.876875 123.202003 
L 590.434375 123.078664 
L 592.991875 122.962075 
L 595.549375 122.851831 
L 598.106875 122.74755 
L 600.664375 122.648874 
L 603.221875 122.555468 
L 605.779375 122.467018 
L 608.336875 122.383231 
L 610.894375 122.30383 
L 613.451875 122.228558 
L 616.009375 122.157173 
L 618.566875 122.089449 
L 621.124375 122.025172 
L 623.681875 121.964144 
L 626.239375 121.906178 
L 628.796875 121.8511 
L 630.075625 121.824591 
L 630.075625 87.569858 
L 630.075625 87.569858 
L 628.796875 87.599038 
L 626.239375 87.659172 
L 623.681875 87.721771 
L 621.124375 87.786962 
L 618.566875 87.854881 
L 616.009375 87.925674 
L 613.451875 87.999496 
L 610.894375 88.076512 
L 608.336875 88.156898 
L 605.779375 88.240845 
L 603.221875 88.328554 
L 600.664375 88.420241 
L 598.106875 88.51614 
L 595.549375 88.6165 
L 592.991875 88.721584 
L 590.434375 88.831682 
L 587.876875 88.947098 
L 585.319375 89.068162 
L 582.761875 89.195227 
L 580.204375 89.328673 
L 577.646875 89.468906 
L 575.089375 89.616364 
L 572.531875 89.771517 
L 569.974375 89.934868 
L 567.416875 90.106959 
L 564.859375 90.288371 
L 562.301875 90.479728 
L 559.744375 90.6817 
L 557.186875 90.895004 
L 554.629375 91.120408 
L 552.071875 91.358739 
L 549.514375 91.610879 
L 546.956875 91.877769 
L 544.399375 92.160421 
L 541.841875 92.45991 
L 539.284375 92.777384 
L 536.726875 93.114066 
L 534.169375 93.471255 
L 531.611875 93.850331 
L 529.054375 94.252756 
L 526.496875 94.680075 
L 523.939375 95.13392 
L 521.381875 95.616007 
L 518.824375 96.128139 
L 516.266875 96.672202 
L 513.709375 97.250163 
L 511.151875 97.864069 
L 508.594375 98.516039 
L 506.036875 99.208258 
L 503.479375 99.942963 
L 500.921875 100.722446 
L 498.364375 101.549025 
L 495.806875 102.425033 
L 493.249375 103.352808 
L 490.691875 104.33466 
L 488.134375 105.372851 
L 485.576875 106.469569 
L 483.019375 107.626897 
L 480.461875 108.846778 
L 477.904375 110.130982 
L 475.346875 111.481064 
L 472.789375 112.898326 
L 470.231875 114.383773 
L 467.674375 115.938075 
L 465.116875 117.56152 
L 462.559375 119.253977 
L 460.001875 121.014858 
L 457.444375 122.843083 
L 454.886875 124.737055 
L 452.329375 126.694638 
L 449.771875 128.713144 
L 447.214375 130.789335 
L 444.656875 132.91943 
L 442.099375 135.099132 
L 439.541875 137.323641 
L 436.984375 139.587739 
L 434.426875 141.885822 
L 431.869375 144.211974 
L 429.311875 146.560056 
L 426.754375 148.923787 
L 424.196875 151.296843 
L 421.639375 153.672946 
L 419.081875 156.045973 
L 416.524375 158.410027 
L 413.966875 160.759549 
L 411.409375 163.089373 
L 408.851875 165.394801 
L 406.294375 167.671655 
L 403.736875 169.916315 
L 401.179375 172.125741 
L 398.621875 174.297488 
L 396.064375 176.4297 
L 393.506875 178.521094 
L 390.949375 180.570935 
L 388.391875 182.579004 
L 385.834375 184.545553 
L 383.276875 186.47126 
L 380.719375 188.357184 
L 378.161875 190.20471 
L 375.604375 192.015502 
L 373.046875 193.791454 
L 370.489375 195.534643 
L 367.931875 197.247289 
L 365.374375 198.931711 
L 362.816875 200.590298 
L 360.259375 202.22547 
L 357.701875 203.839657 
L 355.144375 205.43527 
L 352.586875 207.014685 
L 350.029375 208.580222 
L 347.471875 210.134133 
L 344.914375 211.67859 
L 342.356875 213.215675 
L 339.799375 214.747378 
L 337.241875 216.275583 
L 334.684375 217.802072 
L 332.126875 219.32852 
L 329.569375 220.856496 
L 327.011875 222.387459 
L 324.454375 223.922762 
L 321.896875 225.463653 
L 319.339375 227.011276 
L 316.781875 228.566674 
L 314.224375 230.130793 
L 311.666875 231.704483 
L 309.109375 233.288502 
L 306.551875 234.883519 
L 303.994375 236.490119 
L 301.436875 238.108805 
L 298.879375 239.740003 
L 296.321875 241.384064 
L 293.764375 243.041269 
L 291.206875 244.711832 
L 288.649375 246.395903 
L 286.091875 248.093573 
L 283.534375 249.804877 
L 280.976875 251.529796 
L 278.419375 253.268262 
L 275.861875 255.02016 
L 273.304375 256.785332 
L 270.746875 258.563582 
L 268.189375 260.354675 
L 265.631875 262.158343 
L 263.074375 263.974286 
L 260.516875 265.802179 
L 257.959375 267.641668 
L 255.401875 269.492381 
L 252.844375 271.353923 
L 250.286875 273.225884 
L 247.729375 275.107841 
L 245.171875 276.999357 
L 242.614375 278.899988 
L 240.056875 280.80929 
L 237.499375 282.726795 
L 234.941875 284.652055 
L 232.384375 286.584618 
L 229.826875 288.524034 
L 227.269375 290.469859 
L 224.711875 292.421659 
L 222.154375 294.379011 
L 219.596875 296.341506 
L 217.039375 298.308749 
L 214.481875 300.280368 
L 211.924375 302.256007 
L 209.366875 304.235336 
L 206.809375 306.21805 
L 204.251875 308.203872 
L 201.694375 310.192555 
L 199.136875 312.183884 
L 196.579375 314.177679 
L 194.021875 316.173801 
L 191.464375 318.172138 
L 188.906875 320.17263 
L 186.349375 322.175257 
L 183.791875 324.180041 
L 181.234375 326.187055 
L 178.676875 328.196416 
L 176.119375 330.208296 
L 173.561875 332.222914 
L 171.004375 334.240547 
L 168.446875 336.261524 
L 165.889375 338.286232 
L 163.331875 340.315115 
L 160.774375 342.348676 
L 158.216875 344.38748 
L 155.659375 346.432152 
L 153.101875 348.48338 
L 150.544375 350.541916 
L 147.986875 352.608587 
L 145.429375 354.684256 
L 142.871875 356.769892 
L 140.314375 358.866508 
L 137.756875 360.975196 
L 135.199375 363.097114 
L 132.641875 365.233498 
L 130.084375 367.385654 
L 127.526875 369.554967 
L 124.969375 371.742898 
L 122.411875 373.950993 
L 119.854375 376.180876 
L 117.296875 378.434271 
L 114.739375 380.712974 
L 112.181875 383.018889 
L 109.624375 385.354021 
L 107.066875 387.630138 
L 104.509375 389.950444 
L 101.951875 392.318093 
L 99.394375 394.736212 
L 96.836875 397.207916 
L 94.279375 399.736359 
L 91.721875 402.324797 
L 89.164375 404.976663 
L 86.606875 407.695669 
L 84.049375 410.485926 
L 81.491875 413.352082 
L 78.934375 416.299533 
L 77.655625 417.803297 
z
" style="fill:#003366;"/>
   </g>
   <g id="matplotlib.axis_1">
    <g id="xtick_1">
     <g id="line2d_1">
      <path clip-path="url(#paaf1dfa0f1)" d="M 46.965625 484.687725 
L 46.965625 22.318125 
" style="fill:none;stroke:#b0b0b0;stroke-dasharray:1.85,0.8;stroke-dashoffset:0;stroke-width:0.5;"/>
     </g>
     <g id="line2d_2">
      <defs>
       <path d="M 0 0 
L 0 3.5 
" id="m5dca413fbf" style="stroke:#000000;stroke-width:0.8;"/>
      </defs>
      <g>
       <use style="stroke:#000000;stroke-width:0.8;" x="46.965625" xlink:href="#m5dca413fbf" y="484.687725"/>
      </g>
     </g>
     <g id="text_1">
      <!-- 1 -->
      <defs>
       <path d="M 12.40625 8.296875 
L 28.515625 8.296875 
L 28.515625 63.921875 
L 10.984375 60.40625 
L 10.984375 69.390625 
L 28.421875 72.90625 
L 38.28125 72.90625 
L 38.28125 8.296875 
L 54.390625 8.296875 
L 54.390625 0 
L 12.40625 0 
z
" id="DejaVuSans-49"/>
      </defs>
      <g transform="translate(43.784375 499.286162)scale(0.1 -0.1)">
       <use xlink:href="#DejaVuSans-49"/>
      </g>
     </g>
    </g>
    <g id="xtick_2">
     <g id="line2d_3">
      <path clip-path="url(#paaf1dfa0f1)" d="M 77.655625 484.687725 
L 77.655625 22.318125 
" style="fill:none;stroke:#b0b0b0;stroke-dasharray:1.85,0.8;stroke-dashoffset:0;stroke-width:0.5;"/>
     </g>
     <g id="line2d_4">
      <g>
       <use style="stroke:#000000;stroke-width:0.8;" x="77.655625" xlink:href="#m5dca413fbf" y="484.687725"/>
      </g>
     </g>
     <g id="text_2">
      <!-- 2 -->
      <defs>
       <path d="M 19.1875 8.296875 
L 53.609375 8.296875 
L 53.609375 0 
L 7.328125 0 
L 7.328125 8.296875 
Q 12.9375 14.109375 22.625 23.890625 
Q 32.328125 33.6875 34.8125 36.53125 
Q 39.546875 41.84375 41.421875 45.53125 
Q 43.3125 49.21875 43.3125 52.78125 
Q 43.3125 58.59375 39.234375 62.25 
Q 35.15625 65.921875 28.609375 65.921875 
Q 23.96875 65.921875 18.8125 64.3125 
Q 13.671875 62.703125 7.8125 59.421875 
L 7.8125 69.390625 
Q 13.765625 71.78125 18.9375 73 
Q 24.125 74.21875 28.421875 74.21875 
Q 39.75 74.21875 46.484375 68.546875 
Q 53.21875 62.890625 53.21875 53.421875 
Q 53.21875 48.921875 51.53125 44.890625 
Q 49.859375 40.875 45.40625 35.40625 
Q 44.1875 33.984375 37.640625 27.21875 
Q 31.109375 20.453125 19.1875 8.296875 
z
" id="DejaVuSans-50"/>
      </defs>
      <g transform="translate(74.474375 499.286162)scale(0.1 -0.1)">
       <use xlink:href="#DejaVuSans-50"/>
      </g>
     </g>
    </g>
    <g id="xtick_3">
     <g id="line2d_5">
      <path clip-path="url(#paaf1dfa0f1)" d="M 108.345625 484.687725 
L 108.345625 22.318125 
" style="fill:none;stroke:#b0b0b0;stroke-dasharray:1.85,0.8;stroke-dashoffset:0;stroke-width:0.5;"/>
     </g>
     <g id="line2d_6">
      <g>
       <use style="stroke:#000000;stroke-width:0.8;" x="108.345625" xlink:href="#m5dca413fbf" y="484.687725"/>
      </g>
     </g>
     <g id="text_3">
      <!-- 3 -->
      <defs>
       <path d="M 40.578125 39.3125 
Q 47.65625 37.796875 51.625 33 
Q 55.609375 28.21875 55.609375 21.1875 
Q 55.609375 10.40625 48.1875 4.484375 
Q 40.765625 -1.421875 27.09375 -1.421875 
Q 22.515625 -1.421875 17.65625 -0.515625 
Q 12.796875 0.390625 7.625 2.203125 
L 7.625 11.71875 
Q 11.71875 9.328125 16.59375 8.109375 
Q 21.484375 6.890625 26.8125 6.890625 
Q 36.078125 6.890625 40.9375 10.546875 
Q 45.796875 14.203125 45.796875 21.1875 
Q 45.796875 27.640625 41.28125 31.265625 
Q 36.765625 34.90625 28.71875 34.90625 
L 20.21875 34.90625 
L 20.21875 43.015625 
L 29.109375 43.015625 
Q 36.375 43.015625 40.234375 45.921875 
Q 44.09375 48.828125 44.09375 54.296875 
Q 44.09375 59.90625 40.109375 62.90625 
Q 36.140625 65.921875 28.71875 65.921875 
Q 24.65625 65.921875 20.015625 65.03125 
Q 15.375 64.15625 9.8125 62.3125 
L 9.8125 71.09375 
Q 15.4375 72.65625 20.34375 73.4375 
Q 25.25 74.21875 29.59375 74.21875 
Q 40.828125 74.21875 47.359375 69.109375 
Q 53.90625 64.015625 53.90625 55.328125 
Q 53.90625 49.265625 50.4375 45.09375 
Q 46.96875 40.921875 40.578125 39.3125 
z
" id="DejaVuSans-51"/>
      </defs>
      <g transform="translate(105.164375 499.286162)scale(0.1 -0.1)">
       <use xlink:href="#DejaVuSans-51"/>
      </g>
     </g>
    </g>
    <g id="xtick_4">
     <g id="line2d_7">
      <path clip-path="url(#paaf1dfa0f1)" d="M 139.035625 484.687725 
L 139.035625 22.318125 
" style="fill:none;stroke:#b0b0b0;stroke-dasharray:1.85,0.8;stroke-dashoffset:0;stroke-width:0.5;"/>
     </g>
     <g id="line2d_8">
      <g>
       <use style="stroke:#000000;stroke-width:0.8;" x="139.035625" xlink:href="#m5dca413fbf" y="484.687725"/>
      </g>
     </g>
     <g id="text_4">
      <!-- 4 -->
      <defs>
       <path d="M 37.796875 64.3125 
L 12.890625 25.390625 
L 37.796875 25.390625 
z
M 35.203125 72.90625 
L 47.609375 72.90625 
L 47.609375 25.390625 
L 58.015625 25.390625 
L 58.015625 17.1875 
L 47.609375 17.1875 
L 47.609375 0 
L 37.796875 0 
L 37.796875 17.1875 
L 4.890625 17.1875 
L 4.890625 26.703125 
z
" id="DejaVuSans-52"/>
      </defs>
      <g transform="translate(135.854375 499.286162)scale(0.1 -0.1)">
       <use xlink:href="#DejaVuSans-52"/>
      </g>
     </g>
    </g>
    <g id="xtick_5">
     <g id="line2d_9">
      <path clip-path="url(#paaf1dfa0f1)" d="M 169.725625 484.687725 
L 169.725625 22.318125 
" style="fill:none;stroke:#b0b0b0;stroke-dasharray:1.85,0.8;stroke-dashoffset:0;stroke-width:0.5;"/>
     </g>
     <g id="line2d_10">
      <g>
       <use style="stroke:#000000;stroke-width:0.8;" x="169.725625" xlink:href="#m5dca413fbf" y="484.687725"/>
      </g>
     </g>
     <g id="text_5">
      <!-- 5 -->
      <defs>
       <path d="M 10.796875 72.90625 
L 49.515625 72.90625 
L 49.515625 64.59375 
L 19.828125 64.59375 
L 19.828125 46.734375 
Q 21.96875 47.46875 24.109375 47.828125 
Q 26.265625 48.1875 28.421875 48.1875 
Q 40.625 48.1875 47.75 41.5 
Q 54.890625 34.8125 54.890625 23.390625 
Q 54.890625 11.625 47.5625 5.09375 
Q 40.234375 -1.421875 26.90625 -1.421875 
Q 22.3125 -1.421875 17.546875 -0.640625 
Q 12.796875 0.140625 7.71875 1.703125 
L 7.71875 11.625 
Q 12.109375 9.234375 16.796875 8.0625 
Q 21.484375 6.890625 26.703125 6.890625 
Q 35.15625 6.890625 40.078125 11.328125 
Q 45.015625 15.765625 45.015625 23.390625 
Q 45.015625 31 40.078125 35.4375 
Q 35.15625 39.890625 26.703125 39.890625 
Q 22.75 39.890625 18.8125 39.015625 
Q 14.890625 38.140625 10.796875 36.28125 
z
" id="DejaVuSans-53"/>
      </defs>
      <g transform="translate(166.544375 499.286162)scale(0.1 -0.1)">
       <use xlink:href="#DejaVuSans-53"/>
      </g>
     </g>
    </g>
    <g id="xtick_6">
     <g id="line2d_11">
      <path clip-path="url(#paaf1dfa0f1)" d="M 200.415625 484.687725 
L 200.415625 22.318125 
" style="fill:none;stroke:#b0b0b0;stroke-dasharray:1.85,0.8;stroke-dashoffset:0;stroke-width:0.5;"/>
     </g>
     <g id="line2d_12">
      <g>
       <use style="stroke:#000000;stroke-width:0.8;" x="200.415625" xlink:href="#m5dca413fbf" y="484.687725"/>
      </g>
     </g>
     <g id="text_6">
      <!-- 6 -->
      <defs>
       <path d="M 33.015625 40.375 
Q 26.375 40.375 22.484375 35.828125 
Q 18.609375 31.296875 18.609375 23.390625 
Q 18.609375 15.53125 22.484375 10.953125 
Q 26.375 6.390625 33.015625 6.390625 
Q 39.65625 6.390625 43.53125 10.953125 
Q 47.40625 15.53125 47.40625 23.390625 
Q 47.40625 31.296875 43.53125 35.828125 
Q 39.65625 40.375 33.015625 40.375 
z
M 52.59375 71.296875 
L 52.59375 62.3125 
Q 48.875 64.0625 45.09375 64.984375 
Q 41.3125 65.921875 37.59375 65.921875 
Q 27.828125 65.921875 22.671875 59.328125 
Q 17.53125 52.734375 16.796875 39.40625 
Q 19.671875 43.65625 24.015625 45.921875 
Q 28.375 48.1875 33.59375 48.1875 
Q 44.578125 48.1875 50.953125 41.515625 
Q 57.328125 34.859375 57.328125 23.390625 
Q 57.328125 12.15625 50.6875 5.359375 
Q 44.046875 -1.421875 33.015625 -1.421875 
Q 20.359375 -1.421875 13.671875 8.265625 
Q 6.984375 17.96875 6.984375 36.375 
Q 6.984375 53.65625 15.1875 63.9375 
Q 23.390625 74.21875 37.203125 74.21875 
Q 40.921875 74.21875 44.703125 73.484375 
Q 48.484375 72.75 52.59375 71.296875 
z
" id="DejaVuSans-54"/>
      </defs>
      <g transform="translate(197.234375 499.286162)scale(0.1 -0.1)">
       <use xlink:href="#DejaVuSans-54"/>
      </g>
     </g>
    </g>
    <g id="xtick_7">
     <g id="line2d_13">
      <path clip-path="url(#paaf1dfa0f1)" d="M 231.105625 484.687725 
L 231.105625 22.318125 
" style="fill:none;stroke:#b0b0b0;stroke-dasharray:1.85,0.8;stroke-dashoffset:0;stroke-width:0.5;"/>
     </g>
     <g id="line2d_14">
      <g>
       <use style="stroke:#000000;stroke-width:0.8;" x="231.105625" xlink:href="#m5dca413fbf" y="484.687725"/>
      </g>
     </g>
     <g id="text_7">
      <!-- 7 -->
      <defs>
       <path d="M 8.203125 72.90625 
L 55.078125 72.90625 
L 55.078125 68.703125 
L 28.609375 0 
L 18.3125 0 
L 43.21875 64.59375 
L 8.203125 64.59375 
z
" id="DejaVuSans-55"/>
      </defs>
      <g transform="translate(227.924375 499.286162)scale(0.1 -0.1)">
       <use xlink:href="#DejaVuSans-55"/>
      </g>
     </g>
    </g>
    <g id="xtick_8">
     <g id="line2d_15">
      <path clip-path="url(#paaf1dfa0f1)" d="M 261.795625 484.687725 
L 261.795625 22.318125 
" style="fill:none;stroke:#b0b0b0;stroke-dasharray:1.85,0.8;stroke-dashoffset:0;stroke-width:0.5;"/>
     </g>
     <g id="line2d_16">
      <g>
       <use style="stroke:#000000;stroke-width:0.8;" x="261.795625" xlink:href="#m5dca413fbf" y="484.687725"/>
      </g>
     </g>
     <g id="text_8">
      <!-- 8 -->
      <defs>
       <path d="M 31.78125 34.625 
Q 24.75 34.625 20.71875 30.859375 
Q 16.703125 27.09375 16.703125 20.515625 
Q 16.703125 13.921875 20.71875 10.15625 
Q 24.75 6.390625 31.78125 6.390625 
Q 38.8125 6.390625 42.859375 10.171875 
Q 46.921875 13.96875 46.921875 20.515625 
Q 46.921875 27.09375 42.890625 30.859375 
Q 38.875 34.625 31.78125 34.625 
z
M 21.921875 38.8125 
Q 15.578125 40.375 12.03125 44.71875 
Q 8.5 49.078125 8.5 55.328125 
Q 8.5 64.0625 14.71875 69.140625 
Q 20.953125 74.21875 31.78125 74.21875 
Q 42.671875 74.21875 48.875 69.140625 
Q 55.078125 64.0625 55.078125 55.328125 
Q 55.078125 49.078125 51.53125 44.71875 
Q 48 40.375 41.703125 38.8125 
Q 48.828125 37.15625 52.796875 32.3125 
Q 56.78125 27.484375 56.78125 20.515625 
Q 56.78125 9.90625 50.3125 4.234375 
Q 43.84375 -1.421875 31.78125 -1.421875 
Q 19.734375 -1.421875 13.25 4.234375 
Q 6.78125 9.90625 6.78125 20.515625 
Q 6.78125 27.484375 10.78125 32.3125 
Q 14.796875 37.15625 21.921875 38.8125 
z
M 18.3125 54.390625 
Q 18.3125 48.734375 21.84375 45.5625 
Q 25.390625 42.390625 31.78125 42.390625 
Q 38.140625 42.390625 41.71875 45.5625 
Q 45.3125 48.734375 45.3125 54.390625 
Q 45.3125 60.0625 41.71875 63.234375 
Q 38.140625 66.40625 31.78125 66.40625 
Q 25.390625 66.40625 21.84375 63.234375 
Q 18.3125 60.0625 18.3125 54.390625 
z
" id="DejaVuSans-56"/>
      </defs>
      <g transform="translate(258.614375 499.286162)scale(0.1 -0.1)">
       <use xlink:href="#DejaVuSans-56"/>
      </g>
     </g>
    </g>
    <g id="xtick_9">
     <g id="line2d_17">
      <path clip-path="url(#paaf1dfa0f1)" d="M 292.485625 484.687725 
L 292.485625 22.318125 
" style="fill:none;stroke:#b0b0b0;stroke-dasharray:1.85,0.8;stroke-dashoffset:0;stroke-width:0.5;"/>
     </g>
     <g id="line2d_18">
      <g>
       <use style="stroke:#000000;stroke-width:0.8;" x="292.485625" xlink:href="#m5dca413fbf" y="484.687725"/>
      </g>
     </g>
     <g id="text_9">
      <!-- 9 -->
      <defs>
       <path d="M 10.984375 1.515625 
L 10.984375 10.5 
Q 14.703125 8.734375 18.5 7.8125 
Q 22.3125 6.890625 25.984375 6.890625 
Q 35.75 6.890625 40.890625 13.453125 
Q 46.046875 20.015625 46.78125 33.40625 
Q 43.953125 29.203125 39.59375 26.953125 
Q 35.25 24.703125 29.984375 24.703125 
Q 19.046875 24.703125 12.671875 31.3125 
Q 6.296875 37.9375 6.296875 49.421875 
Q 6.296875 60.640625 12.9375 67.421875 
Q 19.578125 74.21875 30.609375 74.21875 
Q 43.265625 74.21875 49.921875 64.515625 
Q 56.59375 54.828125 56.59375 36.375 
Q 56.59375 19.140625 48.40625 8.859375 
Q 40.234375 -1.421875 26.421875 -1.421875 
Q 22.703125 -1.421875 18.890625 -0.6875 
Q 15.09375 0.046875 10.984375 1.515625 
z
M 30.609375 32.421875 
Q 37.25 32.421875 41.125 36.953125 
Q 45.015625 41.5 45.015625 49.421875 
Q 45.015625 57.28125 41.125 61.84375 
Q 37.25 66.40625 30.609375 66.40625 
Q 23.96875 66.40625 20.09375 61.84375 
Q 16.21875 57.28125 16.21875 49.421875 
Q 16.21875 41.5 20.09375 36.953125 
Q 23.96875 32.421875 30.609375 32.421875 
z
" id="DejaVuSans-57"/>
      </defs>
      <g transform="translate(289.304375 499.286162)scale(0.1 -0.1)">
       <use xlink:href="#DejaVuSans-57"/>
      </g>
     </g>
    </g>
    <g id="xtick_10">
     <g id="line2d_19">
      <path clip-path="url(#paaf1dfa0f1)" d="M 323.175625 484.687725 
L 323.175625 22.318125 
" style="fill:none;stroke:#b0b0b0;stroke-dasharray:1.85,0.8;stroke-dashoffset:0;stroke-width:0.5;"/>
     </g>
     <g id="line2d_20">
      <g>
       <use style="stroke:#000000;stroke-width:0.8;" x="323.175625" xlink:href="#m5dca413fbf" y="484.687725"/>
      </g>
     </g>
     <g id="text_10">
      <!-- 10 -->
      <defs>
       <path d="M 31.78125 66.40625 
Q 24.171875 66.40625 20.328125 58.90625 
Q 16.5 51.421875 16.5 36.375 
Q 16.5 21.390625 20.328125 13.890625 
Q 24.171875 6.390625 31.78125 6.390625 
Q 39.453125 6.390625 43.28125 13.890625 
Q 47.125 21.390625 47.125 36.375 
Q 47.125 51.421875 43.28125 58.90625 
Q 39.453125 66.40625 31.78125 66.40625 
z
M 31.78125 74.21875 
Q 44.046875 74.21875 50.515625 64.515625 
Q 56.984375 54.828125 56.984375 36.375 
Q 56.984375 17.96875 50.515625 8.265625 
Q 44.046875 -1.421875 31.78125 -1.421875 
Q 19.53125 -1.421875 13.0625 8.265625 
Q 6.59375 17.96875 6.59375 36.375 
Q 6.59375 54.828125 13.0625 64.515625 
Q 19.53125 74.21875 31.78125 74.21875 
z
" id="DejaVuSans-48"/>
      </defs>
      <g transform="translate(316.813125 499.286162)scale(0.1 -0.1)">
       <use xlink:href="#DejaVuSans-49"/>
       <use x="63.623047" xlink:href="#DejaVuSans-48"/>
      </g>
     </g>
    </g>
    <g id="xtick_11">
     <g id="line2d_21">
      <path clip-path="url(#paaf1dfa0f1)" d="M 353.865625 484.687725 
L 353.865625 22.318125 
" style="fill:none;stroke:#b0b0b0;stroke-dasharray:1.85,0.8;stroke-dashoffset:0;stroke-width:0.5;"/>
     </g>
     <g id="line2d_22">
      <g>
       <use style="stroke:#000000;stroke-width:0.8;" x="353.865625" xlink:href="#m5dca413fbf" y="484.687725"/>
      </g>
     </g>
     <g id="text_11">
      <!-- 11 -->
      <g transform="translate(347.503125 499.286162)scale(0.1 -0.1)">
       <use xlink:href="#DejaVuSans-49"/>
       <use x="63.623047" xlink:href="#DejaVuSans-49"/>
      </g>
     </g>
    </g>
    <g id="xtick_12">
     <g id="line2d_23">
      <path clip-path="url(#paaf1dfa0f1)" d="M 384.555625 484.687725 
L 384.555625 22.318125 
" style="fill:none;stroke:#b0b0b0;stroke-dasharray:1.85,0.8;stroke-dashoffset:0;stroke-width:0.5;"/>
     </g>
     <g id="line2d_24">
      <g>
       <use style="stroke:#000000;stroke-width:0.8;" x="384.555625" xlink:href="#m5dca413fbf" y="484.687725"/>
      </g>
     </g>
     <g id="text_12">
      <!-- 12 -->
      <g transform="translate(378.193125 499.286162)scale(0.1 -0.1)">
       <use xlink:href="#DejaVuSans-49"/>
       <use x="63.623047" xlink:href="#DejaVuSans-50"/>
      </g>
     </g>
    </g>
    <g id="xtick_13">
     <g id="line2d_25">
      <path clip-path="url(#paaf1dfa0f1)" d="M 415.245625 484.687725 
L 415.245625 22.318125 
" style="fill:none;stroke:#b0b0b0;stroke-dasharray:1.85,0.8;stroke-dashoffset:0;stroke-width:0.5;"/>
     </g>
     <g id="line2d_26">
      <g>
       <use style="stroke:#000000;stroke-width:0.8;" x="415.245625" xlink:href="#m5dca413fbf" y="484.687725"/>
      </g>
     </g>
     <g id="text_13">
      <!-- 13 -->
      <g transform="translate(408.883125 499.286162)scale(0.1 -0.1)">
       <use xlink:href="#DejaVuSans-49"/>
       <use x="63.623047" xlink:href="#DejaVuSans-51"/>
      </g>
     </g>
    </g>
    <g id="xtick_14">
     <g id="line2d_27">
      <path clip-path="url(#paaf1dfa0f1)" d="M 445.935625 484.687725 
L 445.935625 22.318125 
" style="fill:none;stroke:#b0b0b0;stroke-dasharray:1.85,0.8;stroke-dashoffset:0;stroke-width:0.5;"/>
     </g>
     <g id="line2d_28">
      <g>
       <use style="stroke:#000000;stroke-width:0.8;" x="445.935625" xlink:href="#m5dca413fbf" y="484.687725"/>
      </g>
     </g>
     <g id="text_14">
      <!-- 14 -->
      <g transform="translate(439.573125 499.286162)scale(0.1 -0.1)">
       <use xlink:href="#DejaVuSans-49"/>
       <use x="63.623047" xlink:href="#DejaVuSans-52"/>
      </g>
     </g>
    </g>
    <g id="xtick_15">
     <g id="line2d_29">
      <path clip-path="url(#paaf1dfa0f1)" d="M 476.625625 484.687725 
L 476.625625 22.318125 
" style="fill:none;stroke:#b0b0b0;stroke-dasharray:1.85,0.8;stroke-dashoffset:0;stroke-width:0.5;"/>
     </g>
     <g id="line2d_30">
      <g>
       <use style="stroke:#000000;stroke-width:0.8;" x="476.625625" xlink:href="#m5dca413fbf" y="484.687725"/>
      </g>
     </g>
     <g id="text_15">
      <!-- 15 -->
      <g transform="translate(470.263125 499.286162)scale(0.1 -0.1)">
       <use xlink:href="#DejaVuSans-49"/>
       <use x="63.623047" xlink:href="#DejaVuSans-53"/>
      </g>
     </g>
    </g>
    <g id="xtick_16">
     <g id="line2d_31">
      <path clip-path="url(#paaf1dfa0f1)" d="M 507.315625 484.687725 
L 507.315625 22.318125 
" style="fill:none;stroke:#b0b0b0;stroke-dasharray:1.85,0.8;stroke-dashoffset:0;stroke-width:0.5;"/>
     </g>
     <g id="line2d_32">
      <g>
       <use style="stroke:#000000;stroke-width:0.8;" x="507.315625" xlink:href="#m5dca413fbf" y="484.687725"/>
      </g>
     </g>
     <g id="text_16">
      <!-- 16 -->
      <g transform="translate(500.953125 499.286162)scale(0.1 -0.1)">
       <use xlink:href="#DejaVuSans-49"/>
       <use x="63.623047" xlink:href="#DejaVuSans-54"/>
      </g>
     </g>
    </g>
    <g id="xtick_17">
     <g id="line2d_33">
      <path clip-path="url(#paaf1dfa0f1)" d="M 538.005625 484.687725 
L 538.005625 22.318125 
" style="fill:none;stroke:#b0b0b0;stroke-dasharray:1.85,0.8;stroke-dashoffset:0;stroke-width:0.5;"/>
     </g>
     <g id="line2d_34">
      <g>
       <use style="stroke:#000000;stroke-width:0.8;" x="538.005625" xlink:href="#m5dca413fbf" y="484.687725"/>
      </g>
     </g>
     <g id="text_17">
      <!-- 17 -->
      <g transform="translate(531.643125 499.286162)scale(0.1 -0.1)">
       <use xlink:href="#DejaVuSans-49"/>
       <use x="63.623047" xlink:href="#DejaVuSans-55"/>
      </g>
     </g>
    </g>
    <g id="xtick_18">
     <g id="line2d_35">
      <path clip-path="url(#paaf1dfa0f1)" d="M 568.695625 484.687725 
L 568.695625 22.318125 
" style="fill:none;stroke:#b0b0b0;stroke-dasharray:1.85,0.8;stroke-dashoffset:0;stroke-width:0.5;"/>
     </g>
     <g id="line2d_36">
      <g>
       <use style="stroke:#000000;stroke-width:0.8;" x="568.695625" xlink:href="#m5dca413fbf" y="484.687725"/>
      </g>
     </g>
     <g id="text_18">
      <!-- 18 -->
      <g transform="translate(562.333125 499.286162)scale(0.1 -0.1)">
       <use xlink:href="#DejaVuSans-49"/>
       <use x="63.623047" xlink:href="#DejaVuSans-56"/>
      </g>
     </g>
    </g>
    <g id="xtick_19">
     <g id="line2d_37">
      <path clip-path="url(#paaf1dfa0f1)" d="M 599.385625 484.687725 
L 599.385625 22.318125 
" style="fill:none;stroke:#b0b0b0;stroke-dasharray:1.85,0.8;stroke-dashoffset:0;stroke-width:0.5;"/>
     </g>
     <g id="line2d_38">
      <g>
       <use style="stroke:#000000;stroke-width:0.8;" x="599.385625" xlink:href="#m5dca413fbf" y="484.687725"/>
      </g>
     </g>
     <g id="text_19">
      <!-- 19 -->
      <g transform="translate(593.023125 499.286162)scale(0.1 -0.1)">
       <use xlink:href="#DejaVuSans-49"/>
       <use x="63.623047" xlink:href="#DejaVuSans-57"/>
      </g>
     </g>
    </g>
    <g id="xtick_20">
     <g id="line2d_39">
      <path clip-path="url(#paaf1dfa0f1)" d="M 630.075625 484.687725 
L 630.075625 22.318125 
" style="fill:none;stroke:#b0b0b0;stroke-dasharray:1.85,0.8;stroke-dashoffset:0;stroke-width:0.5;"/>
     </g>
     <g id="line2d_40">
      <g>
       <use style="stroke:#000000;stroke-width:0.8;" x="630.075625" xlink:href="#m5dca413fbf" y="484.687725"/>
      </g>
     </g>
     <g id="text_20">
      <!-- 20 -->
      <g transform="translate(623.713125 499.286162)scale(0.1 -0.1)">
       <use xlink:href="#DejaVuSans-50"/>
       <use x="63.623047" xlink:href="#DejaVuSans-48"/>
      </g>
     </g>
    </g>
    <g id="xtick_21">
     <g id="line2d_41">
      <path clip-path="url(#paaf1dfa0f1)" d="M 660.765625 484.687725 
L 660.765625 22.318125 
" style="fill:none;stroke:#b0b0b0;stroke-dasharray:1.85,0.8;stroke-dashoffset:0;stroke-width:0.5;"/>
     </g>
     <g id="line2d_42">
      <g>
       <use style="stroke:#000000;stroke-width:0.8;" x="660.765625" xlink:href="#m5dca413fbf" y="484.687725"/>
      </g>
     </g>
     <g id="text_21">
      <!-- 21 -->
      <g transform="translate(654.403125 499.286162)scale(0.1 -0.1)">
       <use xlink:href="#DejaVuSans-50"/>
       <use x="63.623047" xlink:href="#DejaVuSans-49"/>
      </g>
     </g>
    </g>
    <g id="text_22">
     <!-- age (years) -->
     <defs>
      <path d="M 34.28125 27.484375 
Q 23.390625 27.484375 19.1875 25 
Q 14.984375 22.515625 14.984375 16.5 
Q 14.984375 11.71875 18.140625 8.90625 
Q 21.296875 6.109375 26.703125 6.109375 
Q 34.1875 6.109375 38.703125 11.40625 
Q 43.21875 16.703125 43.21875 25.484375 
L 43.21875 27.484375 
z
M 52.203125 31.203125 
L 52.203125 0 
L 43.21875 0 
L 43.21875 8.296875 
Q 40.140625 3.328125 35.546875 0.953125 
Q 30.953125 -1.421875 24.3125 -1.421875 
Q 15.921875 -1.421875 10.953125 3.296875 
Q 6 8.015625 6 15.921875 
Q 6 25.140625 12.171875 29.828125 
Q 18.359375 34.515625 30.609375 34.515625 
L 43.21875 34.515625 
L 43.21875 35.40625 
Q 43.21875 41.609375 39.140625 45 
Q 35.0625 48.390625 27.6875 48.390625 
Q 23 48.390625 18.546875 47.265625 
Q 14.109375 46.140625 10.015625 43.890625 
L 10.015625 52.203125 
Q 14.9375 54.109375 19.578125 55.046875 
Q 24.21875 56 28.609375 56 
Q 40.484375 56 46.34375 49.84375 
Q 52.203125 43.703125 52.203125 31.203125 
z
" id="DejaVuSans-97"/>
      <path d="M 45.40625 27.984375 
Q 45.40625 37.75 41.375 43.109375 
Q 37.359375 48.484375 30.078125 48.484375 
Q 22.859375 48.484375 18.828125 43.109375 
Q 14.796875 37.75 14.796875 27.984375 
Q 14.796875 18.265625 18.828125 12.890625 
Q 22.859375 7.515625 30.078125 7.515625 
Q 37.359375 7.515625 41.375 12.890625 
Q 45.40625 18.265625 45.40625 27.984375 
z
M 54.390625 6.78125 
Q 54.390625 -7.171875 48.1875 -13.984375 
Q 42 -20.796875 29.203125 -20.796875 
Q 24.46875 -20.796875 20.265625 -20.09375 
Q 16.0625 -19.390625 12.109375 -17.921875 
L 12.109375 -9.1875 
Q 16.0625 -11.328125 19.921875 -12.34375 
Q 23.78125 -13.375 27.78125 -13.375 
Q 36.625 -13.375 41.015625 -8.765625 
Q 45.40625 -4.15625 45.40625 5.171875 
L 45.40625 9.625 
Q 42.625 4.78125 38.28125 2.390625 
Q 33.9375 0 27.875 0 
Q 17.828125 0 11.671875 7.65625 
Q 5.515625 15.328125 5.515625 27.984375 
Q 5.515625 40.671875 11.671875 48.328125 
Q 17.828125 56 27.875 56 
Q 33.9375 56 38.28125 53.609375 
Q 42.625 51.21875 45.40625 46.390625 
L 45.40625 54.6875 
L 54.390625 54.6875 
z
" id="DejaVuSans-103"/>
      <path d="M 56.203125 29.59375 
L 56.203125 25.203125 
L 14.890625 25.203125 
Q 15.484375 15.921875 20.484375 11.0625 
Q 25.484375 6.203125 34.421875 6.203125 
Q 39.59375 6.203125 44.453125 7.46875 
Q 49.3125 8.734375 54.109375 11.28125 
L 54.109375 2.78125 
Q 49.265625 0.734375 44.1875 -0.34375 
Q 39.109375 -1.421875 33.890625 -1.421875 
Q 20.796875 -1.421875 13.15625 6.1875 
Q 5.515625 13.8125 5.515625 26.8125 
Q 5.515625 40.234375 12.765625 48.109375 
Q 20.015625 56 32.328125 56 
Q 43.359375 56 49.78125 48.890625 
Q 56.203125 41.796875 56.203125 29.59375 
z
M 47.21875 32.234375 
Q 47.125 39.59375 43.09375 43.984375 
Q 39.0625 48.390625 32.421875 48.390625 
Q 24.90625 48.390625 20.390625 44.140625 
Q 15.875 39.890625 15.1875 32.171875 
z
" id="DejaVuSans-101"/>
      <path id="DejaVuSans-32"/>
      <path d="M 31 75.875 
Q 24.46875 64.65625 21.28125 53.65625 
Q 18.109375 42.671875 18.109375 31.390625 
Q 18.109375 20.125 21.3125 9.0625 
Q 24.515625 -2 31 -13.1875 
L 23.1875 -13.1875 
Q 15.875 -1.703125 12.234375 9.375 
Q 8.59375 20.453125 8.59375 31.390625 
Q 8.59375 42.28125 12.203125 53.3125 
Q 15.828125 64.359375 23.1875 75.875 
z
" id="DejaVuSans-40"/>
      <path d="M 32.171875 -5.078125 
Q 28.375 -14.84375 24.75 -17.8125 
Q 21.140625 -20.796875 15.09375 -20.796875 
L 7.90625 -20.796875 
L 7.90625 -13.28125 
L 13.1875 -13.28125 
Q 16.890625 -13.28125 18.9375 -11.515625 
Q 21 -9.765625 23.484375 -3.21875 
L 25.09375 0.875 
L 2.984375 54.6875 
L 12.5 54.6875 
L 29.59375 11.921875 
L 46.6875 54.6875 
L 56.203125 54.6875 
z
" id="DejaVuSans-121"/>
      <path d="M 41.109375 46.296875 
Q 39.59375 47.171875 37.8125 47.578125 
Q 36.03125 48 33.890625 48 
Q 26.265625 48 22.1875 43.046875 
Q 18.109375 38.09375 18.109375 28.8125 
L 18.109375 0 
L 9.078125 0 
L 9.078125 54.6875 
L 18.109375 54.6875 
L 18.109375 46.1875 
Q 20.953125 51.171875 25.484375 53.578125 
Q 30.03125 56 36.53125 56 
Q 37.453125 56 38.578125 55.875 
Q 39.703125 55.765625 41.0625 55.515625 
z
" id="DejaVuSans-114"/>
      <path d="M 44.28125 53.078125 
L 44.28125 44.578125 
Q 40.484375 46.53125 36.375 47.5 
Q 32.28125 48.484375 27.875 48.484375 
Q 21.1875 48.484375 17.84375 46.4375 
Q 14.5 44.390625 14.5 40.28125 
Q 14.5 37.15625 16.890625 35.375 
Q 19.28125 33.59375 26.515625 31.984375 
L 29.59375 31.296875 
Q 39.15625 29.25 43.1875 25.515625 
Q 47.21875 21.78125 47.21875 15.09375 
Q 47.21875 7.46875 41.1875 3.015625 
Q 35.15625 -1.421875 24.609375 -1.421875 
Q 20.21875 -1.421875 15.453125 -0.5625 
Q 10.6875 0.296875 5.421875 2 
L 5.421875 11.28125 
Q 10.40625 8.6875 15.234375 7.390625 
Q 20.0625 6.109375 24.8125 6.109375 
Q 31.15625 6.109375 34.5625 8.28125 
Q 37.984375 10.453125 37.984375 14.40625 
Q 37.984375 18.0625 35.515625 20.015625 
Q 33.0625 21.96875 24.703125 23.78125 
L 21.578125 24.515625 
Q 13.234375 26.265625 9.515625 29.90625 
Q 5.8125 33.546875 5.8125 39.890625 
Q 5.8125 47.609375 11.28125 51.796875 
Q 16.75 56 26.8125 56 
Q 31.78125 56 36.171875 55.265625 
Q 40.578125 54.546875 44.28125 53.078125 
z
" id="DejaVuSans-115"/>
      <path d="M 8.015625 75.875 
L 15.828125 75.875 
Q 23.140625 64.359375 26.78125 53.3125 
Q 30.421875 42.28125 30.421875 31.390625 
Q 30.421875 20.453125 26.78125 9.375 
Q 23.140625 -1.703125 15.828125 -13.1875 
L 8.015625 -13.1875 
Q 14.5 -2 17.703125 9.0625 
Q 20.90625 20.125 20.90625 31.390625 
Q 20.90625 42.671875 17.703125 53.65625 
Q 14.5 64.65625 8.015625 75.875 
z
" id="DejaVuSans-41"/>
     </defs>
     <g transform="translate(325.3 512.964287)scale(0.1 -0.1)">
      <use xlink:href="#DejaVuSans-97"/>
      <use x="61.279297" xlink:href="#DejaVuSans-103"/>
      <use x="124.755859" xlink:href="#DejaVuSans-101"/>
      <use x="186.279297" xlink:href="#DejaVuSans-32"/>
      <use x="218.066406" xlink:href="#DejaVuSans-40"/>
      <use x="257.080078" xlink:href="#DejaVuSans-121"/>
      <use x="316.259766" xlink:href="#DejaVuSans-101"/>
      <use x="377.783203" xlink:href="#DejaVuSans-97"/>
      <use x="439.0625" xlink:href="#DejaVuSans-114"/>
      <use x="480.175781" xlink:href="#DejaVuSans-115"/>
      <use x="532.275391" xlink:href="#DejaVuSans-41"/>
     </g>
    </g>
   </g>
   <g id="matplotlib.axis_2">
    <g id="ytick_1">
     <g id="line2d_43">
      <path clip-path="url(#paaf1dfa0f1)" d="M 46.965625 484.687725 
L 660.765625 484.687725 
" style="fill:none;stroke:#b0b0b0;stroke-dasharray:1.85,0.8;stroke-dashoffset:0;stroke-width:0.5;"/>
     </g>
     <g id="line2d_44">
      <defs>
       <path d="M 0 0 
L -3.5 0 
" id="m21d1ded3b4" style="stroke:#000000;stroke-width:0.8;"/>
      </defs>
      <g>
       <use style="stroke:#000000;stroke-width:0.8;" x="46.965625" xlink:href="#m21d1ded3b4" y="484.687725"/>
      </g>
     </g>
     <g id="text_23">
      <!-- 70 -->
      <g transform="translate(27.240625 488.486944)scale(0.1 -0.1)">
       <use xlink:href="#DejaVuSans-55"/>
       <use x="63.623047" xlink:href="#DejaVuSans-48"/>
      </g>
     </g>
    </g>
    <g id="ytick_2">
     <g id="line2d_45">
      <path clip-path="url(#paaf1dfa0f1)" d="M 46.965625 449.120833 
L 660.765625 449.120833 
" style="fill:none;stroke:#b0b0b0;stroke-dasharray:1.85,0.8;stroke-dashoffset:0;stroke-width:0.5;"/>
     </g>
     <g id="line2d_46">
      <g>
       <use style="stroke:#000000;stroke-width:0.8;" x="46.965625" xlink:href="#m21d1ded3b4" y="449.120833"/>
      </g>
     </g>
     <g id="text_24">
      <!-- 80 -->
      <g transform="translate(27.240625 452.920051)scale(0.1 -0.1)">
       <use xlink:href="#DejaVuSans-56"/>
       <use x="63.623047" xlink:href="#DejaVuSans-48"/>
      </g>
     </g>
    </g>
    <g id="ytick_3">
     <g id="line2d_47">
      <path clip-path="url(#paaf1dfa0f1)" d="M 46.965625 413.55394 
L 660.765625 413.55394 
" style="fill:none;stroke:#b0b0b0;stroke-dasharray:1.85,0.8;stroke-dashoffset:0;stroke-width:0.5;"/>
     </g>
     <g id="line2d_48">
      <g>
       <use style="stroke:#000000;stroke-width:0.8;" x="46.965625" xlink:href="#m21d1ded3b4" y="413.55394"/>
      </g>
     </g>
     <g id="text_25">
      <!-- 90 -->
      <g transform="translate(27.240625 417.353159)scale(0.1 -0.1)">
       <use xlink:href="#DejaVuSans-57"/>
       <use x="63.623047" xlink:href="#DejaVuSans-48"/>
      </g>
     </g>
    </g>
    <g id="ytick_4">
     <g id="line2d_49">
      <path clip-path="url(#paaf1dfa0f1)" d="M 46.965625 377.987048 
L 660.765625 377.987048 
" style="fill:none;stroke:#b0b0b0;stroke-dasharray:1.85,0.8;stroke-dashoffset:0;stroke-width:0.5;"/>
     </g>
     <g id="line2d_50">
      <g>
       <use style="stroke:#000000;stroke-width:0.8;" x="46.965625" xlink:href="#m21d1ded3b4" y="377.987048"/>
      </g>
     </g>
     <g id="text_26">
      <!-- 100 -->
      <g transform="translate(20.878125 381.786267)scale(0.1 -0.1)">
       <use xlink:href="#DejaVuSans-49"/>
       <use x="63.623047" xlink:href="#DejaVuSans-48"/>
       <use x="127.246094" xlink:href="#DejaVuSans-48"/>
      </g>
     </g>
    </g>
    <g id="ytick_5">
     <g id="line2d_51">
      <path clip-path="url(#paaf1dfa0f1)" d="M 46.965625 342.420156 
L 660.765625 342.420156 
" style="fill:none;stroke:#b0b0b0;stroke-dasharray:1.85,0.8;stroke-dashoffset:0;stroke-width:0.5;"/>
     </g>
     <g id="line2d_52">
      <g>
       <use style="stroke:#000000;stroke-width:0.8;" x="46.965625" xlink:href="#m21d1ded3b4" y="342.420156"/>
      </g>
     </g>
     <g id="text_27">
      <!-- 110 -->
      <g transform="translate(20.878125 346.219375)scale(0.1 -0.1)">
       <use xlink:href="#DejaVuSans-49"/>
       <use x="63.623047" xlink:href="#DejaVuSans-49"/>
       <use x="127.246094" xlink:href="#DejaVuSans-48"/>
      </g>
     </g>
    </g>
    <g id="ytick_6">
     <g id="line2d_53">
      <path clip-path="url(#paaf1dfa0f1)" d="M 46.965625 306.853263 
L 660.765625 306.853263 
" style="fill:none;stroke:#b0b0b0;stroke-dasharray:1.85,0.8;stroke-dashoffset:0;stroke-width:0.5;"/>
     </g>
     <g id="line2d_54">
      <g>
       <use style="stroke:#000000;stroke-width:0.8;" x="46.965625" xlink:href="#m21d1ded3b4" y="306.853263"/>
      </g>
     </g>
     <g id="text_28">
      <!-- 120 -->
      <g transform="translate(20.878125 310.652482)scale(0.1 -0.1)">
       <use xlink:href="#DejaVuSans-49"/>
       <use x="63.623047" xlink:href="#DejaVuSans-50"/>
       <use x="127.246094" xlink:href="#DejaVuSans-48"/>
      </g>
     </g>
    </g>
    <g id="ytick_7">
     <g id="line2d_55">
      <path clip-path="url(#paaf1dfa0f1)" d="M 46.965625 271.286371 
L 660.765625 271.286371 
" style="fill:none;stroke:#b0b0b0;stroke-dasharray:1.85,0.8;stroke-dashoffset:0;stroke-width:0.5;"/>
     </g>
     <g id="line2d_56">
      <g>
       <use style="stroke:#000000;stroke-width:0.8;" x="46.965625" xlink:href="#m21d1ded3b4" y="271.286371"/>
      </g>
     </g>
     <g id="text_29">
      <!-- 130 -->
      <g transform="translate(20.878125 275.08559)scale(0.1 -0.1)">
       <use xlink:href="#DejaVuSans-49"/>
       <use x="63.623047" xlink:href="#DejaVuSans-51"/>
       <use x="127.246094" xlink:href="#DejaVuSans-48"/>
      </g>
     </g>
    </g>
    <g id="ytick_8">
     <g id="line2d_57">
      <path clip-path="url(#paaf1dfa0f1)" d="M 46.965625 235.719479 
L 660.765625 235.719479 
" style="fill:none;stroke:#b0b0b0;stroke-dasharray:1.85,0.8;stroke-dashoffset:0;stroke-width:0.5;"/>
     </g>
     <g id="line2d_58">
      <g>
       <use style="stroke:#000000;stroke-width:0.8;" x="46.965625" xlink:href="#m21d1ded3b4" y="235.719479"/>
      </g>
     </g>
     <g id="text_30">
      <!-- 140 -->
      <g transform="translate(20.878125 239.518698)scale(0.1 -0.1)">
       <use xlink:href="#DejaVuSans-49"/>
       <use x="63.623047" xlink:href="#DejaVuSans-52"/>
       <use x="127.246094" xlink:href="#DejaVuSans-48"/>
      </g>
     </g>
    </g>
    <g id="ytick_9">
     <g id="line2d_59">
      <path clip-path="url(#paaf1dfa0f1)" d="M 46.965625 200.152587 
L 660.765625 200.152587 
" style="fill:none;stroke:#b0b0b0;stroke-dasharray:1.85,0.8;stroke-dashoffset:0;stroke-width:0.5;"/>
     </g>
     <g id="line2d_60">
      <g>
       <use style="stroke:#000000;stroke-width:0.8;" x="46.965625" xlink:href="#m21d1ded3b4" y="200.152587"/>
      </g>
     </g>
     <g id="text_31">
      <!-- 150 -->
      <g transform="translate(20.878125 203.951805)scale(0.1 -0.1)">
       <use xlink:href="#DejaVuSans-49"/>
       <use x="63.623047" xlink:href="#DejaVuSans-53"/>
       <use x="127.246094" xlink:href="#DejaVuSans-48"/>
      </g>
     </g>
    </g>
    <g id="ytick_10">
     <g id="line2d_61">
      <path clip-path="url(#paaf1dfa0f1)" d="M 46.965625 164.585694 
L 660.765625 164.585694 
" style="fill:none;stroke:#b0b0b0;stroke-dasharray:1.85,0.8;stroke-dashoffset:0;stroke-width:0.5;"/>
     </g>
     <g id="line2d_62">
      <g>
       <use style="stroke:#000000;stroke-width:0.8;" x="46.965625" xlink:href="#m21d1ded3b4" y="164.585694"/>
      </g>
     </g>
     <g id="text_32">
      <!-- 160 -->
      <g transform="translate(20.878125 168.384913)scale(0.1 -0.1)">
       <use xlink:href="#DejaVuSans-49"/>
       <use x="63.623047" xlink:href="#DejaVuSans-54"/>
       <use x="127.246094" xlink:href="#DejaVuSans-48"/>
      </g>
     </g>
    </g>
    <g id="ytick_11">
     <g id="line2d_63">
      <path clip-path="url(#paaf1dfa0f1)" d="M 46.965625 129.018802 
L 660.765625 129.018802 
" style="fill:none;stroke:#b0b0b0;stroke-dasharray:1.85,0.8;stroke-dashoffset:0;stroke-width:0.5;"/>
     </g>
     <g id="line2d_64">
      <g>
       <use style="stroke:#000000;stroke-width:0.8;" x="46.965625" xlink:href="#m21d1ded3b4" y="129.018802"/>
      </g>
     </g>
     <g id="text_33">
      <!-- 170 -->
      <g transform="translate(20.878125 132.818021)scale(0.1 -0.1)">
       <use xlink:href="#DejaVuSans-49"/>
       <use x="63.623047" xlink:href="#DejaVuSans-55"/>
       <use x="127.246094" xlink:href="#DejaVuSans-48"/>
      </g>
     </g>
    </g>
    <g id="ytick_12">
     <g id="line2d_65">
      <path clip-path="url(#paaf1dfa0f1)" d="M 46.965625 93.45191 
L 660.765625 93.45191 
" style="fill:none;stroke:#b0b0b0;stroke-dasharray:1.85,0.8;stroke-dashoffset:0;stroke-width:0.5;"/>
     </g>
     <g id="line2d_66">
      <g>
       <use style="stroke:#000000;stroke-width:0.8;" x="46.965625" xlink:href="#m21d1ded3b4" y="93.45191"/>
      </g>
     </g>
     <g id="text_34">
      <!-- 180 -->
      <g transform="translate(20.878125 97.251128)scale(0.1 -0.1)">
       <use xlink:href="#DejaVuSans-49"/>
       <use x="63.623047" xlink:href="#DejaVuSans-56"/>
       <use x="127.246094" xlink:href="#DejaVuSans-48"/>
      </g>
     </g>
    </g>
    <g id="ytick_13">
     <g id="line2d_67">
      <path clip-path="url(#paaf1dfa0f1)" d="M 46.965625 57.885017 
L 660.765625 57.885017 
" style="fill:none;stroke:#b0b0b0;stroke-dasharray:1.85,0.8;stroke-dashoffset:0;stroke-width:0.5;"/>
     </g>
     <g id="line2d_68">
      <g>
       <use style="stroke:#000000;stroke-width:0.8;" x="46.965625" xlink:href="#m21d1ded3b4" y="57.885017"/>
      </g>
     </g>
     <g id="text_35">
      <!-- 190 -->
      <g transform="translate(20.878125 61.684236)scale(0.1 -0.1)">
       <use xlink:href="#DejaVuSans-49"/>
       <use x="63.623047" xlink:href="#DejaVuSans-57"/>
       <use x="127.246094" xlink:href="#DejaVuSans-48"/>
      </g>
     </g>
    </g>
    <g id="ytick_14">
     <g id="line2d_69">
      <path clip-path="url(#paaf1dfa0f1)" d="M 46.965625 22.318125 
L 660.765625 22.318125 
" style="fill:none;stroke:#b0b0b0;stroke-dasharray:1.85,0.8;stroke-dashoffset:0;stroke-width:0.5;"/>
     </g>
     <g id="line2d_70">
      <g>
       <use style="stroke:#000000;stroke-width:0.8;" x="46.965625" xlink:href="#m21d1ded3b4" y="22.318125"/>
      </g>
     </g>
     <g id="text_36">
      <!-- 200 -->
      <g transform="translate(20.878125 26.117344)scale(0.1 -0.1)">
       <use xlink:href="#DejaVuSans-50"/>
       <use x="63.623047" xlink:href="#DejaVuSans-48"/>
       <use x="127.246094" xlink:href="#DejaVuSans-48"/>
      </g>
     </g>
    </g>
    <g id="text_37">
     <!-- stature (cm) -->
     <defs>
      <path d="M 18.3125 70.21875 
L 18.3125 54.6875 
L 36.8125 54.6875 
L 36.8125 47.703125 
L 18.3125 47.703125 
L 18.3125 18.015625 
Q 18.3125 11.328125 20.140625 9.421875 
Q 21.96875 7.515625 27.59375 7.515625 
L 36.8125 7.515625 
L 36.8125 0 
L 27.59375 0 
Q 17.1875 0 13.234375 3.875 
Q 9.28125 7.765625 9.28125 18.015625 
L 9.28125 47.703125 
L 2.6875 47.703125 
L 2.6875 54.6875 
L 9.28125 54.6875 
L 9.28125 70.21875 
z
" id="DejaVuSans-116"/>
      <path d="M 8.5 21.578125 
L 8.5 54.6875 
L 17.484375 54.6875 
L 17.484375 21.921875 
Q 17.484375 14.15625 20.5 10.265625 
Q 23.53125 6.390625 29.59375 6.390625 
Q 36.859375 6.390625 41.078125 11.03125 
Q 45.3125 15.671875 45.3125 23.6875 
L 45.3125 54.6875 
L 54.296875 54.6875 
L 54.296875 0 
L 45.3125 0 
L 45.3125 8.40625 
Q 42.046875 3.421875 37.71875 1 
Q 33.40625 -1.421875 27.6875 -1.421875 
Q 18.265625 -1.421875 13.375 4.4375 
Q 8.5 10.296875 8.5 21.578125 
z
M 31.109375 56 
z
" id="DejaVuSans-117"/>
      <path d="M 48.78125 52.59375 
L 48.78125 44.1875 
Q 44.96875 46.296875 41.140625 47.34375 
Q 37.3125 48.390625 33.40625 48.390625 
Q 24.65625 48.390625 19.8125 42.84375 
Q 14.984375 37.3125 14.984375 27.296875 
Q 14.984375 17.28125 19.8125 11.734375 
Q 24.65625 6.203125 33.40625 6.203125 
Q 37.3125 6.203125 41.140625 7.25 
Q 44.96875 8.296875 48.78125 10.40625 
L 48.78125 2.09375 
Q 45.015625 0.34375 40.984375 -0.53125 
Q 36.96875 -1.421875 32.421875 -1.421875 
Q 20.0625 -1.421875 12.78125 6.34375 
Q 5.515625 14.109375 5.515625 27.296875 
Q 5.515625 40.671875 12.859375 48.328125 
Q 20.21875 56 33.015625 56 
Q 37.15625 56 41.109375 55.140625 
Q 45.0625 54.296875 48.78125 52.59375 
z
" id="DejaVuSans-99"/>
      <path d="M 52 44.1875 
Q 55.375 50.25 60.0625 53.125 
Q 64.75 56 71.09375 56 
Q 79.640625 56 84.28125 50.015625 
Q 88.921875 44.046875 88.921875 33.015625 
L 88.921875 0 
L 79.890625 0 
L 79.890625 32.71875 
Q 79.890625 40.578125 77.09375 44.375 
Q 74.3125 48.1875 68.609375 48.1875 
Q 61.625 48.1875 57.5625 43.546875 
Q 53.515625 38.921875 53.515625 30.90625 
L 53.515625 0 
L 44.484375 0 
L 44.484375 32.71875 
Q 44.484375 40.625 41.703125 44.40625 
Q 38.921875 48.1875 33.109375 48.1875 
Q 26.21875 48.1875 22.15625 43.53125 
Q 18.109375 38.875 18.109375 30.90625 
L 18.109375 0 
L 9.078125 0 
L 9.078125 54.6875 
L 18.109375 54.6875 
L 18.109375 46.1875 
Q 21.1875 51.21875 25.484375 53.609375 
Q 29.78125 56 35.6875 56 
Q 41.65625 56 45.828125 52.96875 
Q 50 49.953125 52 44.1875 
z
" id="DejaVuSans-109"/>
     </defs>
     <g transform="translate(14.798437 284.501362)rotate(-90)scale(0.1 -0.1)">
      <use xlink:href="#DejaVuSans-115"/>
      <use x="52.099609" xlink:href="#DejaVuSans-116"/>
      <use x="91.308594" xlink:href="#DejaVuSans-97"/>
      <use x="152.587891" xlink:href="#DejaVuSans-116"/>
      <use x="191.796875" xlink:href="#DejaVuSans-117"/>
      <use x="255.175781" xlink:href="#DejaVuSans-114"/>
      <use x="296.257812" xlink:href="#DejaVuSans-101"/>
      <use x="357.78125" xlink:href="#DejaVuSans-32"/>
      <use x="389.568359" xlink:href="#DejaVuSans-40"/>
      <use x="428.582031" xlink:href="#DejaVuSans-99"/>
      <use x="483.5625" xlink:href="#DejaVuSans-109"/>
      <use x="580.974609" xlink:href="#DejaVuSans-41"/>
     </g>
    </g>
   </g>
   <g id="line2d_71">
    <path clip-path="url(#paaf1dfa0f1)" d="M 77.655625 426.172359 
L 81.491875 421.903365 
L 86.606875 416.486458 
L 91.721875 411.316507 
L 99.394375 403.963757 
L 107.066875 397.028247 
L 124.969375 381.534691 
L 135.199375 373.149805 
L 147.986875 363.017964 
L 163.331875 351.187509 
L 186.349375 333.778909 
L 214.481875 312.775786 
L 234.941875 297.776723 
L 250.286875 286.818073 
L 263.074375 277.95975 
L 275.861875 269.406423 
L 286.091875 262.8071 
L 296.321875 256.430507 
L 309.109375 248.757385 
L 321.896875 241.359427 
L 360.259375 219.41618 
L 367.931875 214.700589 
L 375.604375 209.732199 
L 383.276875 204.450132 
L 390.949375 198.80664 
L 398.621875 192.777828 
L 406.294375 186.37464 
L 413.966875 179.651088 
L 426.754375 168.020037 
L 439.541875 156.453282 
L 447.214375 149.854426 
L 452.329375 145.685535 
L 457.444375 141.738914 
L 462.559375 138.038044 
L 467.674375 134.598118 
L 472.789375 131.426486 
L 477.904375 128.523515 
L 483.019375 125.883708 
L 488.134375 123.496919 
L 493.249375 121.349561 
L 498.364375 119.425723 
L 503.479375 117.708132 
L 508.594375 116.17897 
L 513.709375 114.820499 
L 521.381875 113.065506 
L 529.054375 111.602181 
L 536.726875 110.382488 
L 544.399375 109.364825 
L 554.629375 108.26205 
L 564.859375 107.388423 
L 577.646875 106.539812 
L 592.991875 105.781301 
L 610.894375 105.143739 
L 630.075625 104.658212 
L 630.075625 104.658212 
" style="fill:none;stroke:#ffff00;stroke-linecap:square;stroke-width:2;"/>
   </g>
   <g id="patch_3">
    <path d="M 46.965625 484.687725 
L 46.965625 22.318125 
" style="fill:none;stroke:#000000;stroke-linecap:square;stroke-linejoin:miter;stroke-width:0.8;"/>
   </g>
   <g id="patch_4">
    <path d="M 660.765625 484.687725 
L 660.765625 22.318125 
" style="fill:none;stroke:#000000;stroke-linecap:square;stroke-linejoin:miter;stroke-width:0.8;"/>
   </g>
   <g id="patch_5">
    <path d="M 46.965625 484.687725 
L 660.765625 484.687725 
" style="fill:none;stroke:#000000;stroke-linecap:square;stroke-linejoin:miter;stroke-width:0.8;"/>
   </g>
   <g id="patch_6">
    <path d="M 46.965625 22.318125 
L 660.765625 22.318125 
" style="fill:none;stroke:#000000;stroke-linecap:square;stroke-linejoin:miter;stroke-width:0.8;"/>
   </g>
   <g id="text_38">
    <!-- 5 -->
    <g style="fill:#3399ff;" transform="translate(623.713125 154.2625)scale(0.1 -0.1)">
     <use xlink:href="#DejaVuSans-53"/>
    </g>
   </g>
   <g id="text_39">
    <!-- 95 -->
    <g style="fill:#3399ff;" transform="translate(617.350625 61.037175)scale(0.1 -0.1)">
     <use xlink:href="#DejaVuSans-57"/>
     <use x="63.623047" xlink:href="#DejaVuSans-53"/>
    </g>
   </g>
   <g id="text_40">
    <!-- 10 -->
    <g style="fill:#0066cc;" transform="translate(617.350625 144.942445)scale(0.1 -0.1)">
     <use xlink:href="#DejaVuSans-49"/>
     <use x="63.623047" xlink:href="#DejaVuSans-48"/>
    </g>
   </g>
   <g id="text_41">
    <!-- 90 -->
    <g style="fill:#0066cc;" transform="translate(617.350625 70.174564)scale(0.1 -0.1)">
     <use xlink:href="#DejaVuSans-57"/>
     <use x="63.623047" xlink:href="#DejaVuSans-48"/>
    </g>
   </g>
   <g id="text_42">
    <!-- 25 -->
    <g style="fill:#003366;" transform="translate(617.350625 129.423029)scale(0.1 -0.1)">
     <use xlink:href="#DejaVuSans-50"/>
     <use x="63.623047" xlink:href="#DejaVuSans-53"/>
    </g>
   </g>
   <g id="text_43">
    <!-- 75 -->
    <g style="fill:#003366;" transform="translate(617.350625 85.49017)scale(0.1 -0.1)">
     <use xlink:href="#DejaVuSans-55"/>
     <use x="63.623047" xlink:href="#DejaVuSans-53"/>
    </g>
   </g>
   <g id="text_44">
    <!-- 50 -->
    <g style="fill:#ffff00;" transform="translate(617.350625 102.578524)scale(0.1 -0.1)">
     <use xlink:href="#DejaVuSans-53"/>
     <use x="63.623047" xlink:href="#DejaVuSans-48"/>
    </g>
   </g>
   <g id="text_45">
    <!-- stature-for-age: males 2 to 20 years -->
    <defs>
     <path d="M 4.890625 31.390625 
L 31.203125 31.390625 
L 31.203125 23.390625 
L 4.890625 23.390625 
z
" id="DejaVuSans-45"/>
     <path d="M 37.109375 75.984375 
L 37.109375 68.5 
L 28.515625 68.5 
Q 23.6875 68.5 21.796875 66.546875 
Q 19.921875 64.59375 19.921875 59.515625 
L 19.921875 54.6875 
L 34.71875 54.6875 
L 34.71875 47.703125 
L 19.921875 47.703125 
L 19.921875 0 
L 10.890625 0 
L 10.890625 47.703125 
L 2.296875 47.703125 
L 2.296875 54.6875 
L 10.890625 54.6875 
L 10.890625 58.5 
Q 10.890625 67.625 15.140625 71.796875 
Q 19.390625 75.984375 28.609375 75.984375 
z
" id="DejaVuSans-102"/>
     <path d="M 30.609375 48.390625 
Q 23.390625 48.390625 19.1875 42.75 
Q 14.984375 37.109375 14.984375 27.296875 
Q 14.984375 17.484375 19.15625 11.84375 
Q 23.34375 6.203125 30.609375 6.203125 
Q 37.796875 6.203125 41.984375 11.859375 
Q 46.1875 17.53125 46.1875 27.296875 
Q 46.1875 37.015625 41.984375 42.703125 
Q 37.796875 48.390625 30.609375 48.390625 
z
M 30.609375 56 
Q 42.328125 56 49.015625 48.375 
Q 55.71875 40.765625 55.71875 27.296875 
Q 55.71875 13.875 49.015625 6.21875 
Q 42.328125 -1.421875 30.609375 -1.421875 
Q 18.84375 -1.421875 12.171875 6.21875 
Q 5.515625 13.875 5.515625 27.296875 
Q 5.515625 40.765625 12.171875 48.375 
Q 18.84375 56 30.609375 56 
z
" id="DejaVuSans-111"/>
     <path d="M 11.71875 12.40625 
L 22.015625 12.40625 
L 22.015625 0 
L 11.71875 0 
z
M 11.71875 51.703125 
L 22.015625 51.703125 
L 22.015625 39.3125 
L 11.71875 39.3125 
z
" id="DejaVuSans-58"/>
     <path d="M 9.421875 75.984375 
L 18.40625 75.984375 
L 18.40625 0 
L 9.421875 0 
z
" id="DejaVuSans-108"/>
    </defs>
    <g transform="translate(245.09875 16.318125)scale(0.12 -0.12)">
     <use xlink:href="#DejaVuSans-115"/>
     <use x="52.099609" xlink:href="#DejaVuSans-116"/>
     <use x="91.308594" xlink:href="#DejaVuSans-97"/>
     <use x="152.587891" xlink:href="#DejaVuSans-116"/>
     <use x="191.796875" xlink:href="#DejaVuSans-117"/>
     <use x="255.175781" xlink:href="#DejaVuSans-114"/>
     <use x="296.257812" xlink:href="#DejaVuSans-101"/>
     <use x="357.78125" xlink:href="#DejaVuSans-45"/>
     <use x="393.865234" xlink:href="#DejaVuSans-102"/>
     <use x="429.070312" xlink:href="#DejaVuSans-111"/>
     <use x="490.251953" xlink:href="#DejaVuSans-114"/>
     <use x="531.271484" xlink:href="#DejaVuSans-45"/>
     <use x="567.355469" xlink:href="#DejaVuSans-97"/>
     <use x="628.634766" xlink:href="#DejaVuSans-103"/>
     <use x="692.111328" xlink:href="#DejaVuSans-101"/>
     <use x="753.634766" xlink:href="#DejaVuSans-58"/>
     <use x="787.326172" xlink:href="#DejaVuSans-32"/>
     <use x="819.113281" xlink:href="#DejaVuSans-109"/>
     <use x="916.525391" xlink:href="#DejaVuSans-97"/>
     <use x="977.804688" xlink:href="#DejaVuSans-108"/>
     <use x="1005.587891" xlink:href="#DejaVuSans-101"/>
     <use x="1067.111328" xlink:href="#DejaVuSans-115"/>
     <use x="1119.210938" xlink:href="#DejaVuSans-32"/>
     <use x="1150.998047" xlink:href="#DejaVuSans-50"/>
     <use x="1214.621094" xlink:href="#DejaVuSans-32"/>
     <use x="1246.408203" xlink:href="#DejaVuSans-116"/>
     <use x="1285.617188" xlink:href="#DejaVuSans-111"/>
     <use x="1346.798828" xlink:href="#DejaVuSans-32"/>
     <use x="1378.585938" xlink:href="#DejaVuSans-50"/>
     <use x="1442.208984" xlink:href="#DejaVuSans-48"/>
     <use x="1505.832031" xlink:href="#DejaVuSans-32"/>
     <use x="1537.619141" xlink:href="#DejaVuSans-121"/>
     <use x="1596.798828" xlink:href="#DejaVuSans-101"/>
     <use x="1658.322266" xlink:href="#DejaVuSans-97"/>
     <use x="1719.601562" xlink:href="#DejaVuSans-114"/>
     <use x="1760.714844" xlink:href="#DejaVuSans-115"/>
    </g>
   </g>
  </g>
 </g>
 <defs>
  <clipPath id="paaf1dfa0f1">
   <rect height="462.3696" width="613.8" x="46.965625" y="22.318125"/>
  </clipPath>
 </defs>
</svg>
