<?xml version="1.0" encoding="utf-8" standalone="no"?>
<!DOCTYPE svg PUBLIC "-//W3C//DTD SVG 1.1//EN"
  "http://www.w3.org/Graphics/SVG/1.1/DTD/svg11.dtd">
<!-- Created with matplotlib (https://matplotlib.org/) -->
<svg height="522.243975pt" version="1.1" viewBox="0 0 674.328125 522.243975" width="674.328125pt" xmlns="http://www.w3.org/2000/svg" xmlns:xlink="http://www.w3.org/1999/xlink">
 <defs>
  <style type="text/css">
*{stroke-linecap:butt;stroke-linejoin:round;}
  </style>
 </defs>
 <g id="figure_1">
  <g id="patch_1">
   <path d="M 0 522.243975 
L 674.328125 522.243975 
L 674.328125 0 
L 0 0 
z
" style="fill:#ffffff;"/>
  </g>
  <g id="axes_1">
   <g id="patch_2">
    <path d="M 46.965625 484.687725 
L 660.765625 484.687725 
L 660.765625 22.318125 
L 46.965625 22.318125 
z
" style="fill:#ffffff;"/>
   </g>
   <g id="PolyCollection_1">
    <path clip-path="url(#p39032c49ab)" d="M 77.655625 411.193904 
L 77.655625 451.753423 
L 78.934375 450.37361 
L 81.491875 447.547861 
L 84.049375 444.757978 
L 86.606875 442.023829 
L 89.164375 439.36089 
L 91.721875 436.780665 
L 94.279375 434.291112 
L 96.836875 431.897069 
L 99.394375 429.600666 
L 101.951875 427.401701 
L 104.509375 425.298016 
L 107.066875 423.285795 
L 109.624375 421.359872 
L 112.181875 419.449643 
L 114.739375 417.563899 
L 117.296875 415.697435 
L 119.854375 413.845693 
L 122.411875 412.004698 
L 124.969375 410.171006 
L 127.526875 408.341651 
L 130.084375 406.514099 
L 132.641875 404.686208 
L 135.199375 402.856184 
L 137.756875 401.022555 
L 140.314375 399.184133 
L 142.871875 397.339986 
L 145.429375 395.489418 
L 147.986875 393.631941 
L 150.544375 391.767255 
L 153.101875 389.895231 
L 155.659375 388.015893 
L 158.216875 386.129399 
L 160.774375 384.236037 
L 163.331875 382.336198 
L 165.889375 380.430378 
L 168.446875 378.519156 
L 171.004375 376.603193 
L 173.561875 374.683215 
L 176.119375 372.760011 
L 178.676875 370.83442 
L 181.234375 368.907328 
L 183.791875 366.979656 
L 186.349375 365.052358 
L 188.906875 363.126412 
L 191.464375 361.202816 
L 194.021875 359.282579 
L 196.579375 357.366726 
L 199.136875 355.456269 
L 201.694375 353.552236 
L 204.251875 351.65564 
L 206.809375 349.767483 
L 209.366875 347.888756 
L 211.924375 346.020429 
L 214.481875 344.16345 
L 217.039375 342.318743 
L 219.596875 340.4872 
L 222.154375 338.669684 
L 224.711875 336.867018 
L 227.269375 335.079991 
L 229.826875 333.309349 
L 232.384375 331.555793 
L 234.941875 329.81998 
L 237.499375 328.102514 
L 240.056875 326.403952 
L 242.614375 324.724794 
L 245.171875 323.065487 
L 247.729375 321.426416 
L 250.286875 319.807907 
L 252.844375 318.210224 
L 255.401875 316.633562 
L 257.959375 315.078052 
L 260.516875 313.543752 
L 263.074375 312.030647 
L 265.631875 310.538644 
L 268.189375 309.067573 
L 270.746875 307.617179 
L 273.304375 306.187122 
L 275.861875 304.776968 
L 278.419375 303.38619 
L 280.976875 302.014163 
L 283.534375 300.660153 
L 286.091875 299.323319 
L 288.649375 298.002701 
L 291.206875 296.69722 
L 293.764375 295.405664 
L 296.321875 294.126689 
L 298.879375 292.858805 
L 301.436875 291.600375 
L 303.994375 290.349603 
L 306.551875 289.104532 
L 309.109375 287.863031 
L 311.666875 286.622798 
L 314.224375 285.381348 
L 316.781875 284.136019 
L 319.339375 282.883962 
L 321.896875 281.622152 
L 324.454375 280.347391 
L 327.011875 279.05632 
L 329.569375 277.745437 
L 332.126875 276.411116 
L 334.684375 275.049644 
L 337.241875 273.657255 
L 339.799375 272.230184 
L 342.356875 270.764724 
L 344.914375 269.257295 
L 347.471875 267.70453 
L 350.029375 266.103363 
L 352.586875 264.451131 
L 355.144375 262.745683 
L 357.701875 260.985495 
L 360.259375 259.169781 
L 362.816875 257.2986 
L 365.374375 255.372963 
L 367.931875 253.394909 
L 370.489375 251.367562 
L 373.046875 249.295175 
L 375.604375 247.183114 
L 378.161875 245.03782 
L 380.719375 242.866718 
L 383.276875 240.678112 
L 385.834375 238.481003 
L 388.391875 236.284905 
L 390.949375 234.099625 
L 393.506875 231.935033 
L 396.064375 229.800829 
L 398.621875 227.70631 
L 401.179375 225.66017 
L 403.736875 223.670322 
L 406.294375 221.743747 
L 408.851875 219.886395 
L 411.409375 218.103124 
L 413.966875 216.397672 
L 416.524375 214.772676 
L 419.081875 213.229712 
L 421.639375 211.769375 
L 424.196875 210.391365 
L 426.754375 209.094597 
L 429.311875 207.877308 
L 431.869375 206.737174 
L 434.426875 205.671421 
L 436.984375 204.676929 
L 439.541875 203.750329 
L 442.099375 202.888089 
L 444.656875 202.086588 
L 447.214375 201.342181 
L 449.771875 200.651261 
L 452.329375 200.010281 
L 454.886875 199.415807 
L 457.444375 198.864538 
L 460.001875 198.353324 
L 462.559375 197.879178 
L 465.116875 197.439285 
L 467.674375 197.031005 
L 470.231875 196.651866 
L 472.789375 196.299571 
L 475.346875 195.971988 
L 477.904375 195.667144 
L 480.461875 195.383217 
L 483.019375 195.11853 
L 485.576875 194.87154 
L 488.134375 194.64083 
L 490.691875 194.4251 
L 493.249375 194.223161 
L 495.806875 194.033923 
L 498.364375 193.856391 
L 500.921875 193.689651 
L 503.479375 193.532874 
L 506.036875 193.385297 
L 508.594375 193.246228 
L 511.151875 193.115031 
L 513.709375 192.991125 
L 516.266875 192.873982 
L 518.824375 192.763118 
L 521.381875 192.658088 
L 523.939375 192.558488 
L 526.496875 192.463947 
L 529.054375 192.374125 
L 531.611875 192.28871 
L 534.169375 192.207417 
L 536.726875 192.129982 
L 539.284375 192.056164 
L 541.841875 191.985742 
L 544.399375 191.91851 
L 546.956875 191.85428 
L 549.514375 191.792878 
L 552.071875 191.734142 
L 554.629375 191.677925 
L 557.186875 191.624089 
L 559.744375 191.572504 
L 562.301875 191.523053 
L 564.859375 191.475625 
L 567.416875 191.430116 
L 569.974375 191.386432 
L 572.531875 191.344483 
L 575.089375 191.304185 
L 577.646875 191.265459 
L 580.204375 191.228232 
L 582.761875 191.192435 
L 585.319375 191.158004 
L 587.876875 191.124878 
L 590.434375 191.092998 
L 592.991875 191.062312 
L 595.549375 191.032768 
L 598.106875 191.004317 
L 600.664375 190.976914 
L 603.221875 190.950516 
L 605.779375 190.925082 
L 608.336875 190.900572 
L 610.894375 190.87695 
L 613.451875 190.854181 
L 616.009375 190.83223 
L 618.566875 190.811067 
L 621.124375 190.79066 
L 623.681875 190.770981 
L 626.239375 190.752002 
L 628.796875 190.733696 
L 630.075625 190.724787 
L 630.075625 114.967425 
L 630.075625 114.967425 
L 628.796875 114.976195 
L 626.239375 114.994237 
L 623.681875 115.012973 
L 621.124375 115.03243 
L 618.566875 115.05264 
L 616.009375 115.073632 
L 613.451875 115.09544 
L 610.894375 115.118098 
L 608.336875 115.141642 
L 605.779375 115.16611 
L 603.221875 115.191542 
L 600.664375 115.217978 
L 598.106875 115.245464 
L 595.549375 115.274045 
L 592.991875 115.303769 
L 590.434375 115.334688 
L 587.876875 115.366856 
L 585.319375 115.40033 
L 582.761875 115.435169 
L 580.204375 115.471438 
L 577.646875 115.509203 
L 575.089375 115.548535 
L 572.531875 115.589509 
L 569.974375 115.632205 
L 567.416875 115.676707 
L 564.859375 115.723105 
L 562.301875 115.771494 
L 559.744375 115.821973 
L 557.186875 115.874652 
L 554.629375 115.929644 
L 552.071875 115.987071 
L 549.514375 116.047062 
L 546.956875 116.109757 
L 544.399375 116.175302 
L 541.841875 116.243855 
L 539.284375 116.315584 
L 536.726875 116.390672 
L 534.169375 116.469309 
L 531.611875 116.551703 
L 529.054375 116.638077 
L 526.496875 116.728666 
L 523.939375 116.823727 
L 521.381875 116.923533 
L 518.824375 117.028378 
L 516.266875 117.138579 
L 513.709375 117.254475 
L 511.151875 117.376432 
L 508.594375 117.504844 
L 506.036875 117.640134 
L 503.479375 117.782758 
L 500.921875 117.933207 
L 498.364375 118.09201 
L 495.806875 118.259735 
L 493.249375 118.436998 
L 490.691875 118.624457 
L 488.134375 118.822825 
L 485.576875 119.032867 
L 483.019375 119.255406 
L 480.461875 119.491328 
L 477.904375 119.741587 
L 475.346875 120.007205 
L 472.789375 120.289279 
L 470.231875 120.588987 
L 467.674375 120.907589 
L 465.116875 121.246432 
L 462.559375 121.606957 
L 460.001875 121.990698 
L 457.444375 122.399284 
L 454.886875 122.834446 
L 452.329375 123.298017 
L 449.771875 123.791931 
L 447.214375 124.31822 
L 444.656875 124.879021 
L 442.099375 125.47655 
L 439.541875 126.113119 
L 436.984375 126.791108 
L 434.426875 127.512963 
L 431.869375 128.281173 
L 429.311875 129.098252 
L 426.754375 129.966713 
L 424.196875 130.889041 
L 421.639375 131.867656 
L 419.081875 132.904879 
L 416.524375 134.002884 
L 413.966875 135.163657 
L 411.409375 136.38894 
L 408.851875 137.680183 
L 406.294375 139.038484 
L 403.736875 140.46454 
L 401.179375 141.95859 
L 398.621875 143.520368 
L 396.064375 145.149057 
L 393.506875 146.843255 
L 390.949375 148.60095 
L 388.391875 150.419506 
L 385.834375 152.295667 
L 383.276875 154.225574 
L 380.719375 156.204799 
L 378.161875 158.228403 
L 375.604375 160.290989 
L 373.046875 162.386815 
L 370.489375 164.50986 
L 367.931875 166.653952 
L 365.374375 168.812867 
L 362.816875 170.980456 
L 360.259375 173.150746 
L 357.701875 175.318052 
L 355.144375 177.477069 
L 352.586875 179.622958 
L 350.029375 181.751409 
L 347.471875 183.858696 
L 344.914375 185.941704 
L 342.356875 187.99795 
L 339.799375 190.025579 
L 337.241875 192.02335 
L 334.684375 193.990612 
L 332.126875 195.927257 
L 329.569375 197.833686 
L 327.011875 199.71075 
L 324.454375 201.559696 
L 321.896875 203.382112 
L 319.339375 205.179874 
L 316.781875 206.955087 
L 314.224375 208.710037 
L 311.666875 210.44714 
L 309.109375 212.168903 
L 306.551875 213.877881 
L 303.994375 215.576645 
L 301.436875 217.267748 
L 298.879375 218.953704 
L 296.321875 220.636964 
L 293.764375 222.319895 
L 291.206875 224.004773 
L 288.649375 225.693762 
L 286.091875 227.388913 
L 283.534375 229.092151 
L 280.976875 230.805276 
L 278.419375 232.529957 
L 275.861875 234.267728 
L 273.304375 236.019992 
L 270.746875 237.788023 
L 268.189375 239.572957 
L 265.631875 241.375808 
L 263.074375 243.197458 
L 260.516875 245.038667 
L 257.959375 246.900074 
L 255.401875 248.782199 
L 252.844375 250.685448 
L 250.286875 252.610115 
L 247.729375 254.556387 
L 245.171875 256.524347 
L 242.614375 258.513976 
L 240.056875 260.52516 
L 237.499375 262.557691 
L 234.941875 264.611273 
L 232.384375 266.685523 
L 229.826875 268.779979 
L 227.269375 270.894099 
L 224.711875 273.027271 
L 222.154375 275.178812 
L 219.596875 277.347977 
L 217.039375 279.533958 
L 214.481875 281.735897 
L 211.924375 283.95288 
L 209.366875 286.183953 
L 206.809375 288.428118 
L 204.251875 290.684346 
L 201.694375 292.951575 
L 199.136875 295.228724 
L 196.579375 297.514692 
L 194.021875 299.808361 
L 191.464375 302.10862 
L 188.906875 304.414349 
L 186.349375 306.72444 
L 183.791875 309.037799 
L 181.234375 311.353351 
L 178.676875 313.670054 
L 176.119375 315.986896 
L 173.561875 318.302915 
L 171.004375 320.617194 
L 168.446875 322.92888 
L 165.889375 325.237183 
L 163.331875 327.541391 
L 160.774375 329.840875 
L 158.216875 332.1351 
L 155.659375 334.423633 
L 153.101875 336.706151 
L 150.544375 338.982455 
L 147.986875 341.252476 
L 145.429375 343.516288 
L 142.871875 345.774118 
L 140.314375 348.026359 
L 137.756875 350.273581 
L 135.199375 352.516544 
L 132.641875 354.75621 
L 130.084375 356.99376 
L 127.526875 359.230607 
L 124.969375 361.468411 
L 122.411875 363.709095 
L 119.854375 365.954863 
L 117.296875 368.208219 
L 114.739375 370.471981 
L 112.181875 372.749304 
L 109.624375 375.0437 
L 107.066875 377.305953 
L 104.509375 379.66258 
L 101.951875 382.120689 
L 99.394375 384.6867 
L 96.836875 387.366212 
L 94.279375 390.163898 
L 91.721875 393.083374 
L 89.164375 396.127075 
L 86.606875 399.29614 
L 84.049375 402.590301 
L 81.491875 406.007797 
L 78.934375 409.545304 
L 77.655625 411.193904 
z
" style="fill:#3399ff;"/>
   </g>
   <g id="PolyCollection_2">
    <path clip-path="url(#p39032c49ab)" d="M 77.655625 415.654124 
L 77.655625 447.254408 
L 78.934375 445.850588 
L 81.491875 442.94852 
L 84.049375 440.097532 
L 86.606875 437.313746 
L 89.164375 434.609615 
L 91.721875 431.994247 
L 94.279375 429.473752 
L 96.836875 427.051573 
L 99.394375 424.728818 
L 101.951875 422.504565 
L 104.509375 420.376157 
L 107.066875 418.33947 
L 109.624375 416.389159 
L 112.181875 414.447547 
L 114.739375 412.529233 
L 117.296875 410.629362 
L 119.854375 408.743654 
L 122.411875 406.868359 
L 124.969375 405.000204 
L 127.526875 403.136358 
L 130.084375 401.274385 
L 132.641875 399.412211 
L 135.199375 397.548091 
L 137.756875 395.680579 
L 140.314375 393.808498 
L 142.871875 391.930919 
L 145.429375 390.047133 
L 147.986875 388.156635 
L 150.544375 386.259103 
L 153.101875 384.35438 
L 155.659375 382.44246 
L 158.216875 380.523473 
L 160.774375 378.597673 
L 163.331875 376.665421 
L 165.889375 374.727182 
L 168.446875 372.783506 
L 171.004375 370.835026 
L 173.561875 368.882443 
L 176.119375 366.92652 
L 178.676875 364.968077 
L 181.234375 363.007979 
L 183.791875 361.047131 
L 186.349375 359.086473 
L 188.906875 357.126968 
L 191.464375 355.169607 
L 194.021875 353.21539 
L 196.579375 351.265331 
L 199.136875 349.320449 
L 201.694375 347.38176 
L 204.251875 345.450281 
L 206.809375 343.527014 
L 209.366875 341.612952 
L 211.924375 339.709069 
L 214.481875 337.816317 
L 217.039375 335.935626 
L 219.596875 334.067893 
L 222.154375 332.213987 
L 224.711875 330.374738 
L 227.269375 328.550941 
L 229.826875 326.743347 
L 232.384375 324.952664 
L 234.941875 323.179551 
L 237.499375 321.424618 
L 240.056875 319.688423 
L 242.614375 317.971467 
L 245.171875 316.274193 
L 247.729375 314.596985 
L 250.286875 312.940162 
L 252.844375 311.303977 
L 255.401875 309.688616 
L 257.959375 308.094189 
L 260.516875 306.520735 
L 263.074375 304.968216 
L 265.631875 303.436508 
L 268.189375 301.925405 
L 270.746875 300.434612 
L 273.304375 298.963741 
L 275.861875 297.512307 
L 278.419375 296.079721 
L 280.976875 294.665289 
L 283.534375 293.268203 
L 286.091875 291.887536 
L 288.649375 290.52224 
L 291.206875 289.171132 
L 293.764375 287.832895 
L 296.321875 286.506069 
L 298.879375 285.18904 
L 301.436875 283.880041 
L 303.994375 282.577143 
L 306.551875 281.278249 
L 309.109375 279.981091 
L 311.666875 278.683226 
L 314.224375 277.382037 
L 316.781875 276.074737 
L 319.339375 274.758367 
L 321.896875 273.429811 
L 324.454375 272.085809 
L 327.011875 270.72297 
L 329.569375 269.337805 
L 332.126875 267.926756 
L 334.684375 266.486233 
L 337.241875 265.012673 
L 339.799375 263.502588 
L 342.356875 261.95264 
L 344.914375 260.359717 
L 347.471875 258.721019 
L 350.029375 257.034153 
L 352.586875 255.297232 
L 355.144375 253.508978 
L 357.701875 251.668819 
L 360.259375 249.776992 
L 362.816875 247.834622 
L 365.374375 245.843792 
L 367.931875 243.807597 
L 370.489375 241.730159 
L 373.046875 239.61662 
L 375.604375 237.473098 
L 378.161875 235.30661 
L 380.719375 233.124954 
L 383.276875 230.936563 
L 385.834375 228.750334 
L 388.391875 226.575429 
L 390.949375 224.421073 
L 393.506875 222.296339 
L 396.064375 220.209955 
L 398.621875 218.170111 
L 401.179375 216.184297 
L 403.736875 214.259175 
L 406.294375 212.400477 
L 408.851875 210.612943 
L 411.409375 208.90029 
L 413.966875 207.265223 
L 416.524375 205.709462 
L 419.081875 204.233801 
L 421.639375 202.83819 
L 424.196875 201.52182 
L 426.754375 200.283222 
L 429.311875 199.120373 
L 431.869375 198.030792 
L 434.426875 197.01164 
L 436.984375 196.059809 
L 439.541875 195.172007 
L 442.099375 194.344828 
L 444.656875 193.574815 
L 447.214375 192.858517 
L 449.771875 192.192528 
L 452.329375 191.573528 
L 454.886875 190.998308 
L 457.444375 190.463789 
L 460.001875 189.967039 
L 462.559375 189.505281 
L 465.116875 189.0759 
L 467.674375 188.676441 
L 470.231875 188.304613 
L 472.789375 187.958281 
L 475.346875 187.635464 
L 477.904375 187.334327 
L 480.461875 187.053173 
L 483.019375 186.79044 
L 485.576875 186.544688 
L 488.134375 186.314592 
L 490.691875 186.098937 
L 493.249375 185.896607 
L 495.806875 185.706579 
L 498.364375 185.527916 
L 500.921875 185.35976 
L 503.479375 185.201324 
L 506.036875 185.051889 
L 508.594375 184.910796 
L 511.151875 184.777443 
L 513.709375 184.651277 
L 516.266875 184.531791 
L 518.824375 184.418525 
L 521.381875 184.311051 
L 523.939375 184.208981 
L 526.496875 184.111957 
L 529.054375 184.019652 
L 531.611875 183.931762 
L 534.169375 183.848011 
L 536.726875 183.768143 
L 539.284375 183.691924 
L 541.841875 183.619135 
L 544.399375 183.549576 
L 546.956875 183.483062 
L 549.514375 183.419421 
L 552.071875 183.358495 
L 554.629375 183.300137 
L 557.186875 183.244209 
L 559.744375 183.190584 
L 562.301875 183.139144 
L 564.859375 183.089779 
L 567.416875 183.042386 
L 569.974375 182.996869 
L 572.531875 182.953136 
L 575.089375 182.911106 
L 577.646875 182.870697 
L 580.204375 182.831836 
L 582.761875 182.794454 
L 585.319375 182.758485 
L 587.876875 182.723865 
L 590.434375 182.690538 
L 592.991875 182.658449 
L 595.549375 182.627544 
L 598.106875 182.597775 
L 600.664375 182.569094 
L 603.221875 182.541458 
L 605.779375 182.514824 
L 608.336875 182.489152 
L 610.894375 182.464405 
L 613.451875 182.440546 
L 616.009375 182.417539 
L 618.566875 182.395354 
L 621.124375 182.373957 
L 623.681875 182.353319 
L 626.239375 182.333412 
L 628.796875 182.314208 
L 630.075625 182.304861 
L 630.075625 123.282341 
L 630.075625 123.282341 
L 628.796875 123.291558 
L 626.239375 123.310513 
L 623.681875 123.330186 
L 621.124375 123.350606 
L 618.566875 123.371802 
L 616.009375 123.393806 
L 613.451875 123.416652 
L 610.894375 123.440375 
L 608.336875 123.46501 
L 605.779375 123.490597 
L 603.221875 123.517175 
L 600.664375 123.544787 
L 598.106875 123.573476 
L 595.549375 123.603289 
L 592.991875 123.634276 
L 590.434375 123.666489 
L 587.876875 123.69998 
L 585.319375 123.734808 
L 582.761875 123.771034 
L 580.204375 123.80872 
L 577.646875 123.847935 
L 575.089375 123.88875 
L 572.531875 123.931241 
L 569.974375 123.975487 
L 567.416875 124.021574 
L 564.859375 124.06959 
L 562.301875 124.119633 
L 559.744375 124.171803 
L 557.186875 124.226208 
L 554.629375 124.282964 
L 552.071875 124.342192 
L 549.514375 124.404023 
L 546.956875 124.468596 
L 544.399375 124.53606 
L 541.841875 124.606574 
L 539.284375 124.680307 
L 536.726875 124.757441 
L 534.169375 124.838171 
L 531.611875 124.922705 
L 529.054375 125.011267 
L 526.496875 125.104097 
L 523.939375 125.201453 
L 521.381875 125.303612 
L 518.824375 125.410871 
L 516.266875 125.523552 
L 513.709375 125.641997 
L 511.151875 125.76658 
L 508.594375 125.897698 
L 506.036875 126.035784 
L 503.479375 126.181301 
L 500.921875 126.334749 
L 498.364375 126.496667 
L 495.806875 126.667638 
L 493.249375 126.848287 
L 490.691875 127.039291 
L 488.134375 127.241379 
L 485.576875 127.455336 
L 483.019375 127.682006 
L 480.461875 127.922303 
L 477.904375 128.177204 
L 475.346875 128.447765 
L 472.789375 128.735118 
L 470.231875 129.040478 
L 467.674375 129.365149 
L 465.116875 129.710527 
L 462.559375 130.078104 
L 460.001875 130.469472 
L 457.444375 130.886327 
L 454.886875 131.330471 
L 452.329375 131.803814 
L 449.771875 132.308375 
L 447.214375 132.846278 
L 444.656875 133.419754 
L 442.099375 134.031133 
L 439.541875 134.682836 
L 436.984375 135.377365 
L 434.426875 136.117292 
L 431.869375 136.905234 
L 429.311875 137.743836 
L 426.754375 138.635742 
L 424.196875 139.583561 
L 421.639375 140.589829 
L 419.081875 141.656968 
L 416.524375 142.78723 
L 413.966875 143.982651 
L 411.409375 145.244984 
L 408.851875 146.575645 
L 406.294375 147.975643 
L 403.736875 149.445522 
L 401.179375 150.985298 
L 398.621875 152.594407 
L 396.064375 154.271656 
L 393.506875 156.015191 
L 390.949375 157.822471 
L 388.391875 159.690269 
L 385.834375 161.614681 
L 383.276875 163.591164 
L 380.719375 165.614584 
L 378.161875 167.679296 
L 375.604375 169.779232 
L 373.046875 171.908002 
L 370.489375 174.059021 
L 367.931875 176.225631 
L 365.374375 178.401224 
L 362.816875 180.579377 
L 360.259375 182.753962 
L 357.701875 184.91926 
L 355.144375 187.07005 
L 352.586875 189.201687 
L 350.029375 191.310154 
L 347.471875 193.392104 
L 344.914375 195.444872 
L 342.356875 197.466476 
L 339.799375 199.455597 
L 337.241875 201.411552 
L 334.684375 203.334242 
L 332.126875 205.224112 
L 329.569375 207.082083 
L 327.011875 208.909495 
L 324.454375 210.708049 
L 321.896875 212.479739 
L 319.339375 214.226796 
L 316.781875 215.951637 
L 314.224375 217.656804 
L 311.666875 219.34493 
L 309.109375 221.018687 
L 306.551875 222.680755 
L 303.994375 224.333793 
L 301.436875 225.980408 
L 298.879375 227.623136 
L 296.321875 229.264423 
L 293.764375 230.90661 
L 291.206875 232.551926 
L 288.649375 234.202474 
L 286.091875 235.860229 
L 283.534375 237.527031 
L 280.976875 239.204588 
L 278.419375 240.894467 
L 275.861875 242.598101 
L 273.304375 244.316791 
L 270.746875 246.051699 
L 268.189375 247.80386 
L 265.631875 249.574183 
L 263.074375 251.363447 
L 260.516875 253.172314 
L 257.959375 255.001327 
L 255.401875 256.850914 
L 252.844375 258.721395 
L 250.286875 260.612982 
L 247.729375 262.525782 
L 245.171875 264.459809 
L 242.614375 266.414975 
L 240.056875 268.391104 
L 237.499375 270.387935 
L 234.941875 272.405117 
L 232.384375 274.442226 
L 229.826875 276.498759 
L 227.269375 278.574141 
L 224.711875 280.66773 
L 222.154375 282.778822 
L 219.596875 284.906653 
L 217.039375 287.050405 
L 214.481875 289.209209 
L 211.924375 291.382151 
L 209.366875 293.568279 
L 206.809375 295.766603 
L 204.251875 297.976103 
L 201.694375 300.195735 
L 199.136875 302.424435 
L 196.579375 304.661125 
L 194.021875 306.904722 
L 191.464375 309.154135 
L 188.906875 311.408281 
L 186.349375 313.666087 
L 183.791875 315.926496 
L 181.234375 318.188475 
L 178.676875 320.451021 
L 176.119375 322.713168 
L 173.561875 324.973997 
L 171.004375 327.232636 
L 168.446875 329.488277 
L 165.889375 331.740177 
L 163.331875 333.987672 
L 160.774375 336.230177 
L 158.216875 338.467205 
L 155.659375 340.698365 
L 153.101875 342.923382 
L 150.544375 345.1421 
L 147.986875 347.354493 
L 145.429375 349.560676 
L 142.871875 351.76092 
L 140.314375 353.955656 
L 137.756875 356.145492 
L 135.199375 358.331229 
L 132.641875 360.513864 
L 130.084375 362.694616 
L 127.526875 364.874931 
L 124.969375 367.056503 
L 122.411875 369.24129 
L 119.854375 371.431528 
L 117.296875 373.629751 
L 114.739375 375.838806 
L 112.181875 378.061876 
L 109.624375 380.302497 
L 107.066875 382.514537 
L 104.509375 384.819296 
L 101.951875 387.223648 
L 99.394375 389.733762 
L 96.836875 392.354993 
L 94.279375 395.091762 
L 91.721875 397.947444 
L 89.164375 400.92425 
L 86.606875 404.023124 
L 84.049375 407.243642 
L 81.491875 410.583935 
L 78.934375 414.040644 
L 77.655625 415.654124 
z
" style="fill:#0066cc;"/>
   </g>
   <g id="PolyCollection_3">
    <path clip-path="url(#p39032c49ab)" d="M 77.655625 423.117118 
L 77.655625 439.748119 
L 78.934375 438.300913 
L 81.491875 435.270006 
L 84.049375 432.312203 
L 86.606875 429.438497 
L 89.164375 426.657179 
L 91.721875 423.97403 
L 94.279375 421.392557 
L 96.836875 418.914205 
L 99.394375 416.538585 
L 101.951875 414.26369 
L 104.509375 412.086084 
L 107.066875 410.001134 
L 109.624375 408.003166 
L 112.181875 406.003151 
L 114.739375 404.024669 
L 117.296875 402.063358 
L 119.854375 400.115338 
L 122.411875 398.17718 
L 124.969375 396.245864 
L 127.526875 394.318756 
L 130.084375 392.393567 
L 132.641875 390.468335 
L 135.199375 388.541389 
L 137.756875 386.611332 
L 140.314375 384.677015 
L 142.871875 382.737517 
L 145.429375 380.792128 
L 147.986875 378.840327 
L 150.544375 376.881768 
L 153.101875 374.916269 
L 155.659375 372.94379 
L 158.216875 370.964428 
L 160.774375 368.9784 
L 163.331875 366.986033 
L 165.889375 364.987757 
L 168.446875 362.98409 
L 171.004375 360.975632 
L 173.561875 358.963057 
L 176.119375 356.947104 
L 178.676875 354.928567 
L 181.234375 352.908293 
L 183.791875 350.887169 
L 186.349375 348.866121 
L 188.906875 346.846103 
L 191.464375 344.828094 
L 194.021875 342.813094 
L 196.579375 340.802105 
L 199.136875 338.796157 
L 201.694375 336.79626 
L 204.251875 334.803434 
L 206.809375 332.818688 
L 209.366875 330.843019 
L 211.924375 328.877409 
L 214.481875 326.922817 
L 217.039375 324.980181 
L 219.596875 323.050406 
L 222.154375 321.134368 
L 224.711875 319.232904 
L 227.269375 317.346814 
L 229.826875 315.476853 
L 232.384375 313.623732 
L 234.941875 311.788108 
L 237.499375 309.97059 
L 240.056875 308.171728 
L 242.614375 306.392015 
L 245.171875 304.631878 
L 247.729375 302.891684 
L 250.286875 301.171728 
L 252.844375 299.472234 
L 255.401875 297.793351 
L 257.959375 296.135151 
L 260.516875 294.497622 
L 263.074375 292.880668 
L 265.631875 291.284102 
L 268.189375 289.707646 
L 270.746875 288.150921 
L 273.304375 286.613448 
L 275.861875 285.094638 
L 278.419375 283.593792 
L 280.976875 282.110094 
L 283.534375 280.6426 
L 286.091875 279.190242 
L 288.649375 277.751816 
L 291.206875 276.325976 
L 293.764375 274.911232 
L 296.321875 273.50594 
L 298.879375 272.108303 
L 301.436875 270.716361 
L 303.994375 269.327989 
L 306.551875 267.940901 
L 309.109375 266.552642 
L 311.666875 265.160595 
L 314.224375 263.761986 
L 316.781875 262.353893 
L 319.339375 260.933258 
L 321.896875 259.496906 
L 324.454375 258.041568 
L 327.011875 256.563913 
L 329.569375 255.060586 
L 332.126875 253.528247 
L 334.684375 251.963635 
L 337.241875 250.363622 
L 339.799375 248.725284 
L 342.356875 247.04598 
L 344.914375 245.323436 
L 347.471875 243.555831 
L 350.029375 241.741891 
L 352.586875 239.880975 
L 355.144375 237.973162 
L 357.701875 236.01933 
L 360.259375 234.021214 
L 362.816875 231.981457 
L 365.374375 229.903629 
L 367.931875 227.792227 
L 370.489375 225.652646 
L 373.046875 223.491104 
L 375.604375 221.314564 
L 378.161875 219.130602 
L 380.719375 216.947278 
L 383.276875 214.772936 
L 385.834375 212.616057 
L 388.391875 210.485064 
L 390.949375 208.388139 
L 393.506875 206.333053 
L 396.064375 204.327016 
L 398.621875 202.376549 
L 401.179375 200.487378 
L 403.736875 198.664369 
L 406.294375 196.911481 
L 408.851875 195.23176 
L 411.409375 193.627349 
L 413.966875 192.099528 
L 416.524375 190.648773 
L 419.081875 189.27482 
L 421.639375 187.976755 
L 424.196875 186.753092 
L 426.754375 185.601866 
L 429.311875 184.520721 
L 431.869375 183.506988 
L 434.426875 182.557766 
L 436.984375 181.669996 
L 439.541875 180.840515 
L 442.099375 180.06612 
L 444.656875 179.343608 
L 447.214375 178.669819 
L 449.771875 178.041654 
L 452.329375 177.456128 
L 454.886875 176.910364 
L 457.444375 176.401613 
L 460.001875 175.927264 
L 462.559375 175.48485 
L 465.116875 175.072049 
L 467.674375 174.68668 
L 470.231875 174.326717 
L 472.789375 173.990263 
L 475.346875 173.675558 
L 477.904375 173.380968 
L 480.461875 173.104983 
L 483.019375 172.846205 
L 485.576875 172.603347 
L 488.134375 172.375221 
L 490.691875 172.160732 
L 493.249375 171.958874 
L 495.806875 171.768721 
L 498.364375 171.589423 
L 500.921875 171.420197 
L 503.479375 171.260326 
L 506.036875 171.109148 
L 508.594375 170.96606 
L 511.151875 170.830502 
L 513.709375 170.701964 
L 516.266875 170.579975 
L 518.824375 170.464102 
L 521.381875 170.353946 
L 523.939375 170.249142 
L 526.496875 170.149351 
L 529.054375 170.054263 
L 531.611875 169.963589 
L 534.169375 169.877065 
L 536.726875 169.794446 
L 539.284375 169.715504 
L 541.841875 169.640031 
L 544.399375 169.567831 
L 546.956875 169.498724 
L 549.514375 169.432543 
L 552.071875 169.369132 
L 554.629375 169.308346 
L 557.186875 169.25005 
L 559.744375 169.194117 
L 562.301875 169.140431 
L 564.859375 169.088881 
L 567.416875 169.039364 
L 569.974375 168.991785 
L 572.531875 168.946052 
L 575.089375 168.902079 
L 577.646875 168.859789 
L 580.204375 168.819105 
L 582.761875 168.779956 
L 585.319375 168.742276 
L 587.876875 168.706001 
L 590.434375 168.671071 
L 592.991875 168.63743 
L 595.549375 168.605026 
L 598.106875 168.573806 
L 600.664375 168.543722 
L 603.221875 168.514729 
L 605.779375 168.486784 
L 608.336875 168.459845 
L 610.894375 168.433872 
L 613.451875 168.408828 
L 616.009375 168.384678 
L 618.566875 168.361386 
L 621.124375 168.33892 
L 623.681875 168.31725 
L 626.239375 168.296345 
L 628.796875 168.276176 
L 630.075625 168.266359 
L 630.075625 137.203656 
L 630.075625 137.203656 
L 628.796875 137.213392 
L 626.239375 137.233404 
L 623.681875 137.254159 
L 621.124375 137.275688 
L 618.566875 137.29802 
L 616.009375 137.321188 
L 613.451875 137.345226 
L 610.894375 137.370168 
L 608.336875 137.396052 
L 605.779375 137.422916 
L 603.221875 137.450801 
L 600.664375 137.479748 
L 598.106875 137.509803 
L 595.549375 137.541013 
L 592.991875 137.573427 
L 590.434375 137.607097 
L 587.876875 137.642078 
L 585.319375 137.678427 
L 582.761875 137.716205 
L 580.204375 137.755477 
L 577.646875 137.79631 
L 575.089375 137.838776 
L 572.531875 137.88295 
L 569.974375 137.928915 
L 567.416875 137.976753 
L 564.859375 138.026557 
L 562.301875 138.078423 
L 559.744375 138.132452 
L 557.186875 138.188753 
L 554.629375 138.247442 
L 552.071875 138.308643 
L 549.514375 138.372487 
L 546.956875 138.439116 
L 544.399375 138.508679 
L 541.841875 138.581337 
L 539.284375 138.657264 
L 536.726875 138.736642 
L 534.169375 138.819672 
L 531.611875 138.906564 
L 529.054375 138.997548 
L 526.496875 139.09287 
L 523.939375 139.192793 
L 521.381875 139.297602 
L 518.824375 139.407603 
L 516.266875 139.523126 
L 513.709375 139.644529 
L 511.151875 139.772195 
L 508.594375 139.906538 
L 506.036875 140.048008 
L 503.479375 140.197087 
L 500.921875 140.3543 
L 498.364375 140.520211 
L 495.806875 140.69543 
L 493.249375 140.880619 
L 490.691875 141.07649 
L 488.134375 141.283815 
L 485.576875 141.503426 
L 483.019375 141.736223 
L 480.461875 141.983176 
L 477.904375 142.245332 
L 475.346875 142.523821 
L 472.789375 142.819857 
L 470.231875 143.134748 
L 467.674375 143.469898 
L 465.116875 143.826815 
L 462.559375 144.207107 
L 460.001875 144.612502 
L 457.444375 145.044841 
L 454.886875 145.506078 
L 452.329375 145.99829 
L 449.771875 146.523671 
L 447.214375 147.084532 
L 444.656875 147.683287 
L 442.099375 148.322477 
L 439.541875 149.004723 
L 436.984375 149.732733 
L 434.426875 150.50928 
L 431.869375 151.337173 
L 429.311875 152.219239 
L 426.754375 153.158277 
L 424.196875 154.157025 
L 421.639375 155.218111 
L 419.081875 156.343995 
L 416.524375 157.536913 
L 413.966875 158.798809 
L 411.409375 160.131265 
L 408.851875 161.535428 
L 406.294375 163.01194 
L 403.736875 164.560861 
L 401.179375 166.181613 
L 398.621875 167.872916 
L 396.064375 169.632749 
L 393.506875 171.458325 
L 390.949375 173.346082 
L 388.391875 175.291701 
L 385.834375 177.290143 
L 383.276875 179.335716 
L 380.719375 181.42216 
L 378.161875 183.54275 
L 375.604375 185.690447 
L 373.046875 187.857992 
L 370.489375 190.038094 
L 367.931875 192.223557 
L 365.374375 194.407437 
L 362.816875 196.583156 
L 360.259375 198.744642 
L 357.701875 200.886414 
L 355.144375 203.003671 
L 352.586875 205.092338 
L 350.029375 207.149102 
L 347.471875 209.17142 
L 344.914375 211.157506 
L 342.356875 213.106304 
L 339.799375 215.017437 
L 337.241875 216.891156 
L 334.684375 218.728273 
L 332.126875 220.530094 
L 329.569375 222.298341 
L 327.011875 224.035086 
L 324.454375 225.742683 
L 321.896875 227.423699 
L 319.339375 229.080857 
L 316.781875 230.716981 
L 314.224375 232.33495 
L 311.666875 233.937653 
L 309.109375 235.527956 
L 306.551875 237.108673 
L 303.994375 238.682538 
L 301.436875 240.252187 
L 298.879375 241.820145 
L 296.321875 243.388809 
L 293.764375 244.960445 
L 291.206875 246.537179 
L 288.649375 248.120991 
L 286.091875 249.713722 
L 283.534375 251.317063 
L 280.976875 252.932565 
L 278.419375 254.561636 
L 275.861875 256.205546 
L 273.304375 257.865428 
L 270.746875 259.542285 
L 268.189375 261.236993 
L 265.631875 262.950301 
L 263.074375 264.682842 
L 260.516875 266.435131 
L 257.959375 268.207575 
L 255.401875 270.000471 
L 252.844375 271.814015 
L 250.286875 273.648304 
L 247.729375 275.50334 
L 245.171875 277.379035 
L 242.614375 279.275213 
L 240.056875 281.191614 
L 237.499375 283.127903 
L 234.941875 285.083664 
L 232.384375 287.058412 
L 229.826875 289.051596 
L 227.269375 291.062598 
L 224.711875 293.090741 
L 222.154375 295.135292 
L 219.596875 297.195467 
L 217.039375 299.270433 
L 214.481875 301.359314 
L 211.924375 303.461197 
L 209.366875 305.575131 
L 206.809375 307.700137 
L 204.251875 309.835213 
L 201.694375 311.979333 
L 199.136875 314.131459 
L 196.579375 316.29054 
L 194.021875 318.455533 
L 191.464375 320.625375 
L 188.906875 322.799027 
L 186.349375 324.975459 
L 183.791875 327.153657 
L 181.234375 329.332636 
L 178.676875 331.51144 
L 176.119375 333.689154 
L 173.561875 335.864908 
L 171.004375 338.037883 
L 168.446875 340.207322 
L 165.889375 342.372534 
L 163.331875 344.532904 
L 160.774375 346.687901 
L 158.216875 348.837086 
L 155.659375 350.980121 
L 153.101875 353.116779 
L 150.544375 355.246954 
L 147.986875 357.370668 
L 145.429375 359.488087 
L 142.871875 361.59953 
L 140.314375 363.705478 
L 137.756875 365.806591 
L 135.199375 367.903721 
L 132.641875 369.997923 
L 130.084375 372.090473 
L 127.526875 374.182882 
L 124.969375 376.276914 
L 122.411875 378.374601 
L 119.854375 380.478265 
L 117.296875 382.590532 
L 114.739375 384.714356 
L 112.181875 386.853037 
L 109.624375 389.010242 
L 107.066875 391.145776 
L 104.509375 393.371659 
L 101.951875 395.69438 
L 99.394375 398.119658 
L 96.836875 400.652359 
L 94.279375 403.29634 
L 91.721875 406.054355 
L 89.164375 408.927926 
L 86.606875 411.917239 
L 84.049375 415.021041 
L 81.491875 418.236553 
L 78.934375 421.559425 
L 77.655625 423.117118 
z
" style="fill:#003366;"/>
   </g>
   <g id="matplotlib.axis_1">
    <g id="xtick_1">
     <g id="line2d_1">
      <path clip-path="url(#p39032c49ab)" d="M 46.965625 484.687725 
L 46.965625 22.318125 
" style="fill:none;stroke:#b0b0b0;stroke-dasharray:1.85,0.8;stroke-dashoffset:0;stroke-width:0.5;"/>
     </g>
     <g id="line2d_2">
      <defs>
       <path d="M 0 0 
L 0 3.5 
" id="mdfc7f42ff0" style="stroke:#000000;stroke-width:0.8;"/>
      </defs>
      <g>
       <use style="stroke:#000000;stroke-width:0.8;" x="46.965625" xlink:href="#mdfc7f42ff0" y="484.687725"/>
      </g>
     </g>
     <g id="text_1">
      <!-- 1 -->
      <defs>
       <path d="M 12.40625 8.296875 
L 28.515625 8.296875 
L 28.515625 63.921875 
L 10.984375 60.40625 
L 10.984375 69.390625 
L 28.421875 72.90625 
L 38.28125 72.90625 
L 38.28125 8.296875 
L 54.390625 8.296875 
L 54.390625 0 
L 12.40625 0 
z
" id="DejaVuSans-49"/>
      </defs>
      <g transform="translate(43.784375 499.286162)scale(0.1 -0.1)">
       <use xlink:href="#DejaVuSans-49"/>
      </g>
     </g>
    </g>
    <g id="xtick_2">
     <g id="line2d_3">
      <path clip-path="url(#p39032c49ab)" d="M 77.655625 484.687725 
L 77.655625 22.318125 
" style="fill:none;stroke:#b0b0b0;stroke-dasharray:1.85,0.8;stroke-dashoffset:0;stroke-width:0.5;"/>
     </g>
     <g id="line2d_4">
      <g>
       <use style="stroke:#000000;stroke-width:0.8;" x="77.655625" xlink:href="#mdfc7f42ff0" y="484.687725"/>
      </g>
     </g>
     <g id="text_2">
      <!-- 2 -->
      <defs>
       <path d="M 19.1875 8.296875 
L 53.609375 8.296875 
L 53.609375 0 
L 7.328125 0 
L 7.328125 8.296875 
Q 12.9375 14.109375 22.625 23.890625 
Q 32.328125 33.6875 34.8125 36.53125 
Q 39.546875 41.84375 41.421875 45.53125 
Q 43.3125 49.21875 43.3125 52.78125 
Q 43.3125 58.59375 39.234375 62.25 
Q 35.15625 65.921875 28.609375 65.921875 
Q 23.96875 65.921875 18.8125 64.3125 
Q 13.671875 62.703125 7.8125 59.421875 
L 7.8125 69.390625 
Q 13.765625 71.78125 18.9375 73 
Q 24.125 74.21875 28.421875 74.21875 
Q 39.75 74.21875 46.484375 68.546875 
Q 53.21875 62.890625 53.21875 53.421875 
Q 53.21875 48.921875 51.53125 44.890625 
Q 49.859375 40.875 45.40625 35.40625 
Q 44.1875 33.984375 37.640625 27.21875 
Q 31.109375 20.453125 19.1875 8.296875 
z
" id="DejaVuSans-50"/>
      </defs>
      <g transform="translate(74.474375 499.286162)scale(0.1 -0.1)">
       <use xlink:href="#DejaVuSans-50"/>
      </g>
     </g>
    </g>
    <g id="xtick_3">
     <g id="line2d_5">
      <path clip-path="url(#p39032c49ab)" d="M 108.345625 484.687725 
L 108.345625 22.318125 
" style="fill:none;stroke:#b0b0b0;stroke-dasharray:1.85,0.8;stroke-dashoffset:0;stroke-width:0.5;"/>
     </g>
     <g id="line2d_6">
      <g>
       <use style="stroke:#000000;stroke-width:0.8;" x="108.345625" xlink:href="#mdfc7f42ff0" y="484.687725"/>
      </g>
     </g>
     <g id="text_3">
      <!-- 3 -->
      <defs>
       <path d="M 40.578125 39.3125 
Q 47.65625 37.796875 51.625 33 
Q 55.609375 28.21875 55.609375 21.1875 
Q 55.609375 10.40625 48.1875 4.484375 
Q 40.765625 -1.421875 27.09375 -1.421875 
Q 22.515625 -1.421875 17.65625 -0.515625 
Q 12.796875 0.390625 7.625 2.203125 
L 7.625 11.71875 
Q 11.71875 9.328125 16.59375 8.109375 
Q 21.484375 6.890625 26.8125 6.890625 
Q 36.078125 6.890625 40.9375 10.546875 
Q 45.796875 14.203125 45.796875 21.1875 
Q 45.796875 27.640625 41.28125 31.265625 
Q 36.765625 34.90625 28.71875 34.90625 
L 20.21875 34.90625 
L 20.21875 43.015625 
L 29.109375 43.015625 
Q 36.375 43.015625 40.234375 45.921875 
Q 44.09375 48.828125 44.09375 54.296875 
Q 44.09375 59.90625 40.109375 62.90625 
Q 36.140625 65.921875 28.71875 65.921875 
Q 24.65625 65.921875 20.015625 65.03125 
Q 15.375 64.15625 9.8125 62.3125 
L 9.8125 71.09375 
Q 15.4375 72.65625 20.34375 73.4375 
Q 25.25 74.21875 29.59375 74.21875 
Q 40.828125 74.21875 47.359375 69.109375 
Q 53.90625 64.015625 53.90625 55.328125 
Q 53.90625 49.265625 50.4375 45.09375 
Q 46.96875 40.921875 40.578125 39.3125 
z
" id="DejaVuSans-51"/>
      </defs>
      <g transform="translate(105.164375 499.286162)scale(0.1 -0.1)">
       <use xlink:href="#DejaVuSans-51"/>
      </g>
     </g>
    </g>
    <g id="xtick_4">
     <g id="line2d_7">
      <path clip-path="url(#p39032c49ab)" d="M 139.035625 484.687725 
L 139.035625 22.318125 
" style="fill:none;stroke:#b0b0b0;stroke-dasharray:1.85,0.8;stroke-dashoffset:0;stroke-width:0.5;"/>
     </g>
     <g id="line2d_8">
      <g>
       <use style="stroke:#000000;stroke-width:0.8;" x="139.035625" xlink:href="#mdfc7f42ff0" y="484.687725"/>
      </g>
     </g>
     <g id="text_4">
      <!-- 4 -->
      <defs>
       <path d="M 37.796875 64.3125 
L 12.890625 25.390625 
L 37.796875 25.390625 
z
M 35.203125 72.90625 
L 47.609375 72.90625 
L 47.609375 25.390625 
L 58.015625 25.390625 
L 58.015625 17.1875 
L 47.609375 17.1875 
L 47.609375 0 
L 37.796875 0 
L 37.796875 17.1875 
L 4.890625 17.1875 
L 4.890625 26.703125 
z
" id="DejaVuSans-52"/>
      </defs>
      <g transform="translate(135.854375 499.286162)scale(0.1 -0.1)">
       <use xlink:href="#DejaVuSans-52"/>
      </g>
     </g>
    </g>
    <g id="xtick_5">
     <g id="line2d_9">
      <path clip-path="url(#p39032c49ab)" d="M 169.725625 484.687725 
L 169.725625 22.318125 
" style="fill:none;stroke:#b0b0b0;stroke-dasharray:1.85,0.8;stroke-dashoffset:0;stroke-width:0.5;"/>
     </g>
     <g id="line2d_10">
      <g>
       <use style="stroke:#000000;stroke-width:0.8;" x="169.725625" xlink:href="#mdfc7f42ff0" y="484.687725"/>
      </g>
     </g>
     <g id="text_5">
      <!-- 5 -->
      <defs>
       <path d="M 10.796875 72.90625 
L 49.515625 72.90625 
L 49.515625 64.59375 
L 19.828125 64.59375 
L 19.828125 46.734375 
Q 21.96875 47.46875 24.109375 47.828125 
Q 26.265625 48.1875 28.421875 48.1875 
Q 40.625 48.1875 47.75 41.5 
Q 54.890625 34.8125 54.890625 23.390625 
Q 54.890625 11.625 47.5625 5.09375 
Q 40.234375 -1.421875 26.90625 -1.421875 
Q 22.3125 -1.421875 17.546875 -0.640625 
Q 12.796875 0.140625 7.71875 1.703125 
L 7.71875 11.625 
Q 12.109375 9.234375 16.796875 8.0625 
Q 21.484375 6.890625 26.703125 6.890625 
Q 35.15625 6.890625 40.078125 11.328125 
Q 45.015625 15.765625 45.015625 23.390625 
Q 45.015625 31 40.078125 35.4375 
Q 35.15625 39.890625 26.703125 39.890625 
Q 22.75 39.890625 18.8125 39.015625 
Q 14.890625 38.140625 10.796875 36.28125 
z
" id="DejaVuSans-53"/>
      </defs>
      <g transform="translate(166.544375 499.286162)scale(0.1 -0.1)">
       <use xlink:href="#DejaVuSans-53"/>
      </g>
     </g>
    </g>
    <g id="xtick_6">
     <g id="line2d_11">
      <path clip-path="url(#p39032c49ab)" d="M 200.415625 484.687725 
L 200.415625 22.318125 
" style="fill:none;stroke:#b0b0b0;stroke-dasharray:1.85,0.8;stroke-dashoffset:0;stroke-width:0.5;"/>
     </g>
     <g id="line2d_12">
      <g>
       <use style="stroke:#000000;stroke-width:0.8;" x="200.415625" xlink:href="#mdfc7f42ff0" y="484.687725"/>
      </g>
     </g>
     <g id="text_6">
      <!-- 6 -->
      <defs>
       <path d="M 33.015625 40.375 
Q 26.375 40.375 22.484375 35.828125 
Q 18.609375 31.296875 18.609375 23.390625 
Q 18.609375 15.53125 22.484375 10.953125 
Q 26.375 6.390625 33.015625 6.390625 
Q 39.65625 6.390625 43.53125 10.953125 
Q 47.40625 15.53125 47.40625 23.390625 
Q 47.40625 31.296875 43.53125 35.828125 
Q 39.65625 40.375 33.015625 40.375 
z
M 52.59375 71.296875 
L 52.59375 62.3125 
Q 48.875 64.0625 45.09375 64.984375 
Q 41.3125 65.921875 37.59375 65.921875 
Q 27.828125 65.921875 22.671875 59.328125 
Q 17.53125 52.734375 16.796875 39.40625 
Q 19.671875 43.65625 24.015625 45.921875 
Q 28.375 48.1875 33.59375 48.1875 
Q 44.578125 48.1875 50.953125 41.515625 
Q 57.328125 34.859375 57.328125 23.390625 
Q 57.328125 12.15625 50.6875 5.359375 
Q 44.046875 -1.421875 33.015625 -1.421875 
Q 20.359375 -1.421875 13.671875 8.265625 
Q 6.984375 17.96875 6.984375 36.375 
Q 6.984375 53.65625 15.1875 63.9375 
Q 23.390625 74.21875 37.203125 74.21875 
Q 40.921875 74.21875 44.703125 73.484375 
Q 48.484375 72.75 52.59375 71.296875 
z
" id="DejaVuSans-54"/>
      </defs>
      <g transform="translate(197.234375 499.286162)scale(0.1 -0.1)">
       <use xlink:href="#DejaVuSans-54"/>
      </g>
     </g>
    </g>
    <g id="xtick_7">
     <g id="line2d_13">
      <path clip-path="url(#p39032c49ab)" d="M 231.105625 484.687725 
L 231.105625 22.318125 
" style="fill:none;stroke:#b0b0b0;stroke-dasharray:1.85,0.8;stroke-dashoffset:0;stroke-width:0.5;"/>
     </g>
     <g id="line2d_14">
      <g>
       <use style="stroke:#000000;stroke-width:0.8;" x="231.105625" xlink:href="#mdfc7f42ff0" y="484.687725"/>
      </g>
     </g>
     <g id="text_7">
      <!-- 7 -->
      <defs>
       <path d="M 8.203125 72.90625 
L 55.078125 72.90625 
L 55.078125 68.703125 
L 28.609375 0 
L 18.3125 0 
L 43.21875 64.59375 
L 8.203125 64.59375 
z
" id="DejaVuSans-55"/>
      </defs>
      <g transform="translate(227.924375 499.286162)scale(0.1 -0.1)">
       <use xlink:href="#DejaVuSans-55"/>
      </g>
     </g>
    </g>
    <g id="xtick_8">
     <g id="line2d_15">
      <path clip-path="url(#p39032c49ab)" d="M 261.795625 484.687725 
L 261.795625 22.318125 
" style="fill:none;stroke:#b0b0b0;stroke-dasharray:1.85,0.8;stroke-dashoffset:0;stroke-width:0.5;"/>
     </g>
     <g id="line2d_16">
      <g>
       <use style="stroke:#000000;stroke-width:0.8;" x="261.795625" xlink:href="#mdfc7f42ff0" y="484.687725"/>
      </g>
     </g>
     <g id="text_8">
      <!-- 8 -->
      <defs>
       <path d="M 31.78125 34.625 
Q 24.75 34.625 20.71875 30.859375 
Q 16.703125 27.09375 16.703125 20.515625 
Q 16.703125 13.921875 20.71875 10.15625 
Q 24.75 6.390625 31.78125 6.390625 
Q 38.8125 6.390625 42.859375 10.171875 
Q 46.921875 13.96875 46.921875 20.515625 
Q 46.921875 27.09375 42.890625 30.859375 
Q 38.875 34.625 31.78125 34.625 
z
M 21.921875 38.8125 
Q 15.578125 40.375 12.03125 44.71875 
Q 8.5 49.078125 8.5 55.328125 
Q 8.5 64.0625 14.71875 69.140625 
Q 20.953125 74.21875 31.78125 74.21875 
Q 42.671875 74.21875 48.875 69.140625 
Q 55.078125 64.0625 55.078125 55.328125 
Q 55.078125 49.078125 51.53125 44.71875 
Q 48 40.375 41.703125 38.8125 
Q 48.828125 37.15625 52.796875 32.3125 
Q 56.78125 27.484375 56.78125 20.515625 
Q 56.78125 9.90625 50.3125 4.234375 
Q 43.84375 -1.421875 31.78125 -1.421875 
Q 19.734375 -1.421875 13.25 4.234375 
Q 6.78125 9.90625 6.78125 20.515625 
Q 6.78125 27.484375 10.78125 32.3125 
Q 14.796875 37.15625 21.921875 38.8125 
z
M 18.3125 54.390625 
Q 18.3125 48.734375 21.84375 45.5625 
Q 25.390625 42.390625 31.78125 42.390625 
Q 38.140625 42.390625 41.71875 45.5625 
Q 45.3125 48.734375 45.3125 54.390625 
Q 45.3125 60.0625 41.71875 63.234375 
Q 38.140625 66.40625 31.78125 66.40625 
Q 25.390625 66.40625 21.84375 63.234375 
Q 18.3125 60.0625 18.3125 54.390625 
z
" id="DejaVuSans-56"/>
      </defs>
      <g transform="translate(258.614375 499.286162)scale(0.1 -0.1)">
       <use xlink:href="#DejaVuSans-56"/>
      </g>
     </g>
    </g>
    <g id="xtick_9">
     <g id="line2d_17">
      <path clip-path="url(#p39032c49ab)" d="M 292.485625 484.687725 
L 292.485625 22.318125 
" style="fill:none;stroke:#b0b0b0;stroke-dasharray:1.85,0.8;stroke-dashoffset:0;stroke-width:0.5;"/>
     </g>
     <g id="line2d_18">
      <g>
       <use style="stroke:#000000;stroke-width:0.8;" x="292.485625" xlink:href="#mdfc7f42ff0" y="484.687725"/>
      </g>
     </g>
     <g id="text_9">
      <!-- 9 -->
      <defs>
       <path d="M 10.984375 1.515625 
L 10.984375 10.5 
Q 14.703125 8.734375 18.5 7.8125 
Q 22.3125 6.890625 25.984375 6.890625 
Q 35.75 6.890625 40.890625 13.453125 
Q 46.046875 20.015625 46.78125 33.40625 
Q 43.953125 29.203125 39.59375 26.953125 
Q 35.25 24.703125 29.984375 24.703125 
Q 19.046875 24.703125 12.671875 31.3125 
Q 6.296875 37.9375 6.296875 49.421875 
Q 6.296875 60.640625 12.9375 67.421875 
Q 19.578125 74.21875 30.609375 74.21875 
Q 43.265625 74.21875 49.921875 64.515625 
Q 56.59375 54.828125 56.59375 36.375 
Q 56.59375 19.140625 48.40625 8.859375 
Q 40.234375 -1.421875 26.421875 -1.421875 
Q 22.703125 -1.421875 18.890625 -0.6875 
Q 15.09375 0.046875 10.984375 1.515625 
z
M 30.609375 32.421875 
Q 37.25 32.421875 41.125 36.953125 
Q 45.015625 41.5 45.015625 49.421875 
Q 45.015625 57.28125 41.125 61.84375 
Q 37.25 66.40625 30.609375 66.40625 
Q 23.96875 66.40625 20.09375 61.84375 
Q 16.21875 57.28125 16.21875 49.421875 
Q 16.21875 41.5 20.09375 36.953125 
Q 23.96875 32.421875 30.609375 32.421875 
z
" id="DejaVuSans-57"/>
      </defs>
      <g transform="translate(289.304375 499.286162)scale(0.1 -0.1)">
       <use xlink:href="#DejaVuSans-57"/>
      </g>
     </g>
    </g>
    <g id="xtick_10">
     <g id="line2d_19">
      <path clip-path="url(#p39032c49ab)" d="M 323.175625 484.687725 
L 323.175625 22.318125 
" style="fill:none;stroke:#b0b0b0;stroke-dasharray:1.85,0.8;stroke-dashoffset:0;stroke-width:0.5;"/>
     </g>
     <g id="line2d_20">
      <g>
       <use style="stroke:#000000;stroke-width:0.8;" x="323.175625" xlink:href="#mdfc7f42ff0" y="484.687725"/>
      </g>
     </g>
     <g id="text_10">
      <!-- 10 -->
      <defs>
       <path d="M 31.78125 66.40625 
Q 24.171875 66.40625 20.328125 58.90625 
Q 16.5 51.421875 16.5 36.375 
Q 16.5 21.390625 20.328125 13.890625 
Q 24.171875 6.390625 31.78125 6.390625 
Q 39.453125 6.390625 43.28125 13.890625 
Q 47.125 21.390625 47.125 36.375 
Q 47.125 51.421875 43.28125 58.90625 
Q 39.453125 66.40625 31.78125 66.40625 
z
M 31.78125 74.21875 
Q 44.046875 74.21875 50.515625 64.515625 
Q 56.984375 54.828125 56.984375 36.375 
Q 56.984375 17.96875 50.515625 8.265625 
Q 44.046875 -1.421875 31.78125 -1.421875 
Q 19.53125 -1.421875 13.0625 8.265625 
Q 6.59375 17.96875 6.59375 36.375 
Q 6.59375 54.828125 13.0625 64.515625 
Q 19.53125 74.21875 31.78125 74.21875 
z
" id="DejaVuSans-48"/>
      </defs>
      <g transform="translate(316.813125 499.286162)scale(0.1 -0.1)">
       <use xlink:href="#DejaVuSans-49"/>
       <use x="63.623047" xlink:href="#DejaVuSans-48"/>
      </g>
     </g>
    </g>
    <g id="xtick_11">
     <g id="line2d_21">
      <path clip-path="url(#p39032c49ab)" d="M 353.865625 484.687725 
L 353.865625 22.318125 
" style="fill:none;stroke:#b0b0b0;stroke-dasharray:1.85,0.8;stroke-dashoffset:0;stroke-width:0.5;"/>
     </g>
     <g id="line2d_22">
      <g>
       <use style="stroke:#000000;stroke-width:0.8;" x="353.865625" xlink:href="#mdfc7f42ff0" y="484.687725"/>
      </g>
     </g>
     <g id="text_11">
      <!-- 11 -->
      <g transform="translate(347.503125 499.286162)scale(0.1 -0.1)">
       <use xlink:href="#DejaVuSans-49"/>
       <use x="63.623047" xlink:href="#DejaVuSans-49"/>
      </g>
     </g>
    </g>
    <g id="xtick_12">
     <g id="line2d_23">
      <path clip-path="url(#p39032c49ab)" d="M 384.555625 484.687725 
L 384.555625 22.318125 
" style="fill:none;stroke:#b0b0b0;stroke-dasharray:1.85,0.8;stroke-dashoffset:0;stroke-width:0.5;"/>
     </g>
     <g id="line2d_24">
      <g>
       <use style="stroke:#000000;stroke-width:0.8;" x="384.555625" xlink:href="#mdfc7f42ff0" y="484.687725"/>
      </g>
     </g>
     <g id="text_12">
      <!-- 12 -->
      <g transform="translate(378.193125 499.286162)scale(0.1 -0.1)">
       <use xlink:href="#DejaVuSans-49"/>
       <use x="63.623047" xlink:href="#DejaVuSans-50"/>
      </g>
     </g>
    </g>
    <g id="xtick_13">
     <g id="line2d_25">
      <path clip-path="url(#p39032c49ab)" d="M 415.245625 484.687725 
L 415.245625 22.318125 
" style="fill:none;stroke:#b0b0b0;stroke-dasharray:1.85,0.8;stroke-dashoffset:0;stroke-width:0.5;"/>
     </g>
     <g id="line2d_26">
      <g>
       <use style="stroke:#000000;stroke-width:0.8;" x="415.245625" xlink:href="#mdfc7f42ff0" y="484.687725"/>
      </g>
     </g>
     <g id="text_13">
      <!-- 13 -->
      <g transform="translate(408.883125 499.286162)scale(0.1 -0.1)">
       <use xlink:href="#DejaVuSans-49"/>
       <use x="63.623047" xlink:href="#DejaVuSans-51"/>
      </g>
     </g>
    </g>
    <g id="xtick_14">
     <g id="line2d_27">
      <path clip-path="url(#p39032c49ab)" d="M 445.935625 484.687725 
L 445.935625 22.318125 
" style="fill:none;stroke:#b0b0b0;stroke-dasharray:1.85,0.8;stroke-dashoffset:0;stroke-width:0.5;"/>
     </g>
     <g id="line2d_28">
      <g>
       <use style="stroke:#000000;stroke-width:0.8;" x="445.935625" xlink:href="#mdfc7f42ff0" y="484.687725"/>
      </g>
     </g>
     <g id="text_14">
      <!-- 14 -->
      <g transform="translate(439.573125 499.286162)scale(0.1 -0.1)">
       <use xlink:href="#DejaVuSans-49"/>
       <use x="63.623047" xlink:href="#DejaVuSans-52"/>
      </g>
     </g>
    </g>
    <g id="xtick_15">
     <g id="line2d_29">
      <path clip-path="url(#p39032c49ab)" d="M 476.625625 484.687725 
L 476.625625 22.318125 
" style="fill:none;stroke:#b0b0b0;stroke-dasharray:1.85,0.8;stroke-dashoffset:0;stroke-width:0.5;"/>
     </g>
     <g id="line2d_30">
      <g>
       <use style="stroke:#000000;stroke-width:0.8;" x="476.625625" xlink:href="#mdfc7f42ff0" y="484.687725"/>
      </g>
     </g>
     <g id="text_15">
      <!-- 15 -->
      <g transform="translate(470.263125 499.286162)scale(0.1 -0.1)">
       <use xlink:href="#DejaVuSans-49"/>
       <use x="63.623047" xlink:href="#DejaVuSans-53"/>
      </g>
     </g>
    </g>
    <g id="xtick_16">
     <g id="line2d_31">
      <path clip-path="url(#p39032c49ab)" d="M 507.315625 484.687725 
L 507.315625 22.318125 
" style="fill:none;stroke:#b0b0b0;stroke-dasharray:1.85,0.8;stroke-dashoffset:0;stroke-width:0.5;"/>
     </g>
     <g id="line2d_32">
      <g>
       <use style="stroke:#000000;stroke-width:0.8;" x="507.315625" xlink:href="#mdfc7f42ff0" y="484.687725"/>
      </g>
     </g>
     <g id="text_16">
      <!-- 16 -->
      <g transform="translate(500.953125 499.286162)scale(0.1 -0.1)">
       <use xlink:href="#DejaVuSans-49"/>
       <use x="63.623047" xlink:href="#DejaVuSans-54"/>
      </g>
     </g>
    </g>
    <g id="xtick_17">
     <g id="line2d_33">
      <path clip-path="url(#p39032c49ab)" d="M 538.005625 484.687725 
L 538.005625 22.318125 
" style="fill:none;stroke:#b0b0b0;stroke-dasharray:1.85,0.8;stroke-dashoffset:0;stroke-width:0.5;"/>
     </g>
     <g id="line2d_34">
      <g>
       <use style="stroke:#000000;stroke-width:0.8;" x="538.005625" xlink:href="#mdfc7f42ff0" y="484.687725"/>
      </g>
     </g>
     <g id="text_17">
      <!-- 17 -->
      <g transform="translate(531.643125 499.286162)scale(0.1 -0.1)">
       <use xlink:href="#DejaVuSans-49"/>
       <use x="63.623047" xlink:href="#DejaVuSans-55"/>
      </g>
     </g>
    </g>
    <g id="xtick_18">
     <g id="line2d_35">
      <path clip-path="url(#p39032c49ab)" d="M 568.695625 484.687725 
L 568.695625 22.318125 
" style="fill:none;stroke:#b0b0b0;stroke-dasharray:1.85,0.8;stroke-dashoffset:0;stroke-width:0.5;"/>
     </g>
     <g id="line2d_36">
      <g>
       <use style="stroke:#000000;stroke-width:0.8;" x="568.695625" xlink:href="#mdfc7f42ff0" y="484.687725"/>
      </g>
     </g>
     <g id="text_18">
      <!-- 18 -->
      <g transform="translate(562.333125 499.286162)scale(0.1 -0.1)">
       <use xlink:href="#DejaVuSans-49"/>
       <use x="63.623047" xlink:href="#DejaVuSans-56"/>
      </g>
     </g>
    </g>
    <g id="xtick_19">
     <g id="line2d_37">
      <path clip-path="url(#p39032c49ab)" d="M 599.385625 484.687725 
L 599.385625 22.318125 
" style="fill:none;stroke:#b0b0b0;stroke-dasharray:1.85,0.8;stroke-dashoffset:0;stroke-width:0.5;"/>
     </g>
     <g id="line2d_38">
      <g>
       <use style="stroke:#000000;stroke-width:0.8;" x="599.385625" xlink:href="#mdfc7f42ff0" y="484.687725"/>
      </g>
     </g>
     <g id="text_19">
      <!-- 19 -->
      <g transform="translate(593.023125 499.286162)scale(0.1 -0.1)">
       <use xlink:href="#DejaVuSans-49"/>
       <use x="63.623047" xlink:href="#DejaVuSans-57"/>
      </g>
     </g>
    </g>
    <g id="xtick_20">
     <g id="line2d_39">
      <path clip-path="url(#p39032c49ab)" d="M 630.075625 484.687725 
L 630.075625 22.318125 
" style="fill:none;stroke:#b0b0b0;stroke-dasharray:1.85,0.8;stroke-dashoffset:0;stroke-width:0.5;"/>
     </g>
     <g id="line2d_40">
      <g>
       <use style="stroke:#000000;stroke-width:0.8;" x="630.075625" xlink:href="#mdfc7f42ff0" y="484.687725"/>
      </g>
     </g>
     <g id="text_20">
      <!-- 20 -->
      <g transform="translate(623.713125 499.286162)scale(0.1 -0.1)">
       <use xlink:href="#DejaVuSans-50"/>
       <use x="63.623047" xlink:href="#DejaVuSans-48"/>
      </g>
     </g>
    </g>
    <g id="xtick_21">
     <g id="line2d_41">
      <path clip-path="url(#p39032c49ab)" d="M 660.765625 484.687725 
L 660.765625 22.318125 
" style="fill:none;stroke:#b0b0b0;stroke-dasharray:1.85,0.8;stroke-dashoffset:0;stroke-width:0.5;"/>
     </g>
     <g id="line2d_42">
      <g>
       <use style="stroke:#000000;stroke-width:0.8;" x="660.765625" xlink:href="#mdfc7f42ff0" y="484.687725"/>
      </g>
     </g>
     <g id="text_21">
      <!-- 21 -->
      <g transform="translate(654.403125 499.286162)scale(0.1 -0.1)">
       <use xlink:href="#DejaVuSans-50"/>
       <use x="63.623047" xlink:href="#DejaVuSans-49"/>
      </g>
     </g>
    </g>
    <g id="text_22">
     <!-- age (years) -->
     <defs>
      <path d="M 34.28125 27.484375 
Q 23.390625 27.484375 19.1875 25 
Q 14.984375 22.515625 14.984375 16.5 
Q 14.984375 11.71875 18.140625 8.90625 
Q 21.296875 6.109375 26.703125 6.109375 
Q 34.1875 6.109375 38.703125 11.40625 
Q 43.21875 16.703125 43.21875 25.484375 
L 43.21875 27.484375 
z
M 52.203125 31.203125 
L 52.203125 0 
L 43.21875 0 
L 43.21875 8.296875 
Q 40.140625 3.328125 35.546875 0.953125 
Q 30.953125 -1.421875 24.3125 -1.421875 
Q 15.921875 -1.421875 10.953125 3.296875 
Q 6 8.015625 6 15.921875 
Q 6 25.140625 12.171875 29.828125 
Q 18.359375 34.515625 30.609375 34.515625 
L 43.21875 34.515625 
L 43.21875 35.40625 
Q 43.21875 41.609375 39.140625 45 
Q 35.0625 48.390625 27.6875 48.390625 
Q 23 48.390625 18.546875 47.265625 
Q 14.109375 46.140625 10.015625 43.890625 
L 10.015625 52.203125 
Q 14.9375 54.109375 19.578125 55.046875 
Q 24.21875 56 28.609375 56 
Q 40.484375 56 46.34375 49.84375 
Q 52.203125 43.703125 52.203125 31.203125 
z
" id="DejaVuSans-97"/>
      <path d="M 45.40625 27.984375 
Q 45.40625 37.75 41.375 43.109375 
Q 37.359375 48.484375 30.078125 48.484375 
Q 22.859375 48.484375 18.828125 43.109375 
Q 14.796875 37.75 14.796875 27.984375 
Q 14.796875 18.265625 18.828125 12.890625 
Q 22.859375 7.515625 30.078125 7.515625 
Q 37.359375 7.515625 41.375 12.890625 
Q 45.40625 18.265625 45.40625 27.984375 
z
M 54.390625 6.78125 
Q 54.390625 -7.171875 48.1875 -13.984375 
Q 42 -20.796875 29.203125 -20.796875 
Q 24.46875 -20.796875 20.265625 -20.09375 
Q 16.0625 -19.390625 12.109375 -17.921875 
L 12.109375 -9.1875 
Q 16.0625 -11.328125 19.921875 -12.34375 
Q 23.78125 -13.375 27.78125 -13.375 
Q 36.625 -13.375 41.015625 -8.765625 
Q 45.40625 -4.15625 45.40625 5.171875 
L 45.40625 9.625 
Q 42.625 4.78125 38.28125 2.390625 
Q 33.9375 0 27.875 0 
Q 17.828125 0 11.671875 7.65625 
Q 5.515625 15.328125 5.515625 27.984375 
Q 5.515625 40.671875 11.671875 48.328125 
Q 17.828125 56 27.875 56 
Q 33.9375 56 38.28125 53.609375 
Q 42.625 51.21875 45.40625 46.390625 
L 45.40625 54.6875 
L 54.390625 54.6875 
z
" id="DejaVuSans-103"/>
      <path d="M 56.203125 29.59375 
L 56.203125 25.203125 
L 14.890625 25.203125 
Q 15.484375 15.921875 20.484375 11.0625 
Q 25.484375 6.203125 34.421875 6.203125 
Q 39.59375 6.203125 44.453125 7.46875 
Q 49.3125 8.734375 54.109375 11.28125 
L 54.109375 2.78125 
Q 49.265625 0.734375 44.1875 -0.34375 
Q 39.109375 -1.421875 33.890625 -1.421875 
Q 20.796875 -1.421875 13.15625 6.1875 
Q 5.515625 13.8125 5.515625 26.8125 
Q 5.515625 40.234375 12.765625 48.109375 
Q 20.015625 56 32.328125 56 
Q 43.359375 56 49.78125 48.890625 
Q 56.203125 41.796875 56.203125 29.59375 
z
M 47.21875 32.234375 
Q 47.125 39.59375 43.09375 43.984375 
Q 39.0625 48.390625 32.421875 48.390625 
Q 24.90625 48.390625 20.390625 44.140625 
Q 15.875 39.890625 15.1875 32.171875 
z
" id="DejaVuSans-101"/>
      <path id="DejaVuSans-32"/>
      <path d="M 31 75.875 
Q 24.46875 64.65625 21.28125 53.65625 
Q 18.109375 42.671875 18.109375 31.390625 
Q 18.109375 20.125 21.3125 9.0625 
Q 24.515625 -2 31 -13.1875 
L 23.1875 -13.1875 
Q 15.875 -1.703125 12.234375 9.375 
Q 8.59375 20.453125 8.59375 31.390625 
Q 8.59375 42.28125 12.203125 53.3125 
Q 15.828125 64.359375 23.1875 75.875 
z
" id="DejaVuSans-40"/>
      <path d="M 32.171875 -5.078125 
Q 28.375 -14.84375 24.75 -17.8125 
Q 21.140625 -20.796875 15.09375 -20.796875 
L 7.90625 -20.796875 
L 7.90625 -13.28125 
L 13.1875 -13.28125 
Q 16.890625 -13.28125 18.9375 -11.515625 
Q 21 -9.765625 23.484375 -3.21875 
L 25.09375 0.875 
L 2.984375 54.6875 
L 12.5 54.6875 
L 29.59375 11.921875 
L 46.6875 54.6875 
L 56.203125 54.6875 
z
" id="DejaVuSans-121"/>
      <path d="M 41.109375 46.296875 
Q 39.59375 47.171875 37.8125 47.578125 
Q 36.03125 48 33.890625 48 
Q 26.265625 48 22.1875 43.046875 
Q 18.109375 38.09375 18.109375 28.8125 
L 18.109375 0 
L 9.078125 0 
L 9.078125 54.6875 
L 18.109375 54.6875 
L 18.109375 46.1875 
Q 20.953125 51.171875 25.484375 53.578125 
Q 30.03125 56 36.53125 56 
Q 37.453125 56 38.578125 55.875 
Q 39.703125 55.765625 41.0625 55.515625 
z
" id="DejaVuSans-114"/>
      <path d="M 44.28125 53.078125 
L 44.28125 44.578125 
Q 40.484375 46.53125 36.375 47.5 
Q 32.28125 48.484375 27.875 48.484375 
Q 21.1875 48.484375 17.84375 46.4375 
Q 14.5 44.390625 14.5 40.28125 
Q 14.5 37.15625 16.890625 35.375 
Q 19.28125 33.59375 26.515625 31.984375 
L 29.59375 31.296875 
Q 39.15625 29.25 43.1875 25.515625 
Q 47.21875 21.78125 47.21875 15.09375 
Q 47.21875 7.46875 41.1875 3.015625 
Q 35.15625 -1.421875 24.609375 -1.421875 
Q 20.21875 -1.421875 15.453125 -0.5625 
Q 10.6875 0.296875 5.421875 2 
L 5.421875 11.28125 
Q 10.40625 8.6875 15.234375 7.390625 
Q 20.0625 6.109375 24.8125 6.109375 
Q 31.15625 6.109375 34.5625 8.28125 
Q 37.984375 10.453125 37.984375 14.40625 
Q 37.984375 18.0625 35.515625 20.015625 
Q 33.0625 21.96875 24.703125 23.78125 
L 21.578125 24.515625 
Q 13.234375 26.265625 9.515625 29.90625 
Q 5.8125 33.546875 5.8125 39.890625 
Q 5.8125 47.609375 11.28125 51.796875 
Q 16.75 56 26.8125 56 
Q 31.78125 56 36.171875 55.265625 
Q 40.578125 54.546875 44.28125 53.078125 
z
" id="DejaVuSans-115"/>
      <path d="M 8.015625 75.875 
L 15.828125 75.875 
Q 23.140625 64.359375 26.78125 53.3125 
Q 30.421875 42.28125 30.421875 31.390625 
Q 30.421875 20.453125 26.78125 9.375 
Q 23.140625 -1.703125 15.828125 -13.1875 
L 8.015625 -13.1875 
Q 14.5 -2 17.703125 9.0625 
Q 20.90625 20.125 20.90625 31.390625 
Q 20.90625 42.671875 17.703125 53.65625 
Q 14.5 64.65625 8.015625 75.875 
z
" id="DejaVuSans-41"/>
     </defs>
     <g transform="translate(325.3 512.964287)scale(0.1 -0.1)">
      <use xlink:href="#DejaVuSans-97"/>
      <use x="61.279297" xlink:href="#DejaVuSans-103"/>
      <use x="124.755859" xlink:href="#DejaVuSans-101"/>
      <use x="186.279297" xlink:href="#DejaVuSans-32"/>
      <use x="218.066406" xlink:href="#DejaVuSans-40"/>
      <use x="257.080078" xlink:href="#DejaVuSans-121"/>
      <use x="316.259766" xlink:href="#DejaVuSans-101"/>
      <use x="377.783203" xlink:href="#DejaVuSans-97"/>
      <use x="439.0625" xlink:href="#DejaVuSans-114"/>
      <use x="480.175781" xlink:href="#DejaVuSans-115"/>
      <use x="532.275391" xlink:href="#DejaVuSans-41"/>
     </g>
    </g>
   </g>
   <g id="matplotlib.axis_2">
    <g id="ytick_1">
     <g id="line2d_43">
      <path clip-path="url(#p39032c49ab)" d="M 46.965625 484.687725 
L 660.765625 484.687725 
" style="fill:none;stroke:#b0b0b0;stroke-dasharray:1.85,0.8;stroke-dashoffset:0;stroke-width:0.5;"/>
     </g>
     <g id="line2d_44">
      <defs>
       <path d="M 0 0 
L -3.5 0 
" id="mb854355198" style="stroke:#000000;stroke-width:0.8;"/>
      </defs>
      <g>
       <use style="stroke:#000000;stroke-width:0.8;" x="46.965625" xlink:href="#mb854355198" y="484.687725"/>
      </g>
     </g>
     <g id="text_23">
      <!-- 70 -->
      <g transform="translate(27.240625 488.486944)scale(0.1 -0.1)">
       <use xlink:href="#DejaVuSans-55"/>
       <use x="63.623047" xlink:href="#DejaVuSans-48"/>
      </g>
     </g>
    </g>
    <g id="ytick_2">
     <g id="line2d_45">
      <path clip-path="url(#p39032c49ab)" d="M 46.965625 449.120833 
L 660.765625 449.120833 
" style="fill:none;stroke:#b0b0b0;stroke-dasharray:1.85,0.8;stroke-dashoffset:0;stroke-width:0.5;"/>
     </g>
     <g id="line2d_46">
      <g>
       <use style="stroke:#000000;stroke-width:0.8;" x="46.965625" xlink:href="#mb854355198" y="449.120833"/>
      </g>
     </g>
     <g id="text_24">
      <!-- 80 -->
      <g transform="translate(27.240625 452.920051)scale(0.1 -0.1)">
       <use xlink:href="#DejaVuSans-56"/>
       <use x="63.623047" xlink:href="#DejaVuSans-48"/>
      </g>
     </g>
    </g>
    <g id="ytick_3">
     <g id="line2d_47">
      <path clip-path="url(#p39032c49ab)" d="M 46.965625 413.55394 
L 660.765625 413.55394 
" style="fill:none;stroke:#b0b0b0;stroke-dasharray:1.85,0.8;stroke-dashoffset:0;stroke-width:0.5;"/>
     </g>
     <g id="line2d_48">
      <g>
       <use style="stroke:#000000;stroke-width:0.8;" x="46.965625" xlink:href="#mb854355198" y="413.55394"/>
      </g>
     </g>
     <g id="text_25">
      <!-- 90 -->
      <g transform="translate(27.240625 417.353159)scale(0.1 -0.1)">
       <use xlink:href="#DejaVuSans-57"/>
       <use x="63.623047" xlink:href="#DejaVuSans-48"/>
      </g>
     </g>
    </g>
    <g id="ytick_4">
     <g id="line2d_49">
      <path clip-path="url(#p39032c49ab)" d="M 46.965625 377.987048 
L 660.765625 377.987048 
" style="fill:none;stroke:#b0b0b0;stroke-dasharray:1.85,0.8;stroke-dashoffset:0;stroke-width:0.5;"/>
     </g>
     <g id="line2d_50">
      <g>
       <use style="stroke:#000000;stroke-width:0.8;" x="46.965625" xlink:href="#mb854355198" y="377.987048"/>
      </g>
     </g>
     <g id="text_26">
      <!-- 100 -->
      <g transform="translate(20.878125 381.786267)scale(0.1 -0.1)">
       <use xlink:href="#DejaVuSans-49"/>
       <use x="63.623047" xlink:href="#DejaVuSans-48"/>
       <use x="127.246094" xlink:href="#DejaVuSans-48"/>
      </g>
     </g>
    </g>
    <g id="ytick_5">
     <g id="line2d_51">
      <path clip-path="url(#p39032c49ab)" d="M 46.965625 342.420156 
L 660.765625 342.420156 
" style="fill:none;stroke:#b0b0b0;stroke-dasharray:1.85,0.8;stroke-dashoffset:0;stroke-width:0.5;"/>
     </g>
     <g id="line2d_52">
      <g>
       <use style="stroke:#000000;stroke-width:0.8;" x="46.965625" xlink:href="#mb854355198" y="342.420156"/>
      </g>
     </g>
     <g id="text_27">
      <!-- 110 -->
      <g transform="translate(20.878125 346.219375)scale(0.1 -0.1)">
       <use xlink:href="#DejaVuSans-49"/>
       <use x="63.623047" xlink:href="#DejaVuSans-49"/>
       <use x="127.246094" xlink:href="#DejaVuSans-48"/>
      </g>
     </g>
    </g>
    <g id="ytick_6">
     <g id="line2d_53">
      <path clip-path="url(#p39032c49ab)" d="M 46.965625 306.853263 
L 660.765625 306.853263 
" style="fill:none;stroke:#b0b0b0;stroke-dasharray:1.85,0.8;stroke-dashoffset:0;stroke-width:0.5;"/>
     </g>
     <g id="line2d_54">
      <g>
       <use style="stroke:#000000;stroke-width:0.8;" x="46.965625" xlink:href="#mb854355198" y="306.853263"/>
      </g>
     </g>
     <g id="text_28">
      <!-- 120 -->
      <g transform="translate(20.878125 310.652482)scale(0.1 -0.1)">
       <use xlink:href="#DejaVuSans-49"/>
       <use x="63.623047" xlink:href="#DejaVuSans-50"/>
       <use x="127.246094" xlink:href="#DejaVuSans-48"/>
      </g>
     </g>
    </g>
    <g id="ytick_7">
     <g id="line2d_55">
      <path clip-path="url(#p39032c49ab)" d="M 46.965625 271.286371 
L 660.765625 271.286371 
" style="fill:none;stroke:#b0b0b0;stroke-dasharray:1.85,0.8;stroke-dashoffset:0;stroke-width:0.5;"/>
     </g>
     <g id="line2d_56">
      <g>
       <use style="stroke:#000000;stroke-width:0.8;" x="46.965625" xlink:href="#mb854355198" y="271.286371"/>
      </g>
     </g>
     <g id="text_29">
      <!-- 130 -->
      <g transform="translate(20.878125 275.08559)scale(0.1 -0.1)">
       <use xlink:href="#DejaVuSans-49"/>
       <use x="63.623047" xlink:href="#DejaVuSans-51"/>
       <use x="127.246094" xlink:href="#DejaVuSans-48"/>
      </g>
     </g>
    </g>
    <g id="ytick_8">
     <g id="line2d_57">
      <path clip-path="url(#p39032c49ab)" d="M 46.965625 235.719479 
L 660.765625 235.719479 
" style="fill:none;stroke:#b0b0b0;stroke-dasharray:1.85,0.8;stroke-dashoffset:0;stroke-width:0.5;"/>
     </g>
     <g id="line2d_58">
      <g>
       <use style="stroke:#000000;stroke-width:0.8;" x="46.965625" xlink:href="#mb854355198" y="235.719479"/>
      </g>
     </g>
     <g id="text_30">
      <!-- 140 -->
      <g transform="translate(20.878125 239.518698)scale(0.1 -0.1)">
       <use xlink:href="#DejaVuSans-49"/>
       <use x="63.623047" xlink:href="#DejaVuSans-52"/>
       <use x="127.246094" xlink:href="#DejaVuSans-48"/>
      </g>
     </g>
    </g>
    <g id="ytick_9">
     <g id="line2d_59">
      <path clip-path="url(#p39032c49ab)" d="M 46.965625 200.152587 
L 660.765625 200.152587 
" style="fill:none;stroke:#b0b0b0;stroke-dasharray:1.85,0.8;stroke-dashoffset:0;stroke-width:0.5;"/>
     </g>
     <g id="line2d_60">
      <g>
       <use style="stroke:#000000;stroke-width:0.8;" x="46.965625" xlink:href="#mb854355198" y="200.152587"/>
      </g>
     </g>
     <g id="text_31">
      <!-- 150 -->
      <g transform="translate(20.878125 203.951805)scale(0.1 -0.1)">
       <use xlink:href="#DejaVuSans-49"/>
       <use x="63.623047" xlink:href="#DejaVuSans-53"/>
       <use x="127.246094" xlink:href="#DejaVuSans-48"/>
      </g>
     </g>
    </g>
    <g id="ytick_10">
     <g id="line2d_61">
      <path clip-path="url(#p39032c49ab)" d="M 46.965625 164.585694 
L 660.765625 164.585694 
" style="fill:none;stroke:#b0b0b0;stroke-dasharray:1.85,0.8;stroke-dashoffset:0;stroke-width:0.5;"/>
     </g>
     <g id="line2d_62">
      <g>
       <use style="stroke:#000000;stroke-width:0.8;" x="46.965625" xlink:href="#mb854355198" y="164.585694"/>
      </g>
     </g>
     <g id="text_32">
      <!-- 160 -->
      <g transform="translate(20.878125 168.384913)scale(0.1 -0.1)">
       <use xlink:href="#DejaVuSans-49"/>
       <use x="63.623047" xlink:href="#DejaVuSans-54"/>
       <use x="127.246094" xlink:href="#DejaVuSans-48"/>
      </g>
     </g>
    </g>
    <g id="ytick_11">
     <g id="line2d_63">
      <path clip-path="url(#p39032c49ab)" d="M 46.965625 129.018802 
L 660.765625 129.018802 
" style="fill:none;stroke:#b0b0b0;stroke-dasharray:1.85,0.8;stroke-dashoffset:0;stroke-width:0.5;"/>
     </g>
     <g id="line2d_64">
      <g>
       <use style="stroke:#000000;stroke-width:0.8;" x="46.965625" xlink:href="#mb854355198" y="129.018802"/>
      </g>
     </g>
     <g id="text_33">
      <!-- 170 -->
      <g transform="translate(20.878125 132.818021)scale(0.1 -0.1)">
       <use xlink:href="#DejaVuSans-49"/>
       <use x="63.623047" xlink:href="#DejaVuSans-55"/>
       <use x="127.246094" xlink:href="#DejaVuSans-48"/>
      </g>
     </g>
    </g>
    <g id="ytick_12">
     <g id="line2d_65">
      <path clip-path="url(#p39032c49ab)" d="M 46.965625 93.45191 
L 660.765625 93.45191 
" style="fill:none;stroke:#b0b0b0;stroke-dasharray:1.85,0.8;stroke-dashoffset:0;stroke-width:0.5;"/>
     </g>
     <g id="line2d_66">
      <g>
       <use style="stroke:#000000;stroke-width:0.8;" x="46.965625" xlink:href="#mb854355198" y="93.45191"/>
      </g>
     </g>
     <g id="text_34">
      <!-- 180 -->
      <g transform="translate(20.878125 97.251128)scale(0.1 -0.1)">
       <use xlink:href="#DejaVuSans-49"/>
       <use x="63.623047" xlink:href="#DejaVuSans-56"/>
       <use x="127.246094" xlink:href="#DejaVuSans-48"/>
      </g>
     </g>
    </g>
    <g id="ytick_13">
     <g id="line2d_67">
      <path clip-path="url(#p39032c49ab)" d="M 46.965625 57.885017 
L 660.765625 57.885017 
" style="fill:none;stroke:#b0b0b0;stroke-dasharray:1.85,0.8;stroke-dashoffset:0;stroke-width:0.5;"/>
     </g>
     <g id="line2d_68">
      <g>
       <use style="stroke:#000000;stroke-width:0.8;" x="46.965625" xlink:href="#mb854355198" y="57.885017"/>
      </g>
     </g>
     <g id="text_35">
      <!-- 190 -->
      <g transform="translate(20.878125 61.684236)scale(0.1 -0.1)">
       <use xlink:href="#DejaVuSans-49"/>
       <use x="63.623047" xlink:href="#DejaVuSans-57"/>
       <use x="127.246094" xlink:href="#DejaVuSans-48"/>
      </g>
     </g>
    </g>
    <g id="ytick_14">
     <g id="line2d_69">
      <path clip-path="url(#p39032c49ab)" d="M 46.965625 22.318125 
L 660.765625 22.318125 
" style="fill:none;stroke:#b0b0b0;stroke-dasharray:1.85,0.8;stroke-dashoffset:0;stroke-width:0.5;"/>
     </g>
     <g id="line2d_70">
      <g>
       <use style="stroke:#000000;stroke-width:0.8;" x="46.965625" xlink:href="#mb854355198" y="22.318125"/>
      </g>
     </g>
     <g id="text_36">
      <!-- 200 -->
      <g transform="translate(20.878125 26.117344)scale(0.1 -0.1)">
       <use xlink:href="#DejaVuSans-50"/>
       <use x="63.623047" xlink:href="#DejaVuSans-48"/>
       <use x="127.246094" xlink:href="#DejaVuSans-48"/>
      </g>
     </g>
    </g>
    <g id="text_37">
     <!-- stature (cm) -->
     <defs>
      <path d="M 18.3125 70.21875 
L 18.3125 54.6875 
L 36.8125 54.6875 
L 36.8125 47.703125 
L 18.3125 47.703125 
L 18.3125 18.015625 
Q 18.3125 11.328125 20.140625 9.421875 
Q 21.96875 7.515625 27.59375 7.515625 
L 36.8125 7.515625 
L 36.8125 0 
L 27.59375 0 
Q 17.1875 0 13.234375 3.875 
Q 9.28125 7.765625 9.28125 18.015625 
L 9.28125 47.703125 
L 2.6875 47.703125 
L 2.6875 54.6875 
L 9.28125 54.6875 
L 9.28125 70.21875 
z
" id="DejaVuSans-116"/>
      <path d="M 8.5 21.578125 
L 8.5 54.6875 
L 17.484375 54.6875 
L 17.484375 21.921875 
Q 17.484375 14.15625 20.5 10.265625 
Q 23.53125 6.390625 29.59375 6.390625 
Q 36.859375 6.390625 41.078125 11.03125 
Q 45.3125 15.671875 45.3125 23.6875 
L 45.3125 54.6875 
L 54.296875 54.6875 
L 54.296875 0 
L 45.3125 0 
L 45.3125 8.40625 
Q 42.046875 3.421875 37.71875 1 
Q 33.40625 -1.421875 27.6875 -1.421875 
Q 18.265625 -1.421875 13.375 4.4375 
Q 8.5 10.296875 8.5 21.578125 
z
M 31.109375 56 
z
" id="DejaVuSans-117"/>
      <path d="M 48.78125 52.59375 
L 48.78125 44.1875 
Q 44.96875 46.296875 41.140625 47.34375 
Q 37.3125 48.390625 33.40625 48.390625 
Q 24.65625 48.390625 19.8125 42.84375 
Q 14.984375 37.3125 14.984375 27.296875 
Q 14.984375 17.28125 19.8125 11.734375 
Q 24.65625 6.203125 33.40625 6.203125 
Q 37.3125 6.203125 41.140625 7.25 
Q 44.96875 8.296875 48.78125 10.40625 
L 48.78125 2.09375 
Q 45.015625 0.34375 40.984375 -0.53125 
Q 36.96875 -1.421875 32.421875 -1.421875 
Q 20.0625 -1.421875 12.78125 6.34375 
Q 5.515625 14.109375 5.515625 27.296875 
Q 5.515625 40.671875 12.859375 48.328125 
Q 20.21875 56 33.015625 56 
Q 37.15625 56 41.109375 55.140625 
Q 45.0625 54.296875 48.78125 52.59375 
z
" id="DejaVuSans-99"/>
      <path d="M 52 44.1875 
Q 55.375 50.25 60.0625 53.125 
Q 64.75 56 71.09375 56 
Q 79.640625 56 84.28125 50.015625 
Q 88.921875 44.046875 88.921875 33.015625 
L 88.921875 0 
L 79.890625 0 
L 79.890625 32.71875 
Q 79.890625 40.578125 77.09375 44.375 
Q 74.3125 48.1875 68.609375 48.1875 
Q 61.625 48.1875 57.5625 43.546875 
Q 53.515625 38.921875 53.515625 30.90625 
L 53.515625 0 
L 44.484375 0 
L 44.484375 32.71875 
Q 44.484375 40.625 41.703125 44.40625 
Q 38.921875 48.1875 33.109375 48.1875 
Q 26.21875 48.1875 22.15625 43.53125 
Q 18.109375 38.875 18.109375 30.90625 
L 18.109375 0 
L 9.078125 0 
L 9.078125 54.6875 
L 18.109375 54.6875 
L 18.109375 46.1875 
Q 21.1875 51.21875 25.484375 53.609375 
Q 29.78125 56 35.6875 56 
Q 41.65625 56 45.828125 52.96875 
Q 50 49.953125 52 44.1875 
z
" id="DejaVuSans-109"/>
     </defs>
     <g transform="translate(14.798437 284.501362)rotate(-90)scale(0.1 -0.1)">
      <use xlink:href="#DejaVuSans-115"/>
      <use x="52.099609" xlink:href="#DejaVuSans-116"/>
      <use x="91.308594" xlink:href="#DejaVuSans-97"/>
      <use x="152.587891" xlink:href="#DejaVuSans-116"/>
      <use x="191.796875" xlink:href="#DejaVuSans-117"/>
      <use x="255.175781" xlink:href="#DejaVuSans-114"/>
      <use x="296.257812" xlink:href="#DejaVuSans-101"/>
      <use x="357.78125" xlink:href="#DejaVuSans-32"/>
      <use x="389.568359" xlink:href="#DejaVuSans-40"/>
      <use x="428.582031" xlink:href="#DejaVuSans-99"/>
      <use x="483.5625" xlink:href="#DejaVuSans-109"/>
      <use x="580.974609" xlink:href="#DejaVuSans-41"/>
     </g>
    </g>
   </g>
   <g id="line2d_71">
    <path clip-path="url(#p39032c49ab)" d="M 77.655625 431.424329 
L 78.934375 429.924254 
L 84.049375 423.665103 
L 89.164375 417.802365 
L 94.279375 412.368079 
L 99.394375 407.366599 
L 104.509375 402.779114 
L 109.624375 398.568339 
L 119.854375 390.376956 
L 160.774375 357.993729 
L 181.234375 341.320451 
L 206.809375 320.493956 
L 219.596875 310.366304 
L 229.826875 302.510475 
L 240.056875 294.927453 
L 250.286875 287.652576 
L 260.516875 280.703753 
L 270.746875 274.077718 
L 280.976875 267.745929 
L 293.764375 260.152679 
L 321.896875 243.653976 
L 329.569375 238.859348 
L 337.241875 233.786494 
L 344.914375 228.370032 
L 352.586875 222.577519 
L 360.259375 216.427909 
L 370.489375 207.826528 
L 383.276875 196.974162 
L 390.949375 190.769701 
L 396.064375 186.880078 
L 401.179375 183.238747 
L 406.294375 179.875113 
L 411.409375 176.80533 
L 416.524375 174.03333 
L 421.639375 171.55281 
L 426.754375 169.34967 
L 431.869375 167.404494 
L 436.984375 165.69477 
L 442.099375 164.196718 
L 447.214375 162.886665 
L 454.886875 161.225008 
L 462.559375 159.86677 
L 470.231875 158.753019 
L 477.904375 157.835129 
L 488.134375 156.849255 
L 498.364375 156.071104 
L 511.151875 155.312584 
L 526.496875 154.626121 
L 546.956875 153.966274 
L 572.531875 153.403899 
L 603.221875 152.96494 
L 630.075625 152.712573 
L 630.075625 152.712573 
" style="fill:none;stroke:#ffff00;stroke-linecap:square;stroke-width:2;"/>
   </g>
   <g id="patch_3">
    <path d="M 46.965625 484.687725 
L 46.965625 22.318125 
" style="fill:none;stroke:#000000;stroke-linecap:square;stroke-linejoin:miter;stroke-width:0.8;"/>
   </g>
   <g id="patch_4">
    <path d="M 660.765625 484.687725 
L 660.765625 22.318125 
" style="fill:none;stroke:#000000;stroke-linecap:square;stroke-linejoin:miter;stroke-width:0.8;"/>
   </g>
   <g id="patch_5">
    <path d="M 46.965625 484.687725 
L 660.765625 484.687725 
" style="fill:none;stroke:#000000;stroke-linecap:square;stroke-linejoin:miter;stroke-width:0.8;"/>
   </g>
   <g id="patch_6">
    <path d="M 46.965625 22.318125 
L 660.765625 22.318125 
" style="fill:none;stroke:#000000;stroke-linecap:square;stroke-linejoin:miter;stroke-width:0.8;"/>
   </g>
   <g id="text_38">
    <!-- 5 -->
    <g style="fill:#3399ff;" transform="translate(623.713125 198.323225)scale(0.1 -0.1)">
     <use xlink:href="#DejaVuSans-53"/>
    </g>
   </g>
   <g id="text_39">
    <!-- 95 -->
    <g style="fill:#3399ff;" transform="translate(617.350625 112.887737)scale(0.1 -0.1)">
     <use xlink:href="#DejaVuSans-57"/>
     <use x="63.623047" xlink:href="#DejaVuSans-53"/>
    </g>
   </g>
   <g id="text_40">
    <!-- 10 -->
    <g style="fill:#0066cc;" transform="translate(617.350625 189.903298)scale(0.1 -0.1)">
     <use xlink:href="#DejaVuSans-49"/>
     <use x="63.623047" xlink:href="#DejaVuSans-48"/>
    </g>
   </g>
   <g id="text_41">
    <!-- 90 -->
    <g style="fill:#0066cc;" transform="translate(617.350625 121.202654)scale(0.1 -0.1)">
     <use xlink:href="#DejaVuSans-57"/>
     <use x="63.623047" xlink:href="#DejaVuSans-48"/>
    </g>
   </g>
   <g id="text_42">
    <!-- 25 -->
    <g style="fill:#003366;" transform="translate(617.350625 175.864797)scale(0.1 -0.1)">
     <use xlink:href="#DejaVuSans-50"/>
     <use x="63.623047" xlink:href="#DejaVuSans-53"/>
    </g>
   </g>
   <g id="text_43">
    <!-- 75 -->
    <g style="fill:#003366;" transform="translate(617.350625 135.123968)scale(0.1 -0.1)">
     <use xlink:href="#DejaVuSans-55"/>
     <use x="63.623047" xlink:href="#DejaVuSans-53"/>
    </g>
   </g>
   <g id="text_44">
    <!-- 50 -->
    <g style="fill:#ffff00;" transform="translate(617.350625 150.632885)scale(0.1 -0.1)">
     <use xlink:href="#DejaVuSans-53"/>
     <use x="63.623047" xlink:href="#DejaVuSans-48"/>
    </g>
   </g>
   <g id="text_45">
    <!-- stature-for-age: females 2 to 20 years -->
    <defs>
     <path d="M 4.890625 31.390625 
L 31.203125 31.390625 
L 31.203125 23.390625 
L 4.890625 23.390625 
z
" id="DejaVuSans-45"/>
     <path d="M 37.109375 75.984375 
L 37.109375 68.5 
L 28.515625 68.5 
Q 23.6875 68.5 21.796875 66.546875 
Q 19.921875 64.59375 19.921875 59.515625 
L 19.921875 54.6875 
L 34.71875 54.6875 
L 34.71875 47.703125 
L 19.921875 47.703125 
L 19.921875 0 
L 10.890625 0 
L 10.890625 47.703125 
L 2.296875 47.703125 
L 2.296875 54.6875 
L 10.890625 54.6875 
L 10.890625 58.5 
Q 10.890625 67.625 15.140625 71.796875 
Q 19.390625 75.984375 28.609375 75.984375 
z
" id="DejaVuSans-102"/>
     <path d="M 30.609375 48.390625 
Q 23.390625 48.390625 19.1875 42.75 
Q 14.984375 37.109375 14.984375 27.296875 
Q 14.984375 17.484375 19.15625 11.84375 
Q 23.34375 6.203125 30.609375 6.203125 
Q 37.796875 6.203125 41.984375 11.859375 
Q 46.1875 17.53125 46.1875 27.296875 
Q 46.1875 37.015625 41.984375 42.703125 
Q 37.796875 48.390625 30.609375 48.390625 
z
M 30.609375 56 
Q 42.328125 56 49.015625 48.375 
Q 55.71875 40.765625 55.71875 27.296875 
Q 55.71875 13.875 49.015625 6.21875 
Q 42.328125 -1.421875 30.609375 -1.421875 
Q 18.84375 -1.421875 12.171875 6.21875 
Q 5.515625 13.875 5.515625 27.296875 
Q 5.515625 40.765625 12.171875 48.375 
Q 18.84375 56 30.609375 56 
z
" id="DejaVuSans-111"/>
     <path d="M 11.71875 12.40625 
L 22.015625 12.40625 
L 22.015625 0 
L 11.71875 0 
z
M 11.71875 51.703125 
L 22.015625 51.703125 
L 22.015625 39.3125 
L 11.71875 39.3125 
z
" id="DejaVuSans-58"/>
     <path d="M 9.421875 75.984375 
L 18.40625 75.984375 
L 18.40625 0 
L 9.421875 0 
z
" id="DejaVuSans-108"/>
    </defs>
    <g transform="translate(239.294688 16.318125)scale(0.12 -0.12)">
     <use xlink:href="#DejaVuSans-115"/>
     <use x="52.099609" xlink:href="#DejaVuSans-116"/>
     <use x="91.308594" xlink:href="#DejaVuSans-97"/>
     <use x="152.587891" xlink:href="#DejaVuSans-116"/>
     <use x="191.796875" xlink:href="#DejaVuSans-117"/>
     <use x="255.175781" xlink:href="#DejaVuSans-114"/>
     <use x="296.257812" xlink:href="#DejaVuSans-101"/>
     <use x="357.78125" xlink:href="#DejaVuSans-45"/>
     <use x="393.865234" xlink:href="#DejaVuSans-102"/>
     <use x="429.070312" xlink:href="#DejaVuSans-111"/>
     <use x="490.251953" xlink:href="#DejaVuSans-114"/>
     <use x="531.271484" xlink:href="#DejaVuSans-45"/>
     <use x="567.355469" xlink:href="#DejaVuSans-97"/>
     <use x="628.634766" xlink:href="#DejaVuSans-103"/>
     <use x="692.111328" xlink:href="#DejaVuSans-101"/>
     <use x="753.634766" xlink:href="#DejaVuSans-58"/>
     <use x="787.326172" xlink:href="#DejaVuSans-32"/>
     <use x="819.113281" xlink:href="#DejaVuSans-102"/>
     <use x="854.318359" xlink:href="#DejaVuSans-101"/>
     <use x="915.841797" xlink:href="#DejaVuSans-109"/>
     <use x="1013.253906" xlink:href="#DejaVuSans-97"/>
     <use x="1074.533203" xlink:href="#DejaVuSans-108"/>
     <use x="1102.316406" xlink:href="#DejaVuSans-101"/>
     <use x="1163.839844" xlink:href="#DejaVuSans-115"/>
     <use x="1215.939453" xlink:href="#DejaVuSans-32"/>
     <use x="1247.726562" xlink:href="#DejaVuSans-50"/>
     <use x="1311.349609" xlink:href="#DejaVuSans-32"/>
     <use x="1343.136719" xlink:href="#DejaVuSans-116"/>
     <use x="1382.345703" xlink:href="#DejaVuSans-111"/>
     <use x="1443.527344" xlink:href="#DejaVuSans-32"/>
     <use x="1475.314453" xlink:href="#DejaVuSans-50"/>
     <use x="1538.9375" xlink:href="#DejaVuSans-48"/>
     <use x="1602.560547" xlink:href="#DejaVuSans-32"/>
     <use x="1634.347656" xlink:href="#DejaVuSans-121"/>
     <use x="1693.527344" xlink:href="#DejaVuSans-101"/>
     <use x="1755.050781" xlink:href="#DejaVuSans-97"/>
     <use x="1816.330078" xlink:href="#DejaVuSans-114"/>
     <use x="1857.443359" xlink:href="#DejaVuSans-115"/>
    </g>
   </g>
  </g>
 </g>
 <defs>
  <clipPath id="p39032c49ab">
   <rect height="462.3696" width="613.8" x="46.965625" y="22.318125"/>
  </clipPath>
 </defs>
</svg>
