<?xml version="1.0" encoding="UTF-8"?>
<!DOCTYPE svg PUBLIC "-//W3C//DTD SVG 1.1//EN" "http://www.w3.org/Graphics/SVG/1.1/DTD/svg11.dtd">
<svg version="1.1" xmlns="http://www.w3.org/2000/svg" xmlns:xlink="http://www.w3.org/1999/xlink" x="0" y="0" width="527.434" height="125.788" viewBox="0, 0, 527.434, 125.788">
  <g id="Background">
    <rect x="0" y="0" width="527.434" height="125.788" fill="#FFFFFF"/>
  </g>
  <defs>
    <clipPath id="Clip_1">
      <path d="M283.294,61.092 C283.662,61.092 283.961,61.391 283.961,61.758 C283.961,62.127 283.662,62.425 283.294,62.425 C282.926,62.425 282.628,62.127 282.628,61.758 C282.628,61.391 282.926,61.092 283.294,61.092 z"/>
    </clipPath>
    <clipPath id="Clip_2">
      <path d="M280.628,61.092 C280.995,61.092 281.294,61.391 281.294,61.758 C281.294,62.127 280.995,62.425 280.628,62.425 C280.26,62.425 279.961,62.127 279.961,61.758 C279.961,61.391 280.26,61.092 280.628,61.092 z"/>
    </clipPath>
    <clipPath id="Clip_3">
      <path d="M269.626,64.804 C269.996,64.804 270.294,65.102 270.294,65.471 C270.294,65.839 269.996,66.138 269.626,66.138 C269.259,66.138 268.961,65.839 268.961,65.471 C268.961,65.102 269.259,64.804 269.626,64.804 z"/>
    </clipPath>
    <clipPath id="Clip_4">
      <path d="M272.294,64.804 C272.662,64.804 272.961,65.102 272.961,65.471 C272.961,65.839 272.662,66.138 272.294,66.138 C271.926,66.138 271.627,65.839 271.627,65.471 C271.627,65.102 271.926,64.804 272.294,64.804 z"/>
    </clipPath>
    <clipPath id="Clip_5">
      <path d="M349.07,61.092 C349.437,61.092 349.735,61.391 349.735,61.758 C349.735,62.127 349.437,62.425 349.07,62.425 C348.701,62.425 348.403,62.127 348.403,61.758 C348.403,61.391 348.701,61.092 349.07,61.092 z"/>
    </clipPath>
    <clipPath id="Clip_6">
      <path d="M346.402,61.092 C346.771,61.092 347.07,61.391 347.07,61.758 C347.07,62.127 346.771,62.425 346.402,62.425 C346.034,62.425 345.735,62.127 345.735,61.758 C345.735,61.391 346.034,61.092 346.402,61.092 z"/>
    </clipPath>
    <clipPath id="Clip_7">
      <path d="M335.402,64.804 C335.77,64.804 336.069,65.102 336.069,65.471 C336.069,65.839 335.77,66.138 335.402,66.138 C335.034,66.138 334.735,65.839 334.735,65.471 C334.735,65.102 335.034,64.804 335.402,64.804 z"/>
    </clipPath>
    <clipPath id="Clip_8">
      <path d="M338.07,64.804 C338.437,64.804 338.736,65.102 338.736,65.471 C338.736,65.839 338.437,66.138 338.07,66.138 C337.702,66.138 337.402,65.839 337.402,65.471 C337.402,65.102 337.702,64.804 338.07,64.804 z"/>
    </clipPath>
    <clipPath id="Clip_9">
      <path d="M414.843,61.092 C415.212,61.092 415.511,61.391 415.511,61.758 C415.511,62.127 415.212,62.425 414.843,62.425 C414.475,62.425 414.176,62.127 414.176,61.758 C414.176,61.391 414.475,61.092 414.843,61.092 z"/>
    </clipPath>
    <clipPath id="Clip_10">
      <path d="M412.177,61.092 C412.545,61.092 412.843,61.391 412.843,61.758 C412.843,62.127 412.545,62.425 412.177,62.425 C411.809,62.425 411.511,62.127 411.511,61.758 C411.511,61.391 411.809,61.092 412.177,61.092 z"/>
    </clipPath>
    <clipPath id="Clip_11">
      <path d="M401.177,64.804 C401.545,64.804 401.844,65.102 401.844,65.471 C401.844,65.839 401.545,66.138 401.177,66.138 C400.81,66.138 400.511,65.839 400.511,65.471 C400.511,65.102 400.81,64.804 401.177,64.804 z"/>
    </clipPath>
    <clipPath id="Clip_12">
      <path d="M403.843,64.804 C404.212,64.804 404.51,65.102 404.51,65.471 C404.51,65.839 404.212,66.138 403.843,66.138 C403.475,66.138 403.177,65.839 403.177,65.471 C403.177,65.102 403.475,64.804 403.843,64.804 z"/>
    </clipPath>
    <clipPath id="Clip_13">
      <path d="M317.682,91.491 C318.05,91.491 318.349,91.79 318.349,92.157 C318.349,92.526 318.05,92.824 317.682,92.824 C317.314,92.824 317.014,92.526 317.014,92.157 C317.014,91.79 317.314,91.491 317.682,91.491 z"/>
    </clipPath>
    <clipPath id="Clip_14">
      <path d="M315.014,91.491 C315.382,91.491 315.681,91.79 315.681,92.157 C315.681,92.526 315.382,92.824 315.014,92.824 C314.647,92.824 314.348,92.526 314.348,92.157 C314.348,91.79 314.647,91.491 315.014,91.491 z"/>
    </clipPath>
    <clipPath id="Clip_15">
      <path d="M304.015,95.203 C304.383,95.203 304.681,95.502 304.681,95.87 C304.681,96.239 304.383,96.538 304.015,96.538 C303.647,96.538 303.349,96.239 303.349,95.87 C303.349,95.502 303.647,95.203 304.015,95.203 z"/>
    </clipPath>
    <clipPath id="Clip_16">
      <path d="M306.681,95.203 C307.049,95.203 307.348,95.502 307.348,95.87 C307.348,96.239 307.049,96.538 306.681,96.538 C306.313,96.538 306.014,96.239 306.014,95.87 C306.014,95.502 306.313,95.203 306.681,95.203 z"/>
    </clipPath>
    <clipPath id="Clip_17">
      <path d="M381.456,91.491 C381.824,91.491 382.123,91.79 382.123,92.157 C382.123,92.526 381.824,92.824 381.456,92.824 C381.089,92.824 380.79,92.526 380.79,92.157 C380.79,91.79 381.089,91.491 381.456,91.491 z"/>
    </clipPath>
    <clipPath id="Clip_18">
      <path d="M378.79,91.491 C379.157,91.491 379.456,91.79 379.456,92.157 C379.456,92.526 379.157,92.824 378.79,92.824 C378.422,92.824 378.123,92.526 378.123,92.157 C378.123,91.79 378.422,91.491 378.79,91.491 z"/>
    </clipPath>
    <clipPath id="Clip_19">
      <path d="M367.79,95.203 C368.158,95.203 368.456,95.502 368.456,95.87 C368.456,96.239 368.158,96.538 367.79,96.538 C367.422,96.538 367.123,96.239 367.123,95.87 C367.123,95.502 367.422,95.203 367.79,95.203 z"/>
    </clipPath>
    <clipPath id="Clip_20">
      <path d="M370.456,95.203 C370.824,95.203 371.123,95.502 371.123,95.87 C371.123,96.239 370.824,96.538 370.456,96.538 C370.089,96.538 369.79,96.239 369.79,95.87 C369.79,95.502 370.089,95.203 370.456,95.203 z"/>
    </clipPath>
  </defs>
  <g id="Layer_1">
    <g clip-path="url(#Clip_1)">
      <path d="M279.294,65.758 L287.294,65.758 L287.294,57.758 L279.294,57.758 z" fill="#4B73AB"/>
    </g>
    <path d="M280.628,61.092 C280.26,61.092 279.961,61.391 279.961,61.758 C279.961,62.127 280.26,62.425 280.628,62.425 C280.995,62.425 281.294,62.127 281.294,61.758 C281.294,61.391 280.995,61.092 280.628,61.092" fill="#4B73AB"/>
    <g clip-path="url(#Clip_2)">
      <path d="M276.628,65.758 L284.628,65.758 L284.628,57.758 L276.628,57.758 z" fill="#4B73AB"/>
    </g>
    <g>
      <path d="M267.461,65.304 L267.461,64.638 C267.461,63.772 268.51,62.638 269.461,62.638 L273.461,62.638 C274.411,62.638 275.461,63.772 275.461,64.638 L275.461,66.638 L275.461,71.304 L272.794,69.304 L270.127,69.304 C268.258,69.283 267.461,68.087 267.461,66.638 L267.461,65.304 z" fill-opacity="0" stroke="#4B73AB" stroke-width="2" stroke-linecap="round" stroke-linejoin="round"/>
      <path d="M269.627,64.804 C269.995,64.804 270.294,65.103 270.294,65.471 C270.294,65.839 269.995,66.138 269.627,66.138 C269.26,66.138 268.961,65.839 268.961,65.471 C268.961,65.103 269.26,64.804 269.627,64.804" fill="#4B73AB"/>
    </g>
    <g clip-path="url(#Clip_3)">
      <path d="M265.627,69.471 L273.627,69.471 L273.627,61.471 L265.627,61.471 z" fill="#4B73AB"/>
    </g>
    <path d="M272.294,64.804 C272.662,64.804 272.961,65.103 272.961,65.471 C272.961,65.839 272.662,66.138 272.294,66.138 C271.926,66.138 271.627,65.839 271.627,65.471 C271.627,65.103 271.926,64.804 272.294,64.804" fill="#4B73AB"/>
    <g clip-path="url(#Clip_4)">
      <path d="M268.294,69.471 L276.294,69.471 L276.294,61.471 L268.294,61.471 z" fill="#4B73AB"/>
    </g>
    <g>
      <path d="M352.235,61.592 L352.235,60.925 C352.235,60.059 351.186,58.925 350.235,58.925 L346.235,58.925 C345.285,58.925 344.235,60.059 344.235,60.925 L344.235,62.925 L344.235,67.592 L346.902,65.592 L349.569,65.592 C351.439,65.571 352.235,64.374 352.235,62.925 L352.235,61.592 z" fill-opacity="0" stroke="#4B73AB" stroke-width="2" stroke-linecap="round" stroke-linejoin="round"/>
      <path d="M349.069,61.092 C348.701,61.092 348.402,61.391 348.402,61.758 C348.402,62.127 348.701,62.425 349.069,62.425 C349.436,62.425 349.735,62.127 349.735,61.758 C349.735,61.391 349.436,61.092 349.069,61.092" fill="#4B73AB"/>
    </g>
    <g clip-path="url(#Clip_5)">
      <path d="M345.069,65.758 L353.069,65.758 L353.069,57.758 L345.069,57.758 z" fill="#4B73AB"/>
    </g>
    <path d="M346.402,61.092 C346.034,61.092 345.735,61.391 345.735,61.758 C345.735,62.127 346.034,62.425 346.402,62.425 C346.77,62.425 347.069,62.127 347.069,61.758 C347.069,61.391 346.77,61.092 346.402,61.092" fill="#4B73AB"/>
    <g clip-path="url(#Clip_6)">
      <path d="M342.402,65.758 L350.402,65.758 L350.402,57.758 L342.402,57.758 z" fill="#4B73AB"/>
    </g>
    <g>
      <path d="M333.235,65.304 L333.235,64.638 C333.235,63.772 334.285,62.638 335.235,62.638 L339.235,62.638 C340.186,62.638 341.235,63.772 341.235,64.638 L341.235,66.638 L341.235,71.304 L338.569,69.304 L335.902,69.304 C334.032,69.283 333.235,68.087 333.235,66.638 L333.235,65.304 z" fill-opacity="0" stroke="#4B73AB" stroke-width="2" stroke-linecap="round" stroke-linejoin="round"/>
      <path d="M335.402,64.804 C335.77,64.804 336.069,65.103 336.069,65.471 C336.069,65.839 335.77,66.138 335.402,66.138 C335.034,66.138 334.735,65.839 334.735,65.471 C334.735,65.103 335.034,64.804 335.402,64.804" fill="#4B73AB"/>
    </g>
    <g clip-path="url(#Clip_7)">
      <path d="M331.402,69.471 L339.402,69.471 L339.402,61.471 L331.402,61.471 z" fill="#4B73AB"/>
    </g>
    <path d="M338.069,64.804 C338.436,64.804 338.735,65.103 338.735,65.471 C338.735,65.839 338.436,66.138 338.069,66.138 C337.701,66.138 337.402,65.839 337.402,65.471 C337.402,65.103 337.701,64.804 338.069,64.804" fill="#4B73AB"/>
    <g clip-path="url(#Clip_8)">
      <path d="M334.069,69.471 L342.069,69.471 L342.069,61.471 L334.069,61.471 z" fill="#4B73AB"/>
    </g>
    <g>
      <path d="M418.011,61.592 L418.011,60.925 C418.011,60.059 416.961,58.925 416.011,58.925 L412.011,58.925 C411.06,58.925 410.011,60.059 410.011,60.925 L410.011,62.925 L410.011,67.592 L412.677,65.592 L415.344,65.592 C417.214,65.571 418.011,64.374 418.011,62.925 L418.011,61.592 z" fill-opacity="0" stroke="#4B73AB" stroke-width="2" stroke-linecap="round" stroke-linejoin="round"/>
      <path d="M414.844,61.092 C414.476,61.092 414.177,61.391 414.177,61.758 C414.177,62.127 414.476,62.425 414.844,62.425 C415.212,62.425 415.511,62.127 415.511,61.758 C415.511,61.391 415.212,61.092 414.844,61.092" fill="#4B73AB"/>
    </g>
    <g clip-path="url(#Clip_9)">
      <path d="M410.844,65.758 L418.844,65.758 L418.844,57.758 L410.844,57.758 z" fill="#4B73AB"/>
    </g>
    <path d="M412.177,61.092 C411.81,61.092 411.511,61.391 411.511,61.758 C411.511,62.127 411.81,62.425 412.177,62.425 C412.545,62.425 412.844,62.127 412.844,61.758 C412.844,61.391 412.545,61.092 412.177,61.092" fill="#4B73AB"/>
    <g clip-path="url(#Clip_10)">
      <path d="M408.177,65.758 L416.177,65.758 L416.177,57.758 L408.177,57.758 z" fill="#4B73AB"/>
    </g>
    <g>
      <path d="M399.011,65.304 L399.011,64.638 C399.011,63.772 400.06,62.638 401.011,62.638 L405.011,62.638 C405.961,62.638 407.011,63.772 407.011,64.638 L407.011,66.638 L407.011,71.304 L404.344,69.304 L401.677,69.304 C399.808,69.283 399.011,68.087 399.011,66.638 L399.011,65.304 z" fill-opacity="0" stroke="#4B73AB" stroke-width="2" stroke-linecap="round" stroke-linejoin="round"/>
      <path d="M401.177,64.804 C401.545,64.804 401.844,65.103 401.844,65.471 C401.844,65.839 401.545,66.138 401.177,66.138 C400.81,66.138 400.511,65.839 400.511,65.471 C400.511,65.103 400.81,64.804 401.177,64.804" fill="#4B73AB"/>
    </g>
    <g clip-path="url(#Clip_11)">
      <path d="M397.177,69.471 L405.177,69.471 L405.177,61.471 L397.177,61.471 z" fill="#4B73AB"/>
    </g>
    <path d="M403.844,64.804 C404.212,64.804 404.511,65.103 404.511,65.471 C404.511,65.839 404.212,66.138 403.844,66.138 C403.476,66.138 403.177,65.839 403.177,65.471 C403.177,65.103 403.476,64.804 403.844,64.804" fill="#4B73AB"/>
    <g clip-path="url(#Clip_12)">
      <path d="M399.844,69.471 L407.844,69.471 L407.844,61.471 L399.844,61.471 z" fill="#4B73AB"/>
    </g>
    <g>
      <path d="M233.066,4.558 L232.557,6.759 L233.36,6.759 L233.787,4.558 z" fill="#000000"/>
      <path d="M238.979,6.646 C238.979,6.011 238.722,5.672 238.237,5.672 C237.871,5.672 237.594,5.905 237.509,6.288 L237.423,6.288 C237.345,5.894 237.105,5.672 236.757,5.672 C236.398,5.672 236.135,5.901 236.049,6.308 L235.964,6.308 L235.964,5.748 L235.267,5.748 L235.267,9.49 L235.95,9.49 L235.95,6.937 C235.95,6.585 236.121,6.363 236.388,6.363 C236.644,6.363 236.788,6.554 236.788,6.899 L236.788,9.49 L237.468,9.49 L237.468,6.937 C237.468,6.585 237.632,6.363 237.895,6.363 C238.148,6.363 238.295,6.558 238.295,6.899 L238.295,9.49 L238.979,9.49 z" fill="#000000"/>
      <path d="M241.251,9.552 C241.76,9.552 242.16,9.34 242.341,8.967 L242.413,8.967 L242.413,9.49 L243.168,9.49 L243.168,6.94 C243.168,6.141 242.642,5.686 241.716,5.686 C240.875,5.686 240.27,6.113 240.202,6.759 L240.981,6.759 C241.063,6.486 241.33,6.329 241.695,6.329 C242.133,6.329 242.382,6.547 242.382,6.934 L242.382,7.248 L241.446,7.303 C240.55,7.357 240.065,7.754 240.065,8.424 C240.065,9.101 240.54,9.552 241.251,9.552 z M241.507,8.902 C241.107,8.902 240.854,8.701 240.854,8.376 C240.854,8.044 241.097,7.856 241.565,7.829 L242.382,7.785 L242.382,8.126 C242.382,8.578 242.013,8.902 241.507,8.902 z" fill="#000000"/>
      <path d="M244.597,6.807 C244.597,7.364 244.946,7.72 245.636,7.873 L246.197,7.997 C246.624,8.089 246.781,8.215 246.781,8.461 C246.781,8.752 246.508,8.943 246.074,8.943 C245.65,8.943 245.366,8.776 245.298,8.482 L244.508,8.482 C244.563,9.159 245.144,9.565 246.06,9.565 C247,9.565 247.598,9.097 247.598,8.369 C247.598,7.809 247.267,7.491 246.518,7.33 L245.961,7.21 C245.554,7.122 245.383,6.985 245.383,6.746 C245.383,6.465 245.646,6.281 246.046,6.281 C246.433,6.281 246.703,6.455 246.757,6.735 L247.509,6.735 C247.458,6.062 246.915,5.665 246.057,5.665 C245.171,5.665 244.597,6.11 244.597,6.807 z" fill="#000000"/>
      <path d="M249.738,4.702 L249.738,5.771 L248.753,5.771 L248.753,6.414 L249.738,6.414 L249.738,8.335 C249.738,9.165 250.145,9.5 251.129,9.5 C251.242,9.5 251.871,9.49 251.932,9.48 L251.932,8.844 C251.867,8.851 251.327,8.854 251.19,8.854 C250.767,8.854 250.531,8.67 250.531,8.338 L250.531,6.414 L251.963,6.414 L251.963,5.771 L250.517,5.771 L250.517,4.702 z" fill="#000000"/>
      <path d="M254.818,6.301 C255.341,6.301 255.656,6.67 255.656,7.279 L253.96,7.279 C253.96,6.667 254.282,6.301 254.818,6.301 z M255.666,8.475 C255.587,8.752 255.269,8.933 254.856,8.933 C254.312,8.933 253.96,8.564 253.96,7.993 L253.96,7.812 L256.428,7.812 L256.428,7.357 C256.428,6.318 255.816,5.672 254.832,5.672 C253.837,5.672 253.178,6.322 253.178,7.303 L253.178,7.887 C253.178,8.954 253.793,9.565 254.859,9.565 C255.697,9.565 256.332,9.118 256.421,8.475 z" fill="#000000"/>
      <path d="M259.087,6.705 L259.087,5.748 L257.518,5.748 L257.518,6.342 L258.318,6.342 L258.318,8.895 L257.59,8.895 L257.59,9.49 L260.198,9.49 L260.198,8.895 L259.083,8.895 L259.083,7.822 C259.083,6.957 259.538,6.486 260.403,6.486 C260.608,6.486 260.854,6.527 261.021,6.592 L261.021,5.727 C260.891,5.676 260.697,5.648 260.485,5.648 C259.774,5.648 259.357,5.983 259.203,6.705 z" fill="#000000"/>
      <path d="M263.306,6.759 L263.816,4.558 L263.012,4.558 L262.585,6.759 z" fill="#000000"/>
      <path d="M272.199,9.548 C273.06,9.548 273.59,8.947 273.59,7.949 L273.59,7.282 C273.59,6.288 273.06,5.683 272.199,5.683 C271.659,5.683 271.276,5.925 271.136,6.359 L271.068,6.359 L271.068,4.302 L270.244,4.302 L270.244,9.49 L271.054,9.49 L271.054,8.875 L271.122,8.875 C271.276,9.312 271.656,9.548 272.199,9.548 z M271.915,8.854 C271.382,8.854 271.047,8.489 271.047,7.901 L271.047,7.316 C271.047,6.725 271.382,6.359 271.915,6.359 C272.449,6.359 272.783,6.728 272.783,7.316 L272.783,7.901 C272.783,8.489 272.449,8.854 271.915,8.854 z" fill="#000000"/>
      <path d="M276.218,6.705 L276.218,5.748 L274.649,5.748 L274.649,6.342 L275.449,6.342 L275.449,8.895 L274.721,8.895 L274.721,9.49 L277.329,9.49 L277.329,8.895 L276.214,8.895 L276.214,7.822 C276.214,6.957 276.669,6.486 277.534,6.486 C277.739,6.486 277.985,6.527 278.152,6.592 L278.152,5.727 C278.023,5.676 277.828,5.648 277.616,5.648 C276.905,5.648 276.488,5.983 276.334,6.705 z" fill="#000000"/>
      <path d="M280.357,9.552 C280.866,9.552 281.266,9.34 281.447,8.967 L281.519,8.967 L281.519,9.49 L282.275,9.49 L282.275,6.94 C282.275,6.141 281.748,5.686 280.822,5.686 C279.981,5.686 279.376,6.113 279.308,6.759 L280.087,6.759 C280.169,6.486 280.436,6.329 280.801,6.329 C281.239,6.329 281.488,6.547 281.488,6.934 L281.488,7.248 L280.552,7.303 C279.656,7.357 279.171,7.754 279.171,8.424 C279.171,9.101 279.646,9.552 280.357,9.552 z M280.613,8.902 C280.214,8.902 279.961,8.701 279.961,8.376 C279.961,8.044 280.203,7.856 280.672,7.829 L281.488,7.785 L281.488,8.126 C281.488,8.578 281.119,8.902 280.613,8.902 z" fill="#000000"/>
      <path d="M283.674,9.49 L284.471,9.49 L284.471,7.31 C284.471,6.742 284.819,6.37 285.353,6.37 C285.865,6.37 286.111,6.657 286.111,7.258 L286.111,9.49 L286.908,9.49 L286.908,7.063 C286.908,6.158 286.467,5.672 285.653,5.672 C285.103,5.672 284.689,5.929 284.498,6.387 L284.443,6.387 L284.443,5.748 L283.674,5.748 z" fill="#000000"/>
      <path d="M291.419,6.995 C291.33,6.137 290.766,5.662 289.85,5.662 C288.78,5.662 288.175,6.288 288.175,7.398 L288.175,7.829 C288.175,8.943 288.78,9.565 289.85,9.565 C290.762,9.565 291.333,9.094 291.419,8.256 L290.639,8.256 C290.571,8.67 290.28,8.895 289.843,8.895 C289.282,8.895 288.975,8.492 288.975,7.757 L288.975,7.47 C288.975,6.735 289.282,6.332 289.843,6.332 C290.277,6.332 290.574,6.568 290.639,6.995 z" fill="#000000"/>
      <path d="M292.641,9.49 L293.434,9.49 L293.434,7.32 C293.434,6.752 293.79,6.376 294.33,6.376 C294.846,6.376 295.096,6.667 295.096,7.265 L295.096,9.49 L295.892,9.49 L295.892,7.07 C295.892,6.171 295.448,5.679 294.631,5.679 C294.077,5.679 293.653,5.939 293.465,6.394 L293.414,6.394 L293.414,4.302 L292.641,4.302 z" fill="#000000"/>
      <path d="M126.535,111.298 C126.346,110.254 125.511,109.638 124.487,109.638 C123.184,109.638 122.24,110.642 122.24,112.253 C122.24,113.864 123.184,114.868 124.487,114.868 C125.511,114.868 126.346,114.251 126.535,113.207 L125.919,113.207 C125.77,113.913 125.163,114.291 124.487,114.291 C123.562,114.291 122.836,113.575 122.836,112.253 C122.836,110.93 123.562,110.214 124.487,110.214 C125.163,110.214 125.77,110.592 125.919,111.298 z" fill="#1A1919"/>
      <path d="M129.117,114.878 C130.151,114.878 130.847,114.092 130.847,112.909 C130.847,111.716 130.151,110.93 129.117,110.93 C128.083,110.93 127.387,111.716 127.387,112.909 C127.387,114.092 128.083,114.878 129.117,114.878 z M129.117,114.351 C128.331,114.351 127.973,113.675 127.973,112.909 C127.973,112.143 128.331,111.457 129.117,111.457 C129.902,111.457 130.26,112.143 130.26,112.909 C130.26,113.675 129.902,114.351 129.117,114.351 z" fill="#1A1919"/>
      <path d="M131.848,114.798 L132.435,114.798 L132.435,112.412 C132.435,111.853 132.843,111.457 133.3,111.457 C133.745,111.457 134.056,111.748 134.056,112.183 L134.056,114.798 L134.652,114.798 L134.652,112.312 C134.652,111.82 134.961,111.457 135.497,111.457 C135.915,111.457 136.273,111.679 136.273,112.243 L136.273,114.798 L136.86,114.798 L136.86,112.243 C136.86,111.345 136.377,110.93 135.696,110.93 C135.149,110.93 134.749,111.181 134.553,111.577 L134.513,111.577 C134.324,111.169 133.991,110.93 133.489,110.93 C132.992,110.93 132.624,111.169 132.465,111.577 L132.415,111.577 L132.415,110.98 L131.848,110.98 z" fill="#1A1919"/>
      <path d="M138.021,114.798 L138.608,114.798 L138.608,112.412 C138.608,111.853 139.015,111.457 139.473,111.457 C139.918,111.457 140.228,111.748 140.228,112.183 L140.228,114.798 L140.825,114.798 L140.825,112.312 C140.825,111.82 141.133,111.457 141.67,111.457 C142.088,111.457 142.446,111.679 142.446,112.243 L142.446,114.798 L143.032,114.798 L143.032,112.243 C143.032,111.345 142.55,110.93 141.869,110.93 C141.322,110.93 140.922,111.181 140.725,111.577 L140.686,111.577 C140.497,111.169 140.164,110.93 139.662,110.93 C139.164,110.93 138.797,111.169 138.637,111.577 L138.588,111.577 L138.588,110.98 L138.021,110.98 z" fill="#1A1919"/>
      <path d="M144.194,114.798 L144.78,114.798 L144.78,110.98 L144.194,110.98 z M144.492,110.354 C144.721,110.354 144.909,110.175 144.909,109.956 C144.909,109.737 144.721,109.558 144.492,109.558 C144.263,109.558 144.074,109.737 144.074,109.956 C144.074,110.175 144.263,110.354 144.492,110.354 z" fill="#1A1919"/>
      <path d="M147.637,110.98 L146.822,110.98 L146.822,110.065 L146.235,110.065 L146.235,110.98 L145.659,110.98 L145.659,111.477 L146.235,111.477 L146.235,113.864 C146.235,114.53 146.772,114.848 147.27,114.848 C147.488,114.848 147.628,114.808 147.707,114.778 L147.588,114.251 C147.538,114.261 147.458,114.281 147.329,114.281 C147.071,114.281 146.822,114.202 146.822,113.704 L146.822,111.477 L147.637,111.477 z" fill="#1A1919"/>
      <path d="M151.9,114.878 C152.746,114.878 153.302,114.361 153.402,113.685 L152.815,113.685 C152.706,114.102 152.358,114.351 151.9,114.351 C151.204,114.351 150.757,113.774 150.757,112.889 C150.757,112.024 151.214,111.457 151.9,111.457 C152.418,111.457 152.726,111.775 152.815,112.123 L153.402,112.123 C153.302,111.408 152.696,110.93 151.891,110.93 C150.856,110.93 150.17,111.746 150.17,112.909 C150.17,114.052 150.827,114.878 151.9,114.878 z" fill="#1A1919"/>
      <path d="M154.946,112.501 C154.946,111.835 155.371,111.457 155.95,111.457 C156.502,111.457 156.835,111.805 156.835,112.412 L156.835,114.798 L157.421,114.798 L157.421,112.372 C157.421,111.39 156.899,110.93 156.119,110.93 C155.517,110.93 155.174,111.181 154.995,111.577 L154.946,111.577 L154.946,109.707 L154.359,109.707 L154.359,114.798 L154.946,114.798 z" fill="#1A1919"/>
      <path d="M159.688,114.888 C160.354,114.888 160.702,114.53 160.822,114.281 L160.851,114.281 L160.851,114.798 L161.438,114.798 L161.438,112.283 C161.438,111.069 160.513,110.93 160.026,110.93 C159.449,110.93 158.793,111.129 158.495,111.825 L159.052,112.024 C159.181,111.746 159.487,111.447 160.046,111.447 C160.59,111.447 160.851,111.738 160.851,112.233 C160.851,112.516 160.563,112.501 159.867,112.591 C159.159,112.683 158.386,112.839 158.386,113.714 C158.386,114.46 158.962,114.888 159.688,114.888 z M159.778,114.361 C159.31,114.361 158.972,114.152 158.972,113.744 C158.972,113.297 159.38,113.158 159.837,113.098 C160.086,113.068 160.752,112.998 160.851,112.879 L160.851,113.416 C160.851,113.893 160.474,114.361 159.778,114.361 z" fill="#1A1919"/>
      <path d="M163.196,112.501 C163.196,111.835 163.608,111.457 164.17,111.457 C164.715,111.457 165.045,111.813 165.045,112.412 L165.045,114.798 L165.632,114.798 L165.632,112.372 C165.632,111.398 165.112,110.93 164.339,110.93 C163.763,110.93 163.405,111.189 163.226,111.577 L163.176,111.577 L163.176,110.98 L162.609,110.98 L162.609,114.798 L163.196,114.798 z" fill="#1A1919"/>
      <path d="M168.308,116.23 C169.193,116.23 169.979,115.812 169.979,114.828 L169.979,110.98 L169.412,110.98 L169.412,111.587 L169.352,111.587 C169.223,111.388 168.984,110.93 168.238,110.93 C167.274,110.93 166.608,111.696 166.608,112.869 C166.608,114.062 167.304,114.739 168.229,114.739 C168.974,114.739 169.213,114.301 169.342,114.092 L169.392,114.092 L169.392,114.768 C169.402,115.405 168.895,115.703 168.308,115.703 C167.652,115.703 167.383,115.325 167.234,115.136 L166.767,115.464 C167.005,115.872 167.493,116.23 168.308,116.23 z M168.308,114.212 C167.572,114.212 167.194,113.655 167.194,112.859 C167.194,112.084 167.562,111.457 168.308,111.457 C169.024,111.457 169.402,112.034 169.402,112.859 C169.402,113.704 169.014,114.212 168.308,114.212 z" fill="#1A1919"/>
      <path d="M172.754,114.878 C173.53,114.878 174.097,114.49 174.275,113.913 L173.709,113.754 C173.56,114.152 173.214,114.351 172.754,114.351 C172.066,114.351 171.591,113.906 171.563,113.088 L174.335,113.088 L174.335,112.839 C174.335,111.418 173.49,110.93 172.695,110.93 C171.66,110.93 170.974,111.746 170.974,112.919 C170.974,114.092 171.65,114.878 172.754,114.878 z M171.563,112.581 C171.603,111.987 172.023,111.457 172.695,111.457 C173.331,111.457 173.739,111.935 173.739,112.581 z" fill="#1A1919"/>
      <path d="M178,111.835 C177.817,111.293 177.404,110.93 176.648,110.93 C175.843,110.93 175.246,111.388 175.246,112.034 C175.246,112.561 175.559,112.914 176.26,113.078 L176.897,113.227 C177.282,113.317 177.464,113.501 177.464,113.764 C177.464,114.092 177.116,114.361 176.569,114.361 C176.089,114.361 175.788,114.154 175.684,113.744 L175.127,113.883 C175.264,114.532 175.798,114.878 176.579,114.878 C177.466,114.878 178.07,114.393 178.07,113.734 C178.07,113.202 177.737,112.867 177.056,112.7 L176.489,112.561 C176.037,112.449 175.833,112.297 175.833,112.004 C175.833,111.676 176.181,111.437 176.648,111.437 C177.16,111.437 177.372,111.721 177.473,111.984 z" fill="#1A1919"/>
      <path d="M212.331,110.98 L212.927,110.98 C212.9,110.212 212.192,109.638 211.207,109.638 C210.233,109.638 209.467,110.204 209.467,111.06 C209.467,111.746 209.964,112.153 210.76,112.382 L211.386,112.561 C211.923,112.71 212.4,112.899 212.4,113.406 C212.4,113.963 211.863,114.331 211.157,114.331 C210.551,114.331 210.014,114.062 209.964,113.486 L209.328,113.486 C209.388,114.321 210.064,114.888 211.157,114.888 C212.331,114.888 212.997,114.241 212.997,113.416 C212.997,112.462 212.092,112.153 211.565,112.014 L211.048,111.875 C210.67,111.775 210.064,111.577 210.064,111.03 C210.064,110.543 210.511,110.185 211.187,110.185 C211.804,110.185 212.271,110.478 212.331,110.98 z" fill="#1A1919"/>
      <path d="M216.437,113.237 C216.437,113.953 215.89,114.281 215.452,114.281 C214.965,114.281 214.617,113.923 214.617,113.366 L214.617,110.98 L214.03,110.98 L214.03,113.406 C214.03,114.381 214.547,114.848 215.263,114.848 C215.84,114.848 216.218,114.54 216.397,114.152 L216.437,114.152 L216.437,114.798 L217.023,114.798 L217.023,110.98 L216.437,110.98 z" fill="#1A1919"/>
      <path d="M218.202,114.798 L218.769,114.798 L218.769,114.212 L218.838,114.212 C218.967,114.42 219.216,114.878 219.952,114.878 C220.906,114.878 221.572,114.112 221.572,112.899 C221.572,111.696 220.906,110.93 219.942,110.93 C219.196,110.93 218.967,111.388 218.838,111.587 L218.788,111.587 L218.788,109.707 L218.202,109.707 z M218.778,112.889 C218.778,112.034 219.156,111.457 219.872,111.457 C220.618,111.457 220.986,112.084 220.986,112.889 C220.986,113.704 220.608,114.351 219.872,114.351 C219.166,114.351 218.778,113.754 218.778,112.889 z" fill="#1A1919"/>
      <path d="M222.576,114.798 L223.163,114.798 L223.163,112.412 C223.163,111.853 223.57,111.457 224.028,111.457 C224.473,111.457 224.783,111.748 224.783,112.183 L224.783,114.798 L225.38,114.798 L225.38,112.312 C225.38,111.82 225.688,111.457 226.225,111.457 C226.643,111.457 227.001,111.679 227.001,112.243 L227.001,114.798 L227.587,114.798 L227.587,112.243 C227.587,111.345 227.105,110.93 226.424,110.93 C225.877,110.93 225.477,111.181 225.281,111.577 L225.241,111.577 C225.052,111.169 224.719,110.93 224.217,110.93 C223.72,110.93 223.352,111.169 223.193,111.577 L223.143,111.577 L223.143,110.98 L222.576,110.98 z" fill="#1A1919"/>
      <path d="M228.749,114.798 L229.336,114.798 L229.336,110.98 L228.749,110.98 z M229.048,110.354 C229.276,110.354 229.465,110.175 229.465,109.956 C229.465,109.737 229.276,109.558 229.048,109.558 C228.819,109.558 228.63,109.737 228.63,109.956 C228.63,110.175 228.819,110.354 229.048,110.354 z" fill="#1A1919"/>
      <path d="M232.201,110.98 L231.386,110.98 L231.386,110.065 L230.799,110.065 L230.799,110.98 L230.222,110.98 L230.222,111.477 L230.799,111.477 L230.799,113.864 C230.799,114.53 231.336,114.848 231.833,114.848 C232.052,114.848 232.191,114.808 232.271,114.778 L232.151,114.251 C232.102,114.261 232.022,114.281 231.893,114.281 C231.634,114.281 231.386,114.202 231.386,113.704 L231.386,111.477 L232.201,111.477 z" fill="#1A1919"/>
      <path d="M234.993,114.798 L235.609,114.798 L235.609,112.939 L236.723,112.939 C237.908,112.939 238.445,112.218 238.443,111.318 C238.445,110.418 237.908,109.707 236.713,109.707 L234.993,109.707 z M235.609,112.392 L235.609,110.254 L236.693,110.254 C237.521,110.254 237.839,110.707 237.836,111.318 C237.839,111.93 237.521,112.392 236.703,112.392 z" fill="#1A1919"/>
      <path d="M241.807,113.237 C241.807,113.953 241.26,114.281 240.822,114.281 C240.335,114.281 239.987,113.923 239.987,113.366 L239.987,110.98 L239.401,110.98 L239.401,113.406 C239.401,114.381 239.918,114.848 240.633,114.848 C241.21,114.848 241.588,114.54 241.767,114.152 L241.807,114.152 L241.807,114.798 L242.393,114.798 L242.393,110.98 L241.807,110.98 z" fill="#1A1919"/>
      <path d="M244.158,109.707 L243.572,109.707 L243.572,114.798 L244.158,114.798 z" fill="#1A1919"/>
      <path d="M245.936,109.707 L245.349,109.707 L245.349,114.798 L245.936,114.798 z" fill="#1A1919"/>
      <path d="M248.913,114.798 L249.53,114.798 L249.53,112.81 L250.773,112.81 L251.847,114.798 L252.562,114.798 L251.409,112.69 C252.055,112.452 252.364,111.915 252.364,111.258 C252.364,110.344 251.767,109.707 250.743,109.707 L248.913,109.707 z M249.53,112.253 L249.53,110.254 L250.713,110.254 C251.389,110.254 251.757,110.632 251.757,111.268 C251.757,111.875 251.409,112.253 250.643,112.253 z" fill="#1A1919"/>
      <path d="M254.97,114.878 C255.745,114.878 256.312,114.49 256.491,113.913 L255.924,113.754 C255.775,114.152 255.43,114.351 254.97,114.351 C254.281,114.351 253.807,113.906 253.779,113.088 L256.551,113.088 L256.551,112.839 C256.551,111.418 255.706,110.93 254.91,110.93 C253.876,110.93 253.19,111.746 253.19,112.919 C253.19,114.092 253.866,114.878 254.97,114.878 z M253.779,112.581 C253.819,111.987 254.239,111.457 254.91,111.457 C255.547,111.457 255.954,111.935 255.954,112.581 z" fill="#1A1919"/>
      <path d="M258.989,114.878 C259.725,114.878 259.973,114.42 260.103,114.212 L260.152,114.212 L260.152,116.23 L260.739,116.23 L260.739,110.98 L260.172,110.98 L260.172,111.587 L260.103,111.587 C259.973,111.388 259.745,110.93 258.999,110.93 C258.035,110.93 257.368,111.696 257.368,112.899 C257.368,114.112 258.035,114.878 258.989,114.878 z M259.069,114.351 C258.333,114.351 257.955,113.704 257.955,112.889 C257.955,112.084 258.323,111.457 259.069,111.457 C259.785,111.457 260.162,112.034 260.162,112.889 C260.162,113.754 259.775,114.351 259.069,114.351 z" fill="#1A1919"/>
      <path d="M264.321,113.237 C264.321,113.953 263.774,114.281 263.337,114.281 C262.849,114.281 262.501,113.923 262.501,113.366 L262.501,110.98 L261.915,110.98 L261.915,113.406 C261.915,114.381 262.432,114.848 263.148,114.848 C263.724,114.848 264.102,114.54 264.281,114.152 L264.321,114.152 L264.321,114.798 L264.908,114.798 L264.908,110.98 L264.321,110.98 z" fill="#1A1919"/>
      <path d="M267.687,114.878 C268.462,114.878 269.029,114.49 269.208,113.913 L268.641,113.754 C268.492,114.152 268.147,114.351 267.687,114.351 C266.998,114.351 266.523,113.906 266.496,113.088 L269.268,113.088 L269.268,112.839 C269.268,111.418 268.423,110.93 267.627,110.93 C266.593,110.93 265.907,111.746 265.907,112.919 C265.907,114.092 266.583,114.878 267.687,114.878 z M266.496,112.581 C266.536,111.987 266.956,111.457 267.627,111.457 C268.263,111.457 268.671,111.935 268.671,112.581 z" fill="#1A1919"/>
      <path d="M272.934,111.835 C272.75,111.293 272.337,110.93 271.582,110.93 C270.776,110.93 270.18,111.388 270.18,112.034 C270.18,112.561 270.493,112.914 271.194,113.078 L271.83,113.227 C272.215,113.317 272.397,113.501 272.397,113.764 C272.397,114.092 272.049,114.361 271.502,114.361 C271.022,114.361 270.721,114.154 270.617,113.744 L270.06,113.883 C270.197,114.532 270.731,114.878 271.512,114.878 C272.399,114.878 273.003,114.393 273.003,113.734 C273.003,113.202 272.67,112.867 271.989,112.7 L271.422,112.561 C270.97,112.449 270.766,112.297 270.766,112.004 C270.766,111.676 271.114,111.437 271.582,111.437 C272.094,111.437 272.305,111.721 272.407,111.984 z" fill="#1A1919"/>
      <path d="M275.676,110.98 L274.861,110.98 L274.861,110.065 L274.274,110.065 L274.274,110.98 L273.697,110.98 L273.697,111.477 L274.274,111.477 L274.274,113.864 C274.274,114.53 274.811,114.848 275.308,114.848 C275.527,114.848 275.666,114.808 275.745,114.778 L275.626,114.251 C275.576,114.261 275.497,114.281 275.368,114.281 C275.109,114.281 274.861,114.202 274.861,113.704 L274.861,111.477 L275.676,111.477 z" fill="#1A1919"/>
      <path d="M304.582,114.798 C306.133,114.798 307.008,113.834 307.008,112.243 C307.008,110.662 306.133,109.707 304.651,109.707 L303.011,109.707 L303.011,114.798 z M303.627,114.251 L303.627,110.254 L304.612,110.254 C305.805,110.254 306.411,111.01 306.411,112.243 C306.411,113.486 305.805,114.251 304.542,114.251 z" fill="#1A1919"/>
      <path d="M308.075,114.798 L308.662,114.798 L308.662,110.98 L308.075,110.98 z M308.374,110.354 C308.602,110.354 308.791,110.175 308.791,109.956 C308.791,109.737 308.602,109.558 308.374,109.558 C308.145,109.558 307.956,109.737 307.956,109.956 C307.956,110.175 308.145,110.354 308.374,110.354 z" fill="#1A1919"/>
      <path d="M312.522,111.835 C312.338,111.293 311.926,110.93 311.17,110.93 C310.365,110.93 309.768,111.388 309.768,112.034 C309.768,112.561 310.081,112.914 310.782,113.078 L311.419,113.227 C311.804,113.317 311.985,113.501 311.985,113.764 C311.985,114.092 311.637,114.361 311.09,114.361 C310.611,114.361 310.31,114.154 310.206,113.744 L309.649,113.883 C309.785,114.532 310.32,114.878 311.1,114.878 C311.988,114.878 312.592,114.393 312.592,113.734 C312.592,113.202 312.259,112.867 311.578,112.7 L311.011,112.561 C310.559,112.449 310.355,112.297 310.355,112.004 C310.355,111.676 310.703,111.437 311.17,111.437 C311.682,111.437 311.893,111.721 311.995,111.984 z" fill="#1A1919"/>
      <path d="M315.106,114.878 C315.951,114.878 316.508,114.361 316.608,113.685 L316.021,113.685 C315.912,114.102 315.564,114.351 315.106,114.351 C314.41,114.351 313.963,113.774 313.963,112.889 C313.963,112.024 314.42,111.457 315.106,111.457 C315.623,111.457 315.931,111.775 316.021,112.123 L316.608,112.123 C316.508,111.408 315.902,110.93 315.096,110.93 C314.062,110.93 313.376,111.746 313.376,112.909 C313.376,114.052 314.032,114.878 315.106,114.878 z" fill="#1A1919"/>
      <path d="M319.944,113.237 C319.944,113.953 319.397,114.281 318.959,114.281 C318.472,114.281 318.124,113.923 318.124,113.366 L318.124,110.98 L317.537,110.98 L317.537,113.406 C317.537,114.381 318.054,114.848 318.77,114.848 C319.347,114.848 319.725,114.54 319.904,114.152 L319.944,114.152 L319.944,114.798 L320.53,114.798 L320.53,110.98 L319.944,110.98 z" fill="#1A1919"/>
      <path d="M324.378,111.835 C324.194,111.293 323.782,110.93 323.026,110.93 C322.221,110.93 321.624,111.388 321.624,112.034 C321.624,112.561 321.937,112.914 322.638,113.078 L323.275,113.227 C323.66,113.317 323.841,113.501 323.841,113.764 C323.841,114.092 323.493,114.361 322.946,114.361 C322.467,114.361 322.166,114.154 322.061,113.744 L321.505,113.883 C321.641,114.532 322.176,114.878 322.956,114.878 C323.844,114.878 324.448,114.393 324.448,113.734 C324.448,113.202 324.115,112.867 323.434,112.7 L322.867,112.561 C322.414,112.449 322.211,112.297 322.211,112.004 C322.211,111.676 322.559,111.437 323.026,111.437 C323.538,111.437 323.749,111.721 323.851,111.984 z" fill="#1A1919"/>
      <path d="M328.136,111.835 C327.953,111.293 327.54,110.93 326.784,110.93 C325.979,110.93 325.382,111.388 325.382,112.034 C325.382,112.561 325.695,112.914 326.396,113.078 L327.033,113.227 C327.418,113.317 327.6,113.501 327.6,113.764 C327.6,114.092 327.252,114.361 326.705,114.361 C326.225,114.361 325.924,114.154 325.82,113.744 L325.263,113.883 C325.4,114.532 325.934,114.878 326.715,114.878 C327.602,114.878 328.206,114.393 328.206,113.734 C328.206,113.202 327.873,112.867 327.192,112.7 L326.625,112.561 C326.173,112.449 325.969,112.297 325.969,112.004 C325.969,111.676 326.317,111.437 326.784,111.437 C327.296,111.437 327.508,111.721 327.609,111.984 z" fill="#1A1919"/>
      <path d="M332.669,114.878 C333.623,114.878 334.289,114.112 334.289,112.899 C334.289,111.696 333.623,110.93 332.659,110.93 C331.913,110.93 331.684,111.388 331.555,111.587 L331.485,111.587 L331.485,110.98 L330.919,110.98 L330.919,116.23 L331.505,116.23 L331.505,114.212 L331.555,114.212 C331.684,114.42 331.933,114.878 332.669,114.878 z M332.589,114.351 C331.883,114.351 331.495,113.754 331.495,112.889 C331.495,112.034 331.873,111.457 332.589,111.457 C333.335,111.457 333.703,112.084 333.703,112.889 C333.703,113.704 333.325,114.351 332.589,114.351 z" fill="#1A1919"/>
      <path d="M335.3,114.798 L335.886,114.798 L335.886,112.382 C335.886,111.867 336.294,111.487 336.851,111.487 C336.998,111.487 337.107,111.514 337.189,111.557 L337.388,111.06 C337.269,110.975 337.112,110.92 336.901,110.92 C336.438,110.92 336.043,111.179 335.906,111.557 L335.867,111.557 L335.867,110.98 L335.3,110.98 z" fill="#1A1919"/>
      <path d="M339.545,114.878 C340.579,114.878 341.275,114.092 341.275,112.909 C341.275,111.716 340.579,110.93 339.545,110.93 C338.511,110.93 337.815,111.716 337.815,112.909 C337.815,114.092 338.511,114.878 339.545,114.878 z M339.545,114.351 C338.76,114.351 338.402,113.675 338.402,112.909 C338.402,112.143 338.76,111.457 339.545,111.457 C340.331,111.457 340.689,112.143 340.689,112.909 C340.689,113.675 340.331,114.351 339.545,114.351 z" fill="#1A1919"/>
      <path d="M344.027,114.878 C344.982,114.878 345.648,114.112 345.648,112.899 C345.648,111.696 344.982,110.93 344.017,110.93 C343.272,110.93 343.043,111.388 342.914,111.587 L342.844,111.587 L342.844,110.98 L342.277,110.98 L342.277,116.23 L342.864,116.23 L342.864,114.212 L342.914,114.212 C343.043,114.42 343.292,114.878 344.027,114.878 z M343.948,114.351 C343.242,114.351 342.854,113.754 342.854,112.889 C342.854,112.034 343.232,111.457 343.948,111.457 C344.694,111.457 345.062,112.084 345.062,112.889 C345.062,113.704 344.684,114.351 343.948,114.351 z" fill="#1A1919"/>
      <path d="M348.203,114.878 C349.237,114.878 349.933,114.092 349.933,112.909 C349.933,111.716 349.237,110.93 348.203,110.93 C347.169,110.93 346.473,111.716 346.473,112.909 C346.473,114.092 347.169,114.878 348.203,114.878 z M348.203,114.351 C347.417,114.351 347.059,113.675 347.059,112.909 C347.059,112.143 347.417,111.457 348.203,111.457 C348.988,111.457 349.346,112.143 349.346,112.909 C349.346,113.675 348.988,114.351 348.203,114.351 z" fill="#1A1919"/>
      <path d="M353.563,111.835 C353.379,111.293 352.966,110.93 352.21,110.93 C351.405,110.93 350.808,111.388 350.808,112.034 C350.808,112.561 351.122,112.914 351.823,113.078 L352.459,113.227 C352.844,113.317 353.026,113.501 353.026,113.764 C353.026,114.092 352.678,114.361 352.131,114.361 C351.651,114.361 351.35,114.154 351.246,113.744 L350.689,113.883 C350.826,114.532 351.36,114.878 352.141,114.878 C353.028,114.878 353.632,114.393 353.632,113.734 C353.632,113.202 353.299,112.867 352.618,112.7 L352.051,112.561 C351.599,112.449 351.395,112.297 351.395,112.004 C351.395,111.676 351.743,111.437 352.21,111.437 C352.722,111.437 352.934,111.721 353.036,111.984 z" fill="#1A1919"/>
      <path d="M356.196,114.878 C356.972,114.878 357.539,114.49 357.717,113.913 L357.151,113.754 C357.002,114.152 356.656,114.351 356.196,114.351 C355.508,114.351 355.033,113.906 355.005,113.088 L357.777,113.088 L357.777,112.839 C357.777,111.418 356.932,110.93 356.137,110.93 C355.102,110.93 354.416,111.746 354.416,112.919 C354.416,114.092 355.092,114.878 356.196,114.878 z M355.005,112.581 C355.045,111.987 355.465,111.457 356.137,111.457 C356.773,111.457 357.181,111.935 357.181,112.581 z" fill="#1A1919"/>
      <path d="M361.958,114.798 L361.958,109.707 L361.372,109.707 L361.372,111.587 L361.322,111.587 C361.193,111.388 360.964,110.93 360.218,110.93 C359.254,110.93 358.588,111.696 358.588,112.899 C358.588,114.112 359.254,114.878 360.208,114.878 C360.944,114.878 361.193,114.42 361.322,114.212 L361.392,114.212 L361.392,114.798 z M361.382,112.889 C361.382,113.754 360.994,114.351 360.288,114.351 C359.552,114.351 359.174,113.704 359.174,112.889 C359.174,112.084 359.542,111.457 360.288,111.457 C361.004,111.457 361.382,112.034 361.382,112.889 z" fill="#1A1919"/>
      <path d="M366.406,114.878 C367.252,114.878 367.808,114.361 367.908,113.685 L367.321,113.685 C367.212,114.102 366.864,114.351 366.406,114.351 C365.71,114.351 365.263,113.774 365.263,112.889 C365.263,112.024 365.72,111.457 366.406,111.457 C366.923,111.457 367.232,111.775 367.321,112.123 L367.908,112.123 C367.808,111.408 367.202,110.93 366.396,110.93 C365.362,110.93 364.676,111.746 364.676,112.909 C364.676,114.052 365.333,114.878 366.406,114.878 z" fill="#1A1919"/>
      <path d="M369.452,112.501 C369.452,111.835 369.877,111.457 370.456,111.457 C371.008,111.457 371.341,111.805 371.341,112.412 L371.341,114.798 L371.928,114.798 L371.928,112.372 C371.928,111.39 371.406,110.93 370.625,110.93 C370.024,110.93 369.681,111.181 369.502,111.577 L369.452,111.577 L369.452,109.707 L368.866,109.707 L368.866,114.798 L369.452,114.798 z" fill="#1A1919"/>
      <path d="M374.195,114.888 C374.862,114.888 375.21,114.53 375.329,114.281 L375.359,114.281 L375.359,114.798 L375.945,114.798 L375.945,112.283 C375.945,111.069 375.021,110.93 374.533,110.93 C373.957,110.93 373.301,111.129 373.002,111.825 L373.559,112.024 C373.688,111.746 373.994,111.447 374.553,111.447 C375.098,111.447 375.359,111.738 375.359,112.233 C375.359,112.516 375.07,112.501 374.374,112.591 C373.666,112.683 372.893,112.839 372.893,113.714 C372.893,114.46 373.47,114.888 374.195,114.888 z M374.285,114.361 C373.818,114.361 373.48,114.152 373.48,113.744 C373.48,113.297 373.887,113.158 374.345,113.098 C374.593,113.068 375.259,112.998 375.359,112.879 L375.359,113.416 C375.359,113.893 374.981,114.361 374.285,114.361 z" fill="#1A1919"/>
      <path d="M377.704,112.501 C377.704,111.835 378.116,111.457 378.678,111.457 C379.223,111.457 379.553,111.813 379.553,112.412 L379.553,114.798 L380.14,114.798 L380.14,112.372 C380.14,111.398 379.62,110.93 378.847,110.93 C378.271,110.93 377.913,111.189 377.734,111.577 L377.684,111.577 L377.684,110.98 L377.117,110.98 L377.117,114.798 L377.704,114.798 z" fill="#1A1919"/>
      <path d="M382.817,116.23 C383.702,116.23 384.487,115.812 384.487,114.828 L384.487,110.98 L383.92,110.98 L383.92,111.587 L383.861,111.587 C383.732,111.388 383.493,110.93 382.747,110.93 C381.783,110.93 381.116,111.696 381.116,112.869 C381.116,114.062 381.812,114.739 382.737,114.739 C383.483,114.739 383.722,114.301 383.851,114.092 L383.901,114.092 L383.901,114.768 C383.91,115.405 383.403,115.703 382.817,115.703 C382.16,115.703 381.892,115.325 381.743,115.136 L381.276,115.464 C381.514,115.872 382.001,116.23 382.817,116.23 z M382.817,114.212 C382.081,114.212 381.703,113.655 381.703,112.859 C381.703,112.084 382.071,111.457 382.817,111.457 C383.533,111.457 383.91,112.034 383.91,112.859 C383.91,113.704 383.523,114.212 382.817,114.212 z" fill="#1A1919"/>
      <path d="M387.264,114.878 C388.039,114.878 388.606,114.49 388.785,113.913 L388.218,113.754 C388.069,114.152 387.723,114.351 387.264,114.351 C386.575,114.351 386.1,113.906 386.073,113.088 L388.845,113.088 L388.845,112.839 C388.845,111.418 387.999,110.93 387.204,110.93 C386.17,110.93 385.484,111.746 385.484,112.919 C385.484,114.092 386.16,114.878 387.264,114.878 z M386.073,112.581 C386.113,111.987 386.533,111.457 387.204,111.457 C387.84,111.457 388.248,111.935 388.248,112.581 z" fill="#1A1919"/>
      <path d="M392.511,111.835 C392.327,111.293 391.914,110.93 391.158,110.93 C390.353,110.93 389.756,111.388 389.756,112.034 C389.756,112.561 390.07,112.914 390.771,113.078 L391.407,113.227 C391.792,113.317 391.974,113.501 391.974,113.764 C391.974,114.092 391.626,114.361 391.079,114.361 C390.599,114.361 390.298,114.154 390.194,113.744 L389.637,113.883 C389.774,114.532 390.308,114.878 391.089,114.878 C391.976,114.878 392.58,114.393 392.58,113.734 C392.58,113.202 392.247,112.867 391.566,112.7 L390.999,112.561 C390.547,112.449 390.343,112.297 390.343,112.004 C390.343,111.676 390.691,111.437 391.158,111.437 C391.67,111.437 391.882,111.721 391.984,111.984 z" fill="#1A1919"/>
      <path d="M307.849,123.288 C308.515,123.288 308.863,122.93 308.982,122.681 L309.012,122.681 L309.012,123.198 L309.599,123.198 L309.599,120.683 C309.599,119.469 308.674,119.33 308.187,119.33 C307.61,119.33 306.954,119.529 306.656,120.225 L307.212,120.424 C307.342,120.146 307.647,119.847 308.207,119.847 C308.751,119.847 309.012,120.138 309.012,120.633 C309.012,120.916 308.724,120.901 308.028,120.991 C307.319,121.083 306.546,121.239 306.546,122.114 C306.546,122.86 307.123,123.288 307.849,123.288 z M307.938,122.761 C307.471,122.761 307.133,122.552 307.133,122.144 C307.133,121.697 307.54,121.558 307.998,121.498 C308.246,121.468 308.913,121.398 309.012,121.279 L309.012,121.816 C309.012,122.293 308.634,122.761 307.938,122.761 z" fill="#1A1919"/>
      <path d="M311.358,120.901 C311.358,120.235 311.77,119.857 312.332,119.857 C312.877,119.857 313.207,120.213 313.207,120.812 L313.207,123.198 L313.794,123.198 L313.794,120.772 C313.794,119.798 313.274,119.33 312.501,119.33 C311.925,119.33 311.567,119.589 311.388,119.977 L311.338,119.977 L311.338,119.38 L310.771,119.38 L310.771,123.198 L311.358,123.198 z" fill="#1A1919"/>
      <path d="M318.156,123.198 L318.156,118.107 L317.569,118.107 L317.569,119.987 L317.52,119.987 C317.39,119.788 317.162,119.33 316.416,119.33 C315.451,119.33 314.785,120.096 314.785,121.299 C314.785,122.512 315.451,123.278 316.406,123.278 C317.142,123.278 317.39,122.82 317.52,122.612 L317.589,122.612 L317.589,123.198 z M317.579,121.289 C317.579,122.154 317.191,122.751 316.485,122.751 C315.75,122.751 315.372,122.104 315.372,121.289 C315.372,120.484 315.74,119.857 316.485,119.857 C317.201,119.857 317.579,120.434 317.579,121.289 z" fill="#1A1919"/>
      <path d="M321.054,123.198 L321.641,123.198 L321.641,120.812 C321.641,120.253 322.048,119.857 322.506,119.857 C322.951,119.857 323.262,120.148 323.262,120.583 L323.262,123.198 L323.858,123.198 L323.858,120.712 C323.858,120.22 324.166,119.857 324.703,119.857 C325.121,119.857 325.479,120.079 325.479,120.643 L325.479,123.198 L326.065,123.198 L326.065,120.643 C326.065,119.745 325.583,119.33 324.902,119.33 C324.355,119.33 323.955,119.581 323.759,119.977 L323.719,119.977 C323.53,119.569 323.197,119.33 322.695,119.33 C322.198,119.33 321.83,119.569 321.671,119.977 L321.621,119.977 L321.621,119.38 L321.054,119.38 z" fill="#1A1919"/>
      <path d="M328.338,123.288 C329.004,123.288 329.352,122.93 329.471,122.681 L329.501,122.681 L329.501,123.198 L330.088,123.198 L330.088,120.683 C330.088,119.469 329.163,119.33 328.676,119.33 C328.099,119.33 327.443,119.529 327.145,120.225 L327.701,120.424 C327.831,120.146 328.136,119.847 328.696,119.847 C329.24,119.847 329.501,120.138 329.501,120.633 C329.501,120.916 329.213,120.901 328.517,120.991 C327.808,121.083 327.035,121.239 327.035,122.114 C327.035,122.86 327.612,123.288 328.338,123.288 z M328.427,122.761 C327.96,122.761 327.622,122.552 327.622,122.144 C327.622,121.697 328.029,121.558 328.487,121.498 C328.735,121.468 329.402,121.398 329.501,121.279 L329.501,121.816 C329.501,122.293 329.123,122.761 328.427,122.761 z" fill="#1A1919"/>
      <path d="M331.26,123.198 L331.847,123.198 L331.847,121.769 L332.257,121.389 L333.686,123.198 L334.432,123.198 L332.699,121.011 L334.313,119.38 L333.587,119.38 L331.916,121.08 L331.847,121.08 L331.847,118.107 L331.26,118.107 z" fill="#1A1919"/>
      <path d="M336.564,123.278 C337.34,123.278 337.906,122.89 338.085,122.313 L337.519,122.154 C337.369,122.552 337.024,122.751 336.564,122.751 C335.875,122.751 335.401,122.306 335.373,121.488 L338.145,121.488 L338.145,121.239 C338.145,119.818 337.3,119.33 336.504,119.33 C335.47,119.33 334.784,120.146 334.784,121.319 C334.784,122.492 335.46,123.278 336.564,123.278 z M335.373,120.981 C335.413,120.387 335.833,119.857 336.504,119.857 C337.141,119.857 337.548,120.335 337.548,120.981 z" fill="#1A1919"/>
      <path d="M340.864,123.198 L341.451,123.198 L341.451,120.812 C341.451,120.253 341.858,119.857 342.316,119.857 C342.761,119.857 343.072,120.148 343.072,120.583 L343.072,123.198 L343.668,123.198 L343.668,120.712 C343.668,120.22 343.976,119.857 344.513,119.857 C344.931,119.857 345.289,120.079 345.289,120.643 L345.289,123.198 L345.875,123.198 L345.875,120.643 C345.875,119.745 345.393,119.33 344.712,119.33 C344.165,119.33 343.765,119.581 343.569,119.977 L343.529,119.977 C343.34,119.569 343.007,119.33 342.505,119.33 C342.008,119.33 341.64,119.569 341.481,119.977 L341.431,119.977 L341.431,119.38 L340.864,119.38 z" fill="#1A1919"/>
      <path d="M348.582,123.278 C349.616,123.278 350.312,122.492 350.312,121.309 C350.312,120.116 349.616,119.33 348.582,119.33 C347.548,119.33 346.852,120.116 346.852,121.309 C346.852,122.492 347.548,123.278 348.582,123.278 z M348.582,122.751 C347.797,122.751 347.439,122.075 347.439,121.309 C347.439,120.543 347.797,119.857 348.582,119.857 C349.368,119.857 349.726,120.543 349.726,121.309 C349.726,122.075 349.368,122.751 348.582,122.751 z" fill="#1A1919"/>
      <path d="M351.315,123.198 L351.902,123.198 L351.902,120.782 C351.902,120.267 352.309,119.887 352.866,119.887 C353.013,119.887 353.122,119.914 353.204,119.957 L353.403,119.46 C353.284,119.375 353.127,119.32 352.916,119.32 C352.454,119.32 352.058,119.579 351.922,119.957 L351.882,119.957 L351.882,119.38 L351.315,119.38 z" fill="#1A1919"/>
      <path d="M355.604,123.278 C356.38,123.278 356.946,122.89 357.125,122.313 L356.559,122.154 C356.409,122.552 356.064,122.751 355.604,122.751 C354.915,122.751 354.441,122.306 354.413,121.488 L357.185,121.488 L357.185,121.239 C357.185,119.818 356.34,119.33 355.544,119.33 C354.51,119.33 353.824,120.146 353.824,121.319 C353.824,122.492 354.5,123.278 355.604,123.278 z M354.413,120.981 C354.453,120.387 354.873,119.857 355.544,119.857 C356.181,119.857 356.588,120.335 356.588,120.981 z" fill="#1A1919"/>
      <path d="M361.455,123.278 C362.3,123.278 362.857,122.761 362.957,122.085 L362.37,122.085 C362.261,122.502 361.913,122.751 361.455,122.751 C360.759,122.751 360.312,122.174 360.312,121.289 C360.312,120.424 360.769,119.857 361.455,119.857 C361.972,119.857 362.281,120.175 362.37,120.523 L362.957,120.523 C362.857,119.808 362.251,119.33 361.445,119.33 C360.411,119.33 359.725,120.146 359.725,121.309 C359.725,122.452 360.381,123.278 361.455,123.278 z" fill="#1A1919"/>
      <path d="M365.445,123.278 C366.479,123.278 367.175,122.492 367.175,121.309 C367.175,120.116 366.479,119.33 365.445,119.33 C364.411,119.33 363.715,120.116 363.715,121.309 C363.715,122.492 364.411,123.278 365.445,123.278 z M365.445,122.751 C364.66,122.751 364.302,122.075 364.302,121.309 C364.302,120.543 364.66,119.857 365.445,119.857 C366.231,119.857 366.589,120.543 366.589,121.309 C366.589,122.075 366.231,122.751 365.445,122.751 z" fill="#1A1919"/>
      <path d="M368.178,123.198 L368.765,123.198 L368.765,120.812 C368.765,120.253 369.172,119.857 369.63,119.857 C370.075,119.857 370.386,120.148 370.386,120.583 L370.386,123.198 L370.982,123.198 L370.982,120.712 C370.982,120.22 371.29,119.857 371.827,119.857 C372.245,119.857 372.603,120.079 372.603,120.643 L372.603,123.198 L373.19,123.198 L373.19,120.643 C373.19,119.745 372.707,119.33 372.026,119.33 C371.479,119.33 371.079,119.581 370.883,119.977 L370.843,119.977 C370.654,119.569 370.321,119.33 369.819,119.33 C369.322,119.33 368.954,119.569 368.795,119.977 L368.745,119.977 L368.745,119.38 L368.178,119.38 z" fill="#1A1919"/>
      <path d="M374.359,123.198 L374.946,123.198 L374.946,120.812 C374.946,120.253 375.353,119.857 375.811,119.857 C376.256,119.857 376.567,120.148 376.567,120.583 L376.567,123.198 L377.163,123.198 L377.163,120.712 C377.163,120.22 377.471,119.857 378.008,119.857 C378.426,119.857 378.784,120.079 378.784,120.643 L378.784,123.198 L379.371,123.198 L379.371,120.643 C379.371,119.745 378.888,119.33 378.207,119.33 C377.66,119.33 377.26,119.581 377.064,119.977 L377.024,119.977 C376.835,119.569 376.502,119.33 376,119.33 C375.503,119.33 375.135,119.569 374.976,119.977 L374.926,119.977 L374.926,119.38 L374.359,119.38 z" fill="#1A1919"/>
      <path d="M380.54,123.198 L381.127,123.198 L381.127,119.38 L380.54,119.38 z M380.838,118.754 C381.067,118.754 381.256,118.575 381.256,118.356 C381.256,118.137 381.067,117.958 380.838,117.958 C380.61,117.958 380.421,118.137 380.421,118.356 C380.421,118.575 380.61,118.754 380.838,118.754 z" fill="#1A1919"/>
      <path d="M383.985,119.38 L383.17,119.38 L383.17,118.465 L382.583,118.465 L382.583,119.38 L382.007,119.38 L382.007,119.877 L382.583,119.877 L382.583,122.264 C382.583,122.93 383.12,123.248 383.618,123.248 C383.836,123.248 383.976,123.208 384.055,123.178 L383.936,122.651 C383.886,122.661 383.806,122.681 383.677,122.681 C383.419,122.681 383.17,122.602 383.17,122.104 L383.17,119.877 L383.985,119.877 z" fill="#1A1919"/>
      <path d="M387.606,120.235 C387.422,119.693 387.009,119.33 386.253,119.33 C385.448,119.33 384.851,119.788 384.851,120.434 C384.851,120.961 385.165,121.314 385.866,121.478 L386.502,121.627 C386.887,121.717 387.069,121.901 387.069,122.164 C387.069,122.492 386.721,122.761 386.174,122.761 C385.694,122.761 385.393,122.554 385.289,122.144 L384.732,122.283 C384.869,122.932 385.403,123.278 386.184,123.278 C387.071,123.278 387.675,122.793 387.675,122.134 C387.675,121.602 387.342,121.267 386.661,121.1 L386.094,120.961 C385.642,120.849 385.438,120.697 385.438,120.404 C385.438,120.076 385.786,119.837 386.253,119.837 C386.765,119.837 386.977,120.121 387.079,120.384 z" fill="#1A1919"/>
      <path d="M74.315,30.238 C74.126,29.194 73.291,28.578 72.267,28.578 C70.964,28.578 70.02,29.582 70.02,31.193 C70.02,32.804 70.964,33.808 72.267,33.808 C73.291,33.808 74.126,33.191 74.315,32.147 L73.699,32.147 C73.55,32.853 72.943,33.231 72.267,33.231 C71.342,33.231 70.616,32.515 70.616,31.193 C70.616,29.87 71.342,29.154 72.267,29.154 C72.943,29.154 73.55,29.532 73.699,30.238 z" fill="#1A1919"/>
      <path d="M75.334,33.738 L75.92,33.738 L75.92,31.322 C75.92,30.807 76.328,30.427 76.885,30.427 C77.032,30.427 77.141,30.454 77.223,30.497 L77.422,30 C77.303,29.915 77.146,29.86 76.935,29.86 C76.472,29.86 76.077,30.119 75.94,30.497 L75.901,30.497 L75.901,29.92 L75.334,29.92 z" fill="#1A1919"/>
      <path d="M79.623,33.818 C80.399,33.818 80.966,33.43 81.145,32.853 L80.578,32.694 C80.429,33.092 80.083,33.291 79.623,33.291 C78.935,33.291 78.46,32.846 78.433,32.028 L81.204,32.028 L81.204,31.779 C81.204,30.358 80.359,29.87 79.564,29.87 C78.53,29.87 77.844,30.686 77.844,31.859 C77.844,33.032 78.52,33.818 79.623,33.818 z M78.433,31.521 C78.472,30.927 78.893,30.397 79.564,30.397 C80.2,30.397 80.608,30.875 80.608,31.521 z" fill="#1A1919"/>
      <path d="M83.291,33.828 C83.957,33.828 84.305,33.47 84.424,33.221 L84.454,33.221 L84.454,33.738 L85.041,33.738 L85.041,31.223 C85.041,30.009 84.116,29.87 83.629,29.87 C83.052,29.87 82.396,30.069 82.098,30.765 L82.654,30.964 C82.784,30.686 83.089,30.387 83.649,30.387 C84.193,30.387 84.454,30.678 84.454,31.173 C84.454,31.456 84.166,31.441 83.47,31.531 C82.761,31.623 81.988,31.779 81.988,32.654 C81.988,33.4 82.565,33.828 83.291,33.828 z M83.38,33.301 C82.913,33.301 82.575,33.092 82.575,32.684 C82.575,32.237 82.983,32.098 83.44,32.038 C83.689,32.008 84.355,31.938 84.454,31.819 L84.454,32.356 C84.454,32.833 84.076,33.301 83.38,33.301 z" fill="#1A1919"/>
      <path d="M87.832,29.92 L87.017,29.92 L87.017,29.005 L86.43,29.005 L86.43,29.92 L85.854,29.92 L85.854,30.417 L86.43,30.417 L86.43,32.804 C86.43,33.47 86.967,33.788 87.464,33.788 C87.683,33.788 87.822,33.748 87.902,33.718 L87.783,33.191 C87.733,33.201 87.653,33.221 87.524,33.221 C87.265,33.221 87.017,33.142 87.017,32.644 L87.017,30.417 L87.832,30.417 z" fill="#1A1919"/>
      <path d="M90.244,33.818 C91.02,33.818 91.587,33.43 91.766,32.853 L91.199,32.694 C91.05,33.092 90.704,33.291 90.244,33.291 C89.556,33.291 89.081,32.846 89.054,32.028 L91.825,32.028 L91.825,31.779 C91.825,30.358 90.98,29.87 90.185,29.87 C89.151,29.87 88.465,30.686 88.465,31.859 C88.465,33.032 89.141,33.818 90.244,33.818 z M89.054,31.521 C89.094,30.927 89.514,30.397 90.185,30.397 C90.821,30.397 91.229,30.875 91.229,31.521 z" fill="#1A1919"/>
      <path d="M96.076,28.806 L95.567,31.007 L96.37,31.007 L96.797,28.806 z" fill="#1A1919"/>
      <path d="M99.297,33.738 L100.09,33.738 L100.09,30.662 L101.642,30.662 L101.642,30.019 L100.077,30.019 L100.077,29.667 C100.077,29.35 100.292,29.185 100.709,29.185 C100.846,29.185 101.536,29.196 101.642,29.206 L101.642,28.608 C101.563,28.598 100.832,28.584 100.692,28.584 C99.714,28.584 99.297,28.912 99.297,29.708 L99.297,30.019 L98.296,30.019 L98.296,30.662 L99.297,30.662 z" fill="#1A1919"/>
      <path d="M104.301,30.549 C104.824,30.549 105.138,30.918 105.138,31.527 L103.443,31.527 C103.443,30.915 103.764,30.549 104.301,30.549 z M105.148,32.723 C105.07,33 104.752,33.181 104.338,33.181 C103.795,33.181 103.443,32.812 103.443,32.241 L103.443,32.06 L105.911,32.06 L105.911,31.605 C105.911,30.566 105.299,29.92 104.314,29.92 C103.32,29.92 102.66,30.57 102.66,31.551 L102.66,32.135 C102.66,33.202 103.275,33.813 104.342,33.813 C105.179,33.813 105.815,33.366 105.904,32.723 z" fill="#1A1919"/>
      <path d="M108.207,33.8 C108.717,33.8 109.117,33.588 109.298,33.215 L109.37,33.215 L109.37,33.738 L110.125,33.738 L110.125,31.188 C110.125,30.389 109.599,29.934 108.672,29.934 C107.832,29.934 107.227,30.361 107.158,31.007 L107.937,31.007 C108.02,30.734 108.286,30.577 108.652,30.577 C109.089,30.577 109.339,30.795 109.339,31.182 L109.339,31.496 L108.402,31.551 C107.507,31.605 107.021,32.002 107.021,32.672 C107.021,33.349 107.497,33.8 108.207,33.8 z M108.464,33.15 C108.064,33.15 107.811,32.949 107.811,32.624 C107.811,32.292 108.054,32.104 108.522,32.077 L109.339,32.033 L109.339,32.374 C109.339,32.826 108.97,33.15 108.464,33.15 z" fill="#1A1919"/>
      <path d="M112.267,28.95 L112.267,30.019 L111.283,30.019 L111.283,30.662 L112.267,30.662 L112.267,32.583 C112.267,33.413 112.674,33.748 113.658,33.748 C113.771,33.748 114.4,33.738 114.461,33.728 L114.461,33.092 C114.396,33.099 113.856,33.102 113.72,33.102 C113.296,33.102 113.06,32.918 113.06,32.586 L113.06,30.662 L114.492,30.662 L114.492,30.019 L113.046,30.019 L113.046,28.95 z" fill="#1A1919"/>
      <path d="M118.931,29.996 L118.134,29.996 L118.134,32.176 C118.134,32.744 117.786,33.113 117.253,33.113 C116.74,33.113 116.494,32.829 116.494,32.227 L116.494,29.996 L115.697,29.996 L115.697,32.419 C115.697,33.328 116.138,33.813 116.952,33.813 C117.502,33.813 117.916,33.557 118.107,33.099 L118.162,33.099 L118.162,33.738 L118.931,33.738 z" fill="#1A1919"/>
      <path d="M121.62,30.953 L121.62,29.996 L120.051,29.996 L120.051,30.59 L120.851,30.59 L120.851,33.143 L120.123,33.143 L120.123,33.738 L122.731,33.738 L122.731,33.143 L121.617,33.143 L121.617,32.07 C121.617,31.205 122.071,30.734 122.936,30.734 C123.141,30.734 123.387,30.775 123.555,30.84 L123.555,29.975 C123.425,29.924 123.23,29.896 123.018,29.896 C122.307,29.896 121.89,30.231 121.736,30.953 z" fill="#1A1919"/>
      <path d="M126.189,30.549 C126.712,30.549 127.027,30.918 127.027,31.527 L125.331,31.527 C125.331,30.915 125.652,30.549 126.189,30.549 z M127.037,32.723 C126.958,33 126.64,33.181 126.227,33.181 C125.683,33.181 125.331,32.812 125.331,32.241 L125.331,32.06 L127.799,32.06 L127.799,31.605 C127.799,30.566 127.187,29.92 126.203,29.92 C125.208,29.92 124.548,30.57 124.548,31.551 L124.548,32.135 C124.548,33.202 125.164,33.813 126.23,33.813 C127.068,33.813 127.703,33.366 127.792,32.723 z" fill="#1A1919"/>
      <path d="M130.065,31.007 L130.574,28.806 L129.771,28.806 L129.344,31.007 z" fill="#1A1919"/>
      <path d="M134.49,33.738 L135.057,33.738 L135.057,33.152 L135.127,33.152 C135.256,33.36 135.504,33.818 136.24,33.818 C137.195,33.818 137.861,33.052 137.861,31.839 C137.861,30.636 137.195,29.87 136.23,29.87 C135.484,29.87 135.256,30.328 135.127,30.527 L135.077,30.527 L135.077,28.647 L134.49,28.647 z M135.067,31.829 C135.067,30.974 135.445,30.397 136.161,30.397 C136.906,30.397 137.274,31.024 137.274,31.829 C137.274,32.644 136.896,33.291 136.161,33.291 C135.455,33.291 135.067,32.694 135.067,31.829 z" fill="#1A1919"/>
      <path d="M138.865,33.738 L139.452,33.738 L139.452,31.322 C139.452,30.807 139.859,30.427 140.416,30.427 C140.563,30.427 140.672,30.454 140.754,30.497 L140.953,30 C140.834,29.915 140.677,29.86 140.466,29.86 C140.004,29.86 139.608,30.119 139.472,30.497 L139.432,30.497 L139.432,29.92 L138.865,29.92 z" fill="#1A1919"/>
      <path d="M142.747,33.828 C143.413,33.828 143.761,33.47 143.88,33.221 L143.91,33.221 L143.91,33.738 L144.497,33.738 L144.497,31.223 C144.497,30.009 143.572,29.87 143.085,29.87 C142.508,29.87 141.852,30.069 141.554,30.765 L142.11,30.964 C142.24,30.686 142.545,30.387 143.105,30.387 C143.649,30.387 143.91,30.678 143.91,31.173 C143.91,31.456 143.622,31.441 142.926,31.531 C142.217,31.623 141.444,31.779 141.444,32.654 C141.444,33.4 142.021,33.828 142.747,33.828 z M142.836,33.301 C142.369,33.301 142.031,33.092 142.031,32.684 C142.031,32.237 142.438,32.098 142.896,32.038 C143.144,32.008 143.811,31.938 143.91,31.819 L143.91,32.356 C143.91,32.833 143.532,33.301 142.836,33.301 z" fill="#1A1919"/>
      <path d="M146.256,31.441 C146.256,30.775 146.668,30.397 147.23,30.397 C147.775,30.397 148.105,30.753 148.105,31.352 L148.105,33.738 L148.692,33.738 L148.692,31.312 C148.692,30.338 148.172,29.87 147.399,29.87 C146.823,29.87 146.465,30.129 146.286,30.517 L146.236,30.517 L146.236,29.92 L145.669,29.92 L145.669,33.738 L146.256,33.738 z" fill="#1A1919"/>
      <path d="M151.413,33.818 C152.258,33.818 152.815,33.301 152.915,32.625 L152.328,32.625 C152.219,33.042 151.871,33.291 151.413,33.291 C150.717,33.291 150.27,32.714 150.27,31.829 C150.27,30.964 150.727,30.397 151.413,30.397 C151.93,30.397 152.239,30.715 152.328,31.063 L152.915,31.063 C152.815,30.348 152.209,29.87 151.403,29.87 C150.369,29.87 149.683,30.686 149.683,31.849 C149.683,32.992 150.339,33.818 151.413,33.818 z" fill="#1A1919"/>
      <path d="M154.46,31.441 C154.46,30.775 154.885,30.397 155.464,30.397 C156.016,30.397 156.349,30.745 156.349,31.352 L156.349,33.738 L156.936,33.738 L156.936,31.312 C156.936,30.33 156.414,29.87 155.633,29.87 C155.032,29.87 154.688,30.121 154.51,30.517 L154.46,30.517 L154.46,28.647 L153.873,28.647 L153.873,33.738 L154.46,33.738 z" fill="#1A1919"/>
      <path d="M161.537,29.92 L160.682,29.92 L160.682,29.532 C160.682,29.154 160.841,28.956 161.229,28.956 C161.398,28.956 161.498,28.995 161.557,29.015 L161.726,28.508 C161.637,28.468 161.458,28.409 161.17,28.409 C160.623,28.409 160.096,28.737 160.096,29.393 L160.096,29.92 L159.479,29.92 L159.479,30.417 L160.096,30.417 L160.096,33.738 L160.682,33.738 L160.682,30.417 L161.537,30.417 z" fill="#1A1919"/>
      <path d="M162.42,33.738 L163.007,33.738 L163.007,31.322 C163.007,30.807 163.414,30.427 163.971,30.427 C164.118,30.427 164.227,30.454 164.309,30.497 L164.508,30 C164.389,29.915 164.232,29.86 164.021,29.86 C163.559,29.86 163.163,30.119 163.027,30.497 L162.987,30.497 L162.987,29.92 L162.42,29.92 z" fill="#1A1919"/>
      <path d="M166.666,33.818 C167.7,33.818 168.396,33.032 168.396,31.849 C168.396,30.656 167.7,29.87 166.666,29.87 C165.632,29.87 164.936,30.656 164.936,31.849 C164.936,33.032 165.632,33.818 166.666,33.818 z M166.666,33.291 C165.881,33.291 165.523,32.615 165.523,31.849 C165.523,31.083 165.881,30.397 166.666,30.397 C167.452,30.397 167.81,31.083 167.81,31.849 C167.81,32.615 167.452,33.291 166.666,33.291 z" fill="#1A1919"/>
      <path d="M169.399,33.738 L169.986,33.738 L169.986,31.352 C169.986,30.793 170.393,30.397 170.851,30.397 C171.296,30.397 171.607,30.688 171.607,31.123 L171.607,33.738 L172.203,33.738 L172.203,31.252 C172.203,30.76 172.511,30.397 173.048,30.397 C173.466,30.397 173.824,30.619 173.824,31.183 L173.824,33.738 L174.411,33.738 L174.411,31.183 C174.411,30.285 173.928,29.87 173.247,29.87 C172.7,29.87 172.3,30.121 172.104,30.517 L172.064,30.517 C171.875,30.109 171.542,29.87 171.04,29.87 C170.543,29.87 170.175,30.109 170.016,30.517 L169.966,30.517 L169.966,29.92 L169.399,29.92 z" fill="#1A1919"/>
      <path d="M178.822,28.806 L178.313,31.007 L179.116,31.007 L179.543,28.806 z" fill="#1A1919"/>
      <path d="M184.662,30.894 C184.662,30.259 184.406,29.92 183.92,29.92 C183.555,29.92 183.278,30.153 183.192,30.536 L183.107,30.536 C183.028,30.142 182.789,29.92 182.44,29.92 C182.081,29.92 181.818,30.149 181.733,30.556 L181.647,30.556 L181.647,29.996 L180.95,29.996 L180.95,33.738 L181.634,33.738 L181.634,31.185 C181.634,30.833 181.805,30.611 182.071,30.611 C182.328,30.611 182.471,30.802 182.471,31.147 L182.471,33.738 L183.151,33.738 L183.151,31.185 C183.151,30.833 183.315,30.611 183.579,30.611 C183.831,30.611 183.978,30.806 183.978,31.147 L183.978,33.738 L184.662,33.738 z" fill="#1A1919"/>
      <path d="M186.867,33.8 C187.376,33.8 187.776,33.588 187.957,33.215 L188.029,33.215 L188.029,33.738 L188.784,33.738 L188.784,31.188 C188.784,30.389 188.258,29.934 187.331,29.934 C186.491,29.934 185.886,30.361 185.817,31.007 L186.596,31.007 C186.679,30.734 186.945,30.577 187.311,30.577 C187.748,30.577 187.998,30.795 187.998,31.182 L187.998,31.496 L187.061,31.551 C186.166,31.605 185.68,32.002 185.68,32.672 C185.68,33.349 186.156,33.8 186.867,33.8 z M187.123,33.15 C186.723,33.15 186.47,32.949 186.47,32.624 C186.47,32.292 186.713,32.104 187.181,32.077 L187.998,32.033 L187.998,32.374 C187.998,32.826 187.629,33.15 187.123,33.15 z" fill="#1A1919"/>
      <path d="M190.142,31.055 C190.142,31.612 190.491,31.968 191.181,32.121 L191.742,32.245 C192.169,32.337 192.326,32.463 192.326,32.709 C192.326,33 192.053,33.191 191.619,33.191 C191.195,33.191 190.911,33.024 190.843,32.73 L190.053,32.73 C190.108,33.407 190.689,33.813 191.605,33.813 C192.545,33.813 193.143,33.345 193.143,32.617 C193.143,32.057 192.811,31.739 192.063,31.578 L191.506,31.458 C191.099,31.37 190.928,31.233 190.928,30.994 C190.928,30.713 191.191,30.529 191.591,30.529 C191.977,30.529 192.247,30.703 192.302,30.983 L193.054,30.983 C193.003,30.31 192.459,29.913 191.602,29.913 C190.716,29.913 190.142,30.358 190.142,31.055 z" fill="#1A1919"/>
      <path d="M195.21,28.95 L195.21,30.019 L194.226,30.019 L194.226,30.662 L195.21,30.662 L195.21,32.583 C195.21,33.413 195.617,33.748 196.601,33.748 C196.714,33.748 197.343,33.738 197.404,33.728 L197.404,33.092 C197.339,33.099 196.799,33.102 196.663,33.102 C196.239,33.102 196.003,32.918 196.003,32.586 L196.003,30.662 L197.435,30.662 L197.435,30.019 L195.989,30.019 L195.989,28.95 z" fill="#1A1919"/>
      <path d="M200.221,30.549 C200.744,30.549 201.059,30.918 201.059,31.527 L199.363,31.527 C199.363,30.915 199.684,30.549 200.221,30.549 z M201.069,32.723 C200.99,33 200.672,33.181 200.259,33.181 C199.715,33.181 199.363,32.812 199.363,32.241 L199.363,32.06 L201.831,32.06 L201.831,31.605 C201.831,30.566 201.219,29.92 200.235,29.92 C199.24,29.92 198.58,30.57 198.58,31.551 L198.58,32.135 C198.58,33.202 199.196,33.813 200.262,33.813 C201.1,33.813 201.735,33.366 201.824,32.723 z" fill="#1A1919"/>
      <path d="M204.421,30.953 L204.421,29.996 L202.852,29.996 L202.852,30.59 L203.652,30.59 L203.652,33.143 L202.924,33.143 L202.924,33.738 L205.532,33.738 L205.532,33.143 L204.418,33.143 L204.418,32.07 C204.418,31.205 204.872,30.734 205.737,30.734 C205.942,30.734 206.188,30.775 206.356,30.84 L206.356,29.975 C206.226,29.924 206.031,29.896 205.819,29.896 C205.108,29.896 204.691,30.231 204.537,30.953 z" fill="#1A1919"/>
      <path d="M208.567,31.007 L209.076,28.806 L208.273,28.806 L207.846,31.007 z" fill="#1A1919"/>
      <path d="M327.014,28.647 L327.014,33.738 L327.59,33.738 L327.59,29.87 L327.64,29.87 L329.231,33.738 L329.788,33.738 L331.379,29.87 L331.428,29.87 L331.428,33.738 L332.005,33.738 L332.005,28.647 L331.269,28.647 L329.539,32.873 L329.48,32.873 L327.749,28.647 z" fill="#1A1919"/>
      <path d="M334.874,33.818 C335.65,33.818 336.217,33.43 336.396,32.853 L335.829,32.694 C335.68,33.092 335.334,33.291 334.874,33.291 C334.186,33.291 333.711,32.846 333.684,32.028 L336.455,32.028 L336.455,31.779 C336.455,30.358 335.61,29.87 334.815,29.87 C333.78,29.87 333.094,30.686 333.094,31.859 C333.094,33.032 333.771,33.818 334.874,33.818 z M333.684,31.521 C333.723,30.927 334.143,30.397 334.815,30.397 C335.451,30.397 335.859,30.875 335.859,31.521 z" fill="#1A1919"/>
      <path d="M337.457,33.738 L338.043,33.738 L338.043,31.322 C338.043,30.807 338.451,30.427 339.008,30.427 C339.154,30.427 339.264,30.454 339.346,30.497 L339.545,30 C339.425,29.915 339.269,29.86 339.057,29.86 C338.595,29.86 338.2,30.119 338.063,30.497 L338.023,30.497 L338.023,29.92 L337.457,29.92 z" fill="#1A1919"/>
      <path d="M341.677,35.17 C342.562,35.17 343.348,34.752 343.348,33.768 L343.348,29.92 L342.781,29.92 L342.781,30.527 L342.721,30.527 C342.592,30.328 342.353,29.87 341.607,29.87 C340.643,29.87 339.977,30.636 339.977,31.809 C339.977,33.002 340.673,33.679 341.598,33.679 C342.343,33.679 342.582,33.241 342.711,33.032 L342.761,33.032 L342.761,33.708 C342.771,34.345 342.264,34.643 341.677,34.643 C341.021,34.643 340.752,34.265 340.603,34.076 L340.136,34.404 C340.374,34.812 340.862,35.17 341.677,35.17 z M341.677,33.152 C340.941,33.152 340.563,32.595 340.563,31.799 C340.563,31.024 340.931,30.397 341.677,30.397 C342.393,30.397 342.771,30.974 342.771,31.799 C342.771,32.644 342.383,33.152 341.677,33.152 z" fill="#1A1919"/>
      <path d="M346.122,33.818 C346.897,33.818 347.464,33.43 347.643,32.853 L347.076,32.694 C346.927,33.092 346.582,33.291 346.122,33.291 C345.433,33.291 344.958,32.846 344.931,32.028 L347.703,32.028 L347.703,31.779 C347.703,30.358 346.858,29.87 346.062,29.87 C345.028,29.87 344.342,30.686 344.342,31.859 C344.342,33.032 345.018,33.818 346.122,33.818 z M344.931,31.521 C344.971,30.927 345.391,30.397 346.062,30.397 C346.698,30.397 347.106,30.875 347.106,31.521 z" fill="#1A1919"/>
      <path d="M351.954,28.806 L351.445,31.007 L352.248,31.007 L352.675,28.806 z" fill="#1A1919"/>
      <path d="M355.176,33.738 L355.969,33.738 L355.969,30.662 L357.521,30.662 L357.521,30.019 L355.955,30.019 L355.955,29.667 C355.955,29.35 356.171,29.185 356.588,29.185 C356.724,29.185 357.415,29.196 357.521,29.206 L357.521,28.608 C357.442,28.598 356.711,28.584 356.571,28.584 C355.593,28.584 355.176,28.912 355.176,29.708 L355.176,30.019 L354.175,30.019 L354.175,30.662 L355.176,30.662 z" fill="#1A1919"/>
      <path d="M360.179,30.549 C360.702,30.549 361.016,30.918 361.016,31.527 L359.321,31.527 C359.321,30.915 359.642,30.549 360.179,30.549 z M361.026,32.723 C360.948,33 360.63,33.181 360.216,33.181 C359.673,33.181 359.321,32.812 359.321,32.241 L359.321,32.06 L361.789,32.06 L361.789,31.605 C361.789,30.566 361.177,29.92 360.192,29.92 C359.198,29.92 358.538,30.57 358.538,31.551 L358.538,32.135 C358.538,33.202 359.153,33.813 360.22,33.813 C361.057,33.813 361.693,33.366 361.782,32.723 z" fill="#1A1919"/>
      <path d="M364.086,33.8 C364.595,33.8 364.995,33.588 365.176,33.215 L365.248,33.215 L365.248,33.738 L366.003,33.738 L366.003,31.188 C366.003,30.389 365.477,29.934 364.55,29.934 C363.71,29.934 363.105,30.361 363.036,31.007 L363.815,31.007 C363.898,30.734 364.164,30.577 364.53,30.577 C364.967,30.577 365.217,30.795 365.217,31.182 L365.217,31.496 L364.28,31.551 C363.385,31.605 362.899,32.002 362.899,32.672 C362.899,33.349 363.375,33.8 364.086,33.8 z M364.342,33.15 C363.942,33.15 363.689,32.949 363.689,32.624 C363.689,32.292 363.932,32.104 364.4,32.077 L365.217,32.033 L365.217,32.374 C365.217,32.826 364.848,33.15 364.342,33.15 z" fill="#1A1919"/>
      <path d="M368.145,28.95 L368.145,30.019 L367.161,30.019 L367.161,30.662 L368.145,30.662 L368.145,32.583 C368.145,33.413 368.552,33.748 369.536,33.748 C369.649,33.748 370.278,33.738 370.339,33.728 L370.339,33.092 C370.274,33.099 369.734,33.102 369.598,33.102 C369.174,33.102 368.938,32.918 368.938,32.586 L368.938,30.662 L370.37,30.662 L370.37,30.019 L368.924,30.019 L368.924,28.95 z" fill="#1A1919"/>
      <path d="M374.809,29.996 L374.012,29.996 L374.012,32.176 C374.012,32.744 373.664,33.113 373.131,33.113 C372.618,33.113 372.372,32.829 372.372,32.227 L372.372,29.996 L371.575,29.996 L371.575,32.419 C371.575,33.328 372.016,33.813 372.83,33.813 C373.38,33.813 373.794,33.557 373.985,33.099 L374.04,33.099 L374.04,33.738 L374.809,33.738 z" fill="#1A1919"/>
      <path d="M377.499,30.953 L377.499,29.996 L375.93,29.996 L375.93,30.59 L376.73,30.59 L376.73,33.143 L376.002,33.143 L376.002,33.738 L378.61,33.738 L378.61,33.143 L377.495,33.143 L377.495,32.07 C377.495,31.205 377.95,30.734 378.815,30.734 C379.02,30.734 379.266,30.775 379.433,30.84 L379.433,29.975 C379.303,29.924 379.109,29.896 378.897,29.896 C378.186,29.896 377.769,30.231 377.615,30.953 z" fill="#1A1919"/>
      <path d="M382.068,30.549 C382.591,30.549 382.905,30.918 382.905,31.527 L381.21,31.527 C381.21,30.915 381.531,30.549 382.068,30.549 z M382.915,32.723 C382.837,33 382.519,33.181 382.105,33.181 C381.562,33.181 381.21,32.812 381.21,32.241 L381.21,32.06 L383.678,32.06 L383.678,31.605 C383.678,30.566 383.066,29.92 382.081,29.92 C381.087,29.92 380.427,30.57 380.427,31.551 L380.427,32.135 C380.427,33.202 381.042,33.813 382.109,33.813 C382.946,33.813 383.582,33.366 383.671,32.723 z" fill="#1A1919"/>
      <path d="M385.943,31.007 L386.452,28.806 L385.649,28.806 L385.222,31.007 z" fill="#1A1919"/>
      <path d="M390.368,33.738 L390.935,33.738 L390.935,33.152 L391.005,33.152 C391.134,33.36 391.382,33.818 392.118,33.818 C393.073,33.818 393.739,33.052 393.739,31.839 C393.739,30.636 393.073,29.87 392.108,29.87 C391.362,29.87 391.134,30.328 391.005,30.527 L390.955,30.527 L390.955,28.647 L390.368,28.647 z M390.945,31.829 C390.945,30.974 391.323,30.397 392.039,30.397 C392.784,30.397 393.152,31.024 393.152,31.829 C393.152,32.644 392.774,33.291 392.039,33.291 C391.333,33.291 390.945,32.694 390.945,31.829 z" fill="#1A1919"/>
      <path d="M394.743,33.738 L395.33,33.738 L395.33,31.322 C395.33,30.807 395.737,30.427 396.294,30.427 C396.441,30.427 396.55,30.454 396.632,30.497 L396.831,30 C396.712,29.915 396.555,29.86 396.344,29.86 C395.882,29.86 395.486,30.119 395.35,30.497 L395.31,30.497 L395.31,29.92 L394.743,29.92 z" fill="#1A1919"/>
      <path d="M398.625,33.828 C399.291,33.828 399.639,33.47 399.758,33.221 L399.788,33.221 L399.788,33.738 L400.375,33.738 L400.375,31.223 C400.375,30.009 399.45,29.87 398.963,29.87 C398.386,29.87 397.73,30.069 397.432,30.765 L397.988,30.964 C398.118,30.686 398.423,30.387 398.983,30.387 C399.527,30.387 399.788,30.678 399.788,31.173 C399.788,31.456 399.5,31.441 398.804,31.531 C398.095,31.623 397.322,31.779 397.322,32.654 C397.322,33.4 397.899,33.828 398.625,33.828 z M398.714,33.301 C398.247,33.301 397.909,33.092 397.909,32.684 C397.909,32.237 398.316,32.098 398.774,32.038 C399.022,32.008 399.689,31.938 399.788,31.819 L399.788,32.356 C399.788,32.833 399.41,33.301 398.714,33.301 z" fill="#1A1919"/>
      <path d="M402.134,31.441 C402.134,30.775 402.546,30.397 403.108,30.397 C403.653,30.397 403.983,30.753 403.983,31.352 L403.983,33.738 L404.57,33.738 L404.57,31.312 C404.57,30.338 404.05,29.87 403.277,29.87 C402.701,29.87 402.343,30.129 402.164,30.517 L402.114,30.517 L402.114,29.92 L401.547,29.92 L401.547,33.738 L402.134,33.738 z" fill="#1A1919"/>
      <path d="M407.291,33.818 C408.136,33.818 408.693,33.301 408.793,32.625 L408.206,32.625 C408.097,33.042 407.749,33.291 407.291,33.291 C406.595,33.291 406.148,32.714 406.148,31.829 C406.148,30.964 406.605,30.397 407.291,30.397 C407.808,30.397 408.117,30.715 408.206,31.063 L408.793,31.063 C408.693,30.348 408.087,29.87 407.281,29.87 C406.247,29.87 405.561,30.686 405.561,31.849 C405.561,32.992 406.217,33.818 407.291,33.818 z" fill="#1A1919"/>
      <path d="M410.338,31.441 C410.338,30.775 410.763,30.397 411.342,30.397 C411.894,30.397 412.227,30.745 412.227,31.352 L412.227,33.738 L412.814,33.738 L412.814,31.312 C412.814,30.33 412.292,29.87 411.511,29.87 C410.91,29.87 410.566,30.121 410.388,30.517 L410.338,30.517 L410.338,28.647 L409.751,28.647 L409.751,33.738 L410.338,33.738 z" fill="#1A1919"/>
      <path d="M415.715,33.738 L416.302,33.738 L416.302,29.92 L415.715,29.92 z M416.013,29.294 C416.242,29.294 416.431,29.115 416.431,28.896 C416.431,28.677 416.242,28.498 416.013,28.498 C415.785,28.498 415.596,28.677 415.596,28.896 C415.596,29.115 415.785,29.294 416.013,29.294 z" fill="#1A1919"/>
      <path d="M418.087,31.441 C418.087,30.775 418.499,30.397 419.061,30.397 C419.606,30.397 419.936,30.753 419.936,31.352 L419.936,33.738 L420.523,33.738 L420.523,31.312 C420.523,30.338 420.003,29.87 419.23,29.87 C418.654,29.87 418.296,30.129 418.117,30.517 L418.067,30.517 L418.067,29.92 L417.5,29.92 L417.5,33.738 L418.087,33.738 z" fill="#1A1919"/>
      <path d="M423.311,29.92 L422.496,29.92 L422.496,29.005 L421.909,29.005 L421.909,29.92 L421.333,29.92 L421.333,30.417 L421.909,30.417 L421.909,32.804 C421.909,33.47 422.446,33.788 422.944,33.788 C423.162,33.788 423.302,33.748 423.381,33.718 L423.262,33.191 C423.212,33.201 423.132,33.221 423.003,33.221 C422.745,33.221 422.496,33.142 422.496,32.644 L422.496,30.417 L423.311,30.417 z" fill="#1A1919"/>
      <path d="M425.68,33.818 C426.714,33.818 427.41,33.032 427.41,31.849 C427.41,30.656 426.714,29.87 425.68,29.87 C424.646,29.87 423.95,30.656 423.95,31.849 C423.95,33.032 424.646,33.818 425.68,33.818 z M425.68,33.291 C424.895,33.291 424.537,32.615 424.537,31.849 C424.537,31.083 424.895,30.397 425.68,30.397 C426.466,30.397 426.824,31.083 426.824,31.849 C426.824,32.615 426.466,33.291 425.68,33.291 z" fill="#1A1919"/>
      <path d="M431.647,28.806 L431.138,31.007 L431.941,31.007 L432.369,28.806 z" fill="#1A1919"/>
      <path d="M437.487,30.894 C437.487,30.259 437.231,29.92 436.746,29.92 C436.38,29.92 436.103,30.153 436.018,30.536 L435.932,30.536 C435.854,30.142 435.614,29.92 435.266,29.92 C434.907,29.92 434.644,30.149 434.558,30.556 L434.473,30.556 L434.473,29.996 L433.775,29.996 L433.775,33.738 L434.459,33.738 L434.459,31.185 C434.459,30.833 434.63,30.611 434.897,30.611 C435.153,30.611 435.296,30.802 435.296,31.147 L435.296,33.738 L435.977,33.738 L435.977,31.185 C435.977,30.833 436.141,30.611 436.404,30.611 C436.657,30.611 436.804,30.806 436.804,31.147 L436.804,33.738 L437.487,33.738 z" fill="#1A1919"/>
      <path d="M439.692,33.8 C440.201,33.8 440.601,33.588 440.782,33.215 L440.854,33.215 L440.854,33.738 L441.609,33.738 L441.609,31.188 C441.609,30.389 441.083,29.934 440.157,29.934 C439.316,29.934 438.711,30.361 438.642,31.007 L439.422,31.007 C439.504,30.734 439.77,30.577 440.136,30.577 C440.574,30.577 440.823,30.795 440.823,31.182 L440.823,31.496 L439.887,31.551 C438.991,31.605 438.506,32.002 438.506,32.672 C438.506,33.349 438.981,33.8 439.692,33.8 z M439.948,33.15 C439.548,33.15 439.295,32.949 439.295,32.624 C439.295,32.292 439.538,32.104 440.006,32.077 L440.823,32.033 L440.823,32.374 C440.823,32.826 440.454,33.15 439.948,33.15 z" fill="#1A1919"/>
      <path d="M442.967,31.055 C442.967,31.612 443.316,31.968 444.006,32.121 L444.567,32.245 C444.994,32.337 445.151,32.463 445.151,32.709 C445.151,33 444.878,33.191 444.444,33.191 C444.02,33.191 443.736,33.024 443.668,32.73 L442.878,32.73 C442.933,33.407 443.514,33.813 444.43,33.813 C445.37,33.813 445.968,33.345 445.968,32.617 C445.968,32.057 445.637,31.739 444.888,31.578 L444.331,31.458 C443.924,31.37 443.753,31.233 443.753,30.994 C443.753,30.713 444.017,30.529 444.417,30.529 C444.803,30.529 445.073,30.703 445.127,30.983 L445.879,30.983 C445.828,30.31 445.285,29.913 444.427,29.913 C443.542,29.913 442.967,30.358 442.967,31.055 z" fill="#1A1919"/>
      <path d="M448.035,28.95 L448.035,30.019 L447.051,30.019 L447.051,30.662 L448.035,30.662 L448.035,32.583 C448.035,33.413 448.442,33.748 449.426,33.748 C449.539,33.748 450.168,33.738 450.23,33.728 L450.23,33.092 C450.165,33.099 449.625,33.102 449.488,33.102 C449.064,33.102 448.828,32.918 448.828,32.586 L448.828,30.662 L450.26,30.662 L450.26,30.019 L448.814,30.019 L448.814,28.95 z" fill="#1A1919"/>
      <path d="M453.046,30.549 C453.569,30.549 453.884,30.918 453.884,31.527 L452.188,31.527 C452.188,30.915 452.51,30.549 453.046,30.549 z M453.894,32.723 C453.815,33 453.498,33.181 453.084,33.181 C452.541,33.181 452.188,32.812 452.188,32.241 L452.188,32.06 L454.656,32.06 L454.656,31.605 C454.656,30.566 454.044,29.92 453.06,29.92 C452.065,29.92 451.406,30.57 451.406,31.551 L451.406,32.135 C451.406,33.202 452.021,33.813 453.087,33.813 C453.925,33.813 454.561,33.366 454.649,32.723 z" fill="#1A1919"/>
      <path d="M457.246,30.953 L457.246,29.996 L455.677,29.996 L455.677,30.59 L456.477,30.59 L456.477,33.143 L455.749,33.143 L455.749,33.738 L458.357,33.738 L458.357,33.143 L457.243,33.143 L457.243,32.07 C457.243,31.205 457.697,30.734 458.562,30.734 C458.767,30.734 459.013,30.775 459.181,30.84 L459.181,29.975 C459.051,29.924 458.856,29.896 458.644,29.896 C457.933,29.896 457.516,30.231 457.362,30.953 z" fill="#1A1919"/>
      <path d="M461.392,31.007 L461.902,28.806 L461.098,28.806 L460.671,31.007 z" fill="#1A1919"/>
      <path d="M42.911,16.507 L88.889,72.236 C92.307,76.381 97.4,78.781 102.773,78.781 L241.77,78.781" fill-opacity="0" stroke="#243D71" stroke-width="2"/>
      <path d="M491.666,16.507 L445.687,72.236 C442.269,76.381 437.177,78.781 431.804,78.781 L252.806,78.781" fill-opacity="0" stroke="#243D71" stroke-width="2"/>
      <path d="M134.526,78.281 C134.526,81.219 132.143,83.603 129.204,83.603 C126.264,83.603 123.881,81.219 123.881,78.281 C123.881,75.342 126.264,72.958 129.204,72.958 C132.143,72.958 134.526,75.342 134.526,78.281" fill="#FFFFFE"/>
      <path d="M135.026,78.781 C135.026,81.719 132.643,84.103 129.704,84.103 C126.764,84.103 124.381,81.719 124.381,78.781 C124.381,75.842 126.764,73.458 129.704,73.458 C132.643,73.458 135.026,75.842 135.026,78.781 z" fill-opacity="0" stroke="#243D71" stroke-width="2"/>
      <path d="M167.115,78.281 C167.115,81.219 164.732,83.603 161.793,83.603 C158.853,83.603 156.47,81.219 156.47,78.281 C156.47,75.342 158.853,72.958 161.793,72.958 C164.732,72.958 167.115,75.342 167.115,78.281" fill="#FFFFFE"/>
      <path d="M167.615,78.781 C167.615,81.719 165.232,84.103 162.293,84.103 C159.353,84.103 156.97,81.719 156.97,78.781 C156.97,75.842 159.353,73.458 162.293,73.458 C165.232,73.458 167.615,75.842 167.615,78.781 z" fill-opacity="0" stroke="#243D71" stroke-width="2"/>
      <path d="M199.704,78.281 C199.704,81.219 197.321,83.603 194.382,83.603 C191.442,83.603 189.059,81.219 189.059,78.281 C189.059,75.342 191.442,72.958 194.382,72.958 C197.321,72.958 199.704,75.342 199.704,78.281" fill="#FFFFFE"/>
      <path d="M200.204,78.781 C200.204,81.719 197.821,84.103 194.882,84.103 C191.942,84.103 189.559,81.719 189.559,78.781 C189.559,75.842 191.942,73.458 194.882,73.458 C197.821,73.458 200.204,75.842 200.204,78.781 z" fill-opacity="0" stroke="#243D71" stroke-width="2"/>
      <path d="M298.968,78.281 C298.968,81.219 296.585,83.603 293.646,83.603 C290.706,83.603 288.323,81.219 288.323,78.281 C288.323,75.342 290.706,72.958 293.646,72.958 C296.585,72.958 298.968,75.342 298.968,78.281" fill="#FFFFFE"/>
      <path d="M299.468,78.781 C299.468,81.719 297.085,84.103 294.146,84.103 C291.206,84.103 288.823,81.719 288.823,78.781 C288.823,75.842 291.206,73.458 294.146,73.458 C297.085,73.458 299.468,75.842 299.468,78.781 z" fill-opacity="0" stroke="#243D71" stroke-width="2"/>
      <path d="M331.557,78.281 C331.557,81.219 329.174,83.603 326.235,83.603 C323.295,83.603 320.912,81.219 320.912,78.281 C320.912,75.342 323.295,72.958 326.235,72.958 C329.174,72.958 331.557,75.342 331.557,78.281" fill="#FFFFFE"/>
      <path d="M332.057,78.781 C332.057,81.719 329.674,84.103 326.735,84.103 C323.795,84.103 321.412,81.719 321.412,78.781 C321.412,75.842 323.795,73.458 326.735,73.458 C329.674,73.458 332.057,75.842 332.057,78.781 z" fill-opacity="0" stroke="#243D71" stroke-width="2"/>
      <path d="M364.146,78.281 C364.146,81.219 361.763,83.603 358.824,83.603 C355.884,83.603 353.501,81.219 353.501,78.281 C353.501,75.342 355.884,72.958 358.824,72.958 C361.763,72.958 364.146,75.342 364.146,78.281" fill="#FFFFFE"/>
      <path d="M364.646,78.781 C364.646,81.719 362.263,84.103 359.324,84.103 C356.384,84.103 354.001,81.719 354.001,78.781 C354.001,75.842 356.384,73.458 359.324,73.458 C362.263,73.458 364.646,75.842 364.646,78.781 z" fill-opacity="0" stroke="#243D71" stroke-width="2"/>
      <path d="M396.734,78.281 C396.734,81.219 394.351,83.603 391.412,83.603 C388.472,83.603 386.089,81.219 386.089,78.281 C386.089,75.342 388.472,72.958 391.412,72.958 C394.351,72.958 396.734,75.342 396.734,78.281" fill="#FFFFFE"/>
      <path d="M397.234,78.781 C397.234,81.719 394.851,84.103 391.912,84.103 C388.972,84.103 386.589,81.719 386.589,78.781 C386.589,75.842 388.972,73.458 391.912,73.458 C394.851,73.458 397.234,75.842 397.234,78.781 z" fill-opacity="0" stroke="#243D71" stroke-width="2"/>
      <path d="M241.271,91.305 C249.002,91.305 255.271,85.036 255.271,77.305 C255.271,69.573 249.002,63.305 241.271,63.305 C233.539,63.305 227.271,69.573 227.271,77.305 C227.271,85.036 233.539,91.305 241.271,91.305" fill="#FFFFFE"/>
      <path d="M241.771,91.805 C249.502,91.805 255.771,85.536 255.771,77.805 C255.771,70.073 249.502,63.805 241.771,63.805 C234.039,63.805 227.771,70.073 227.771,77.805 C227.771,85.536 234.039,91.805 241.771,91.805 z" fill-opacity="0" stroke="#243D71" stroke-width="2"/>
      <path d="M237.251,70.804 C238.359,70.804 239.258,71.7 239.258,72.804 C239.258,73.908 238.359,74.804 237.251,74.804 C236.142,74.804 235.243,73.908 235.243,72.804 C235.243,71.7 236.142,70.804 237.251,70.804 z" fill-opacity="0" stroke="#4B73AB" stroke-width="2" stroke-linecap="round" stroke-linejoin="round"/>
      <path d="M237.249,80.805 C238.353,80.805 239.249,81.7 239.249,82.805 C239.249,83.909 238.353,84.805 237.249,84.805 C236.145,84.805 235.249,83.909 235.249,82.805 C235.249,81.7 236.145,80.805 237.249,80.805 z" fill-opacity="0" stroke="#4B73AB" stroke-width="2" stroke-linecap="round" stroke-linejoin="round"/>
      <path d="M246.748,80.805 C247.852,80.805 248.748,81.7 248.748,82.805 C248.748,83.909 247.852,84.805 246.748,84.805 C245.644,84.805 244.748,83.909 244.748,82.805 C244.748,81.7 245.644,80.805 246.748,80.805 z" fill-opacity="0" stroke="#4B73AB" stroke-width="2" stroke-linecap="round" stroke-linejoin="round"/>
      <path d="M237.248,74.809 L237.248,80.81" fill-opacity="0" stroke="#4B73AB" stroke-width="2"/>
      <path d="M243.823,72.792 L244.85,72.77 C245.932,72.805 246.79,73.696 246.783,74.78 L246.748,79.805" fill-opacity="0" stroke="#4B73AB" stroke-width="2" stroke-linecap="round" stroke-linejoin="round"/>
      <path d="M244.018,74.838 L241.824,72.792 L243.87,70.599" fill-opacity="0" stroke="#4B73AB" stroke-width="2" stroke-linecap="round" stroke-linejoin="round"/>
      <path d="M5.5,16.507 L522.934,16.507" fill-opacity="0" stroke="#243D71" stroke-width="2"/>
      <path d="M490.676,30.5 C498.408,30.5 504.676,24.231 504.676,16.5 C504.676,8.768 498.408,2.5 490.676,2.5 C482.945,2.5 476.676,8.768 476.676,16.5 C476.676,24.231 482.945,30.5 490.676,30.5" fill="#FFFFFE"/>
      <path d="M491.176,31 C498.908,31 505.176,24.731 505.176,17 C505.176,9.268 498.908,3 491.176,3 C483.445,3 477.176,9.268 477.176,17 C477.176,24.731 483.445,31 491.176,31 z" fill-opacity="0" stroke="#243D71" stroke-width="2"/>
      <path d="M486.653,12 C486.653,12 487.157,18 496.153,18" fill-opacity="0" stroke="#4B73AB" stroke-width="2"/>
      <path d="M486.154,19.5 C487.258,19.5 488.154,20.395 488.154,21.5 C488.154,22.604 487.258,23.5 486.154,23.5 C485.05,23.5 484.154,22.604 484.154,21.5 C484.154,20.395 485.05,19.5 486.154,19.5" fill="#FFFFFE"/>
      <path d="M486.654,20 C487.758,20 488.654,20.895 488.654,22 C488.654,23.104 487.758,24 486.654,24 C485.55,24 484.654,23.104 484.654,22 C484.654,20.895 485.55,20 486.654,20 z" fill-opacity="0" stroke="#4B73AB" stroke-width="2" stroke-linecap="round" stroke-linejoin="round"/>
      <path d="M486.156,9.5 C487.264,9.5 488.164,10.395 488.164,11.499 C488.164,12.604 487.264,13.5 486.156,13.5 C485.048,13.5 484.148,12.604 484.148,11.499 C484.148,10.395 485.048,9.5 486.156,9.5" fill="#FFFFFE"/>
      <path d="M486.656,10 C487.764,10 488.664,10.895 488.664,11.999 C488.664,13.104 487.764,14 486.656,14 C485.548,14 484.648,13.104 484.648,11.999 C484.648,10.895 485.548,10 486.656,10 z" fill-opacity="0" stroke="#4B73AB" stroke-width="2" stroke-linecap="round" stroke-linejoin="round"/>
      <path d="M495.653,15.5 C496.757,15.5 497.653,16.395 497.653,17.5 C497.653,18.604 496.757,19.5 495.653,19.5 C494.549,19.5 493.653,18.604 493.653,17.5 C493.653,16.395 494.549,15.5 495.653,15.5" fill="#FFFFFE"/>
      <path d="M496.153,16 C497.257,16 498.153,16.895 498.153,18 C498.153,19.104 497.257,20 496.153,20 C495.049,20 494.153,19.104 494.153,18 C494.153,16.895 495.049,16 496.153,16 z" fill-opacity="0" stroke="#4B73AB" stroke-width="2" stroke-linecap="round" stroke-linejoin="round"/>
      <path d="M486.653,14.004 L486.653,20.005" fill-opacity="0" stroke="#4B73AB" stroke-width="2"/>
      <path d="M42.411,30.5 C50.142,30.5 56.411,24.231 56.411,16.5 C56.411,8.768 50.142,2.5 42.411,2.5 C34.679,2.5 28.411,8.768 28.411,16.5 C28.411,24.231 34.679,30.5 42.411,30.5" fill="#FFFFFE"/>
      <path d="M42.911,31 C50.642,31 56.911,24.731 56.911,17 C56.911,9.268 50.642,3 42.911,3 C35.179,3 28.911,9.268 28.911,17 C28.911,24.731 35.179,31 42.911,31 z" fill-opacity="0" stroke="#243D71" stroke-width="2"/>
      <path d="M38.391,17.536 L44.487,17.536 C46.366,17.536 47.888,16.014 47.888,14.135 L47.888,14" fill-opacity="0" stroke="#4B73AB" stroke-width="2"/>
      <path d="M38.39,20 C39.494,20 40.39,20.895 40.39,22 C40.39,23.104 39.494,24 38.39,24 C37.286,24 36.39,23.104 36.39,22 C36.39,20.895 37.286,20 38.39,20 z" fill-opacity="0" stroke="#4B73AB" stroke-width="2" stroke-linecap="round" stroke-linejoin="round"/>
      <path d="M38.391,10 C39.5,10 40.399,10.895 40.399,11.999 C40.399,13.104 39.5,14 38.391,14 C37.283,14 36.384,13.104 36.384,11.999 C36.384,10.895 37.283,10 38.391,10 z" fill-opacity="0" stroke="#4B73AB" stroke-width="2" stroke-linecap="round" stroke-linejoin="round"/>
      <path d="M47.888,10 C48.992,10 49.888,10.895 49.888,12 C49.888,13.104 48.992,14 47.888,14 C46.784,14 45.888,13.104 45.888,12 C45.888,10.895 46.784,10 47.888,10 z" fill-opacity="0" stroke="#4B73AB" stroke-width="2" stroke-linecap="round" stroke-linejoin="round"/>
      <path d="M38.388,14.004 L38.388,20.005" fill-opacity="0" stroke="#4B73AB" stroke-width="2"/>
      <path d="M320.849,91.991 L320.849,91.324 C320.849,90.458 319.799,89.324 318.849,89.324 L314.849,89.324 C313.898,89.324 312.849,90.458 312.849,91.324 L312.849,93.324 L312.849,97.991 L315.515,95.991 L318.182,95.991 C320.052,95.97 320.849,94.773 320.849,93.324 L320.849,91.991 z" fill-opacity="0" stroke="#4B73AB" stroke-width="2" stroke-linecap="round" stroke-linejoin="round"/>
      <path d="M317.682,91.491 C317.314,91.491 317.015,91.79 317.015,92.157 C317.015,92.526 317.314,92.824 317.682,92.824 C318.05,92.824 318.349,92.526 318.349,92.157 C318.349,91.79 318.05,91.491 317.682,91.491" fill="#4B73AB"/>
    </g>
    <g clip-path="url(#Clip_13)">
      <path d="M313.682,96.157 L321.682,96.157 L321.682,88.157 L313.682,88.157 z" fill="#4B73AB"/>
    </g>
    <path d="M315.015,91.491 C314.648,91.491 314.349,91.79 314.349,92.157 C314.349,92.526 314.648,92.824 315.015,92.824 C315.383,92.824 315.682,92.526 315.682,92.157 C315.682,91.79 315.383,91.491 315.015,91.491" fill="#4B73AB"/>
    <g clip-path="url(#Clip_14)">
      <path d="M311.015,96.157 L319.015,96.157 L319.015,88.157 L311.015,88.157 z" fill="#4B73AB"/>
    </g>
    <g>
      <path d="M301.849,95.703 L301.849,95.037 C301.849,94.171 302.898,93.037 303.849,93.037 L307.849,93.037 C308.799,93.037 309.849,94.171 309.849,95.037 L309.849,97.037 L309.849,101.703 L307.182,99.703 L304.515,99.703 C302.645,99.682 301.849,98.486 301.849,97.037 L301.849,95.703 z" fill-opacity="0" stroke="#4B73AB" stroke-width="2" stroke-linecap="round" stroke-linejoin="round"/>
      <path d="M304.015,95.203 C304.383,95.203 304.682,95.502 304.682,95.87 C304.682,96.238 304.383,96.537 304.015,96.537 C303.648,96.537 303.349,96.238 303.349,95.87 C303.349,95.502 303.648,95.203 304.015,95.203" fill="#4B73AB"/>
    </g>
    <g clip-path="url(#Clip_15)">
      <path d="M300.015,99.87 L308.015,99.87 L308.015,91.87 L300.015,91.87 z" fill="#4B73AB"/>
    </g>
    <path d="M306.682,95.203 C307.05,95.203 307.349,95.502 307.349,95.87 C307.349,96.238 307.05,96.537 306.682,96.537 C306.314,96.537 306.015,96.238 306.015,95.87 C306.015,95.502 306.314,95.203 306.682,95.203" fill="#4B73AB"/>
    <g clip-path="url(#Clip_16)">
      <path d="M302.682,99.87 L310.682,99.87 L310.682,91.87 L302.682,91.87 z" fill="#4B73AB"/>
    </g>
    <g>
      <path d="M384.623,91.991 L384.623,91.324 C384.623,90.458 383.574,89.324 382.623,89.324 L378.623,89.324 C377.673,89.324 376.623,90.458 376.623,91.324 L376.623,93.324 L376.623,97.991 L379.29,95.991 L381.956,95.991 C383.826,95.97 384.623,94.773 384.623,93.324 L384.623,91.991 z" fill-opacity="0" stroke="#4B73AB" stroke-width="2" stroke-linecap="round" stroke-linejoin="round"/>
      <path d="M381.456,91.491 C381.089,91.491 380.79,91.79 380.79,92.157 C380.79,92.526 381.089,92.824 381.456,92.824 C381.824,92.824 382.123,92.526 382.123,92.157 C382.123,91.79 381.824,91.491 381.456,91.491" fill="#4B73AB"/>
    </g>
    <g clip-path="url(#Clip_17)">
      <path d="M377.456,96.157 L385.456,96.157 L385.456,88.157 L377.456,88.157 z" fill="#4B73AB"/>
    </g>
    <path d="M378.79,91.491 C378.422,91.491 378.123,91.79 378.123,92.157 C378.123,92.526 378.422,92.824 378.79,92.824 C379.157,92.824 379.456,92.526 379.456,92.157 C379.456,91.79 379.157,91.491 378.79,91.491" fill="#4B73AB"/>
    <g clip-path="url(#Clip_18)">
      <path d="M374.79,96.157 L382.79,96.157 L382.79,88.157 L374.79,88.157 z" fill="#4B73AB"/>
    </g>
    <g>
      <path d="M365.623,95.703 L365.623,95.037 C365.623,94.171 366.672,93.037 367.623,93.037 L371.623,93.037 C372.574,93.037 373.623,94.171 373.623,95.037 L373.623,97.037 L373.623,101.703 L370.956,99.703 L368.29,99.703 C366.42,99.682 365.623,98.486 365.623,97.037 L365.623,95.703 z" fill-opacity="0" stroke="#4B73AB" stroke-width="2" stroke-linecap="round" stroke-linejoin="round"/>
      <path d="M367.79,95.203 C368.157,95.203 368.456,95.502 368.456,95.87 C368.456,96.238 368.157,96.537 367.79,96.537 C367.422,96.537 367.123,96.238 367.123,95.87 C367.123,95.502 367.422,95.203 367.79,95.203" fill="#4B73AB"/>
    </g>
    <g clip-path="url(#Clip_19)">
      <path d="M363.79,99.87 L371.79,99.87 L371.79,91.87 L363.79,91.87 z" fill="#4B73AB"/>
    </g>
    <path d="M370.456,95.203 C370.824,95.203 371.123,95.502 371.123,95.87 C371.123,96.238 370.824,96.537 370.456,96.537 C370.089,96.537 369.79,96.238 369.79,95.87 C369.79,95.502 370.089,95.203 370.456,95.203" fill="#4B73AB"/>
    <g clip-path="url(#Clip_20)">
      <path d="M366.456,99.87 L374.456,99.87 L374.456,91.87 L366.456,91.87 z" fill="#4B73AB"/>
    </g>
  </g>
</svg>
